M48
;GenerationSoftware,Autodesk,EAGLE,9.7.0*%
;CreationDate,2025-04-06T09:53:00Z*%
FMAT,2
ICI,OFF
METRIC,TZ,000.000
T2C0.300
T1C0.650
%
G90
M71
T1
X154591Y61690
X154591Y55910
T2
X-2540Y54483
X1143Y58166
X-2286Y97663
X2794Y98044
X18542Y111633
X73406Y26670
X72136Y26670
X67183Y18034
X67564Y18923
X22352Y59817
X127254Y52451
X127508Y57277
X143256Y54229
X117348Y52070
X51816Y59309
X67056Y29464
X117348Y45847
X143256Y53594
X118872Y48006
X98679Y45593
X73660Y51689
X147320Y54229
X62103Y56261
X67945Y30861
X90551Y52324
X116078Y60452
X116078Y62992
X47498Y112268
X40259Y107569
X1778Y49657
X-381Y51816
X34163Y107950
X127000Y57658
X124714Y52070
X112395Y53975
X116332Y44069
X111125Y51054
X73152Y18161
X140716Y20066
X-1651Y97536
X-3175Y94869
X19812Y41148
X5969Y51816
X-1016Y30099
X-381Y58674
X59055Y15875
X68961Y17653
X27559Y41910
X4953Y51435
X-5461Y96139
X-381Y57404
X6350Y22098
X123571Y18669
X110998Y50419
X132588Y23876
X24511Y54356
X7620Y59309
X-3175Y98171
X-2032Y71628
X-5080Y42164
X92964Y50546
X66040Y55753
X3810Y104775
X46609Y76581
X72136Y18415
X77978Y33655
X124968Y53467
X111760Y49276
X63246Y32131
X65405Y32131
X79121Y18288
X53721Y19939
X70485Y16129
X57658Y16129
X54864Y19304
X54229Y17780
X10160Y41148
X10160Y24003
X73152Y20066
X65786Y23114
X135763Y19939
X74676Y20066
X56896Y26670
X135509Y13716
X131445Y17780
X22860Y47371
X16764Y47371
X28321Y41910
X31369Y100838
X62484Y100838
X31369Y99568
X65913Y99568
X16637Y64897
X19431Y62103
X125984Y57277
X127762Y59055
X46736Y63754
X60833Y61087
X86360Y59309
X122936Y23368
X136017Y55372
X153924Y25019
X26289Y37084
X27432Y58166
X8890Y66675
X53848Y55245
X76708Y51181
X23876Y55245
X25908Y57277
X8382Y68834
X17526Y62103
X21463Y58166
X135890Y54737
X153416Y26924
X78105Y60325
X51562Y60579
X76708Y16383
X109982Y16637
X42926Y109982
X28321Y62103
X54102Y36322
X77470Y27305
X80137Y17780
X76073Y16383
X105029Y16129
X31369Y19304
X54610Y16002
X55753Y16383
X76327Y17399
X54864Y17780
X-127Y67183
X-2667Y64643
X14986Y61595
X50546Y61595
X15240Y62738
X16637Y64135
X9652Y111760
X7112Y69342
X16637Y111125
X37465Y109601
X127Y64897
X68199Y21336
X74041Y23749
X69215Y21082
X76454Y26670
X71120Y23876
X70104Y23876
X72136Y20447
X69723Y21844
X76327Y23241
X59563Y24638
X78232Y20066
X63627Y23622
X78740Y66294
X78740Y60579
X42926Y108331
X10922Y113157
M30