G04 EAGLE Gerber RS-274X export*
G75*
%MOMM*%
%FSLAX34Y34*%
%LPD*%
%INTop Copper*%
%IPPOS*%
%AMOC8*
5,1,8,0,0,1.08239X$1,22.5*%
G01*
G04 Define Apertures*
%ADD10R,1.200000X0.600000*%
%ADD11R,0.900000X0.800000*%
%ADD12R,1.150000X0.300000*%
%ADD13R,2.000000X2.180000*%
%ADD14R,3.600000X1.500000*%
%ADD15R,0.700000X0.900000*%
%ADD16R,0.900000X0.700000*%
%ADD17R,0.900000X0.600000*%
%ADD18R,2.000000X2.200000*%
%ADD19R,1.200000X1.800000*%
%ADD20R,1.900000X1.400000*%
%ADD21R,1.500000X0.700000*%
%ADD22R,1.168400X1.600200*%
%ADD23R,1.150000X0.800000*%
%ADD24R,0.500000X1.050000*%
%ADD25R,1.200000X0.550000*%
%ADD26R,0.127000X0.127000*%
%ADD27R,0.800000X0.800000*%
%ADD28R,0.900000X1.500000*%
%ADD29R,0.300000X0.800000*%
%ADD30R,0.400000X0.800000*%
%ADD31R,0.800000X0.900000*%
%ADD32C,0.125000*%
%ADD33R,1.400000X1.050000*%
%ADD34C,0.067500*%
%ADD35R,0.900000X1.300000*%
%ADD36C,0.147500*%
%ADD37C,2.000000*%
%ADD38R,2.000000X1.200000*%
%ADD39R,1.350000X0.600000*%
%ADD40R,0.940000X0.970000*%
%ADD41R,0.970000X0.940000*%
%ADD42C,0.110000*%
%ADD43R,3.400000X4.300000*%
%ADD44R,1.400000X1.400000*%
%ADD45C,0.127000*%
%ADD46C,0.452400*%
G36*
X-39189Y710784D02*
X-39485Y710719D01*
X-39783Y710774D01*
X-39886Y710843D01*
X-98076Y710843D01*
X-98351Y710894D01*
X-98606Y711058D01*
X-98778Y711308D01*
X-98838Y711605D01*
X-98838Y1157660D01*
X-98787Y1157935D01*
X-98623Y1158190D01*
X-98373Y1158362D01*
X-98076Y1158422D01*
X105476Y1158422D01*
X105751Y1158371D01*
X106006Y1158207D01*
X106178Y1157957D01*
X106238Y1157660D01*
X106238Y1136606D01*
X107211Y1135633D01*
X107369Y1135403D01*
X107434Y1135107D01*
X107378Y1134809D01*
X107211Y1134556D01*
X105688Y1133033D01*
X105688Y1130107D01*
X106146Y1129649D01*
X106299Y1129429D01*
X106369Y1129134D01*
X106318Y1128835D01*
X106155Y1128580D01*
X105905Y1128408D01*
X105607Y1128348D01*
X98574Y1128348D01*
X97830Y1127604D01*
X97830Y1125347D01*
X97779Y1125072D01*
X97615Y1124817D01*
X97365Y1124645D01*
X97068Y1124585D01*
X53821Y1124585D01*
X-9229Y1061535D01*
X-9449Y1061382D01*
X-9744Y1061312D01*
X-10043Y1061363D01*
X-10298Y1061526D01*
X-10470Y1061777D01*
X-10530Y1062074D01*
X-10530Y1065526D01*
X-11274Y1066270D01*
X-21326Y1066270D01*
X-22070Y1065526D01*
X-22070Y1057474D01*
X-21326Y1056730D01*
X-14530Y1056730D01*
X-14244Y1056674D01*
X-13991Y1056507D01*
X-12055Y1054571D01*
X-11902Y1054351D01*
X-11832Y1054056D01*
X-11883Y1053757D01*
X-12046Y1053502D01*
X-12297Y1053330D01*
X-12594Y1053270D01*
X-21326Y1053270D01*
X-22070Y1052526D01*
X-22070Y1044474D01*
X-21326Y1043730D01*
X-19177Y1043730D01*
X-18902Y1043679D01*
X-18647Y1043515D01*
X-18475Y1043265D01*
X-18415Y1042968D01*
X-18415Y978766D01*
X-18471Y978480D01*
X-18638Y978227D01*
X-20042Y976823D01*
X-20042Y973897D01*
X-17867Y971722D01*
X-17704Y971622D01*
X-17529Y971374D01*
X-17464Y971078D01*
X-17519Y970780D01*
X-17687Y970527D01*
X-31046Y957168D01*
X-31288Y957005D01*
X-31585Y956945D01*
X-35728Y956945D01*
X-36003Y956996D01*
X-36258Y957160D01*
X-36430Y957410D01*
X-36490Y957707D01*
X-36490Y958026D01*
X-37393Y958929D01*
X-37546Y959149D01*
X-37616Y959444D01*
X-37565Y959743D01*
X-37402Y959998D01*
X-37152Y960170D01*
X-36854Y960230D01*
X-35234Y960230D01*
X-34490Y960974D01*
X-34490Y969026D01*
X-35272Y969808D01*
X-35322Y969817D01*
X-35580Y969976D01*
X-35755Y970224D01*
X-35820Y970520D01*
X-35765Y970818D01*
X-35597Y971071D01*
X-35220Y971448D01*
X-35220Y975238D01*
X-55300Y975238D01*
X-55300Y971448D01*
X-53812Y969960D01*
X-52792Y969960D01*
X-52517Y969909D01*
X-52262Y969745D01*
X-52090Y969495D01*
X-52030Y969198D01*
X-52030Y966597D01*
X-52081Y966322D01*
X-52245Y966067D01*
X-52495Y965895D01*
X-52792Y965835D01*
X-52859Y965835D01*
X-53549Y965145D01*
X-53791Y964982D01*
X-54088Y964922D01*
X-56073Y964922D01*
X-58142Y962853D01*
X-58142Y959927D01*
X-56073Y957858D01*
X-54792Y957858D01*
X-54517Y957807D01*
X-54262Y957643D01*
X-54090Y957393D01*
X-54030Y957096D01*
X-54030Y949740D01*
X-54086Y949454D01*
X-54253Y949201D01*
X-55245Y948209D01*
X-55245Y916151D01*
X-38958Y899864D01*
X-38795Y899623D01*
X-38735Y899325D01*
X-38735Y711481D01*
X-38782Y711217D01*
X-38941Y710959D01*
X-39189Y710784D01*
G37*
%LPC*%
G36*
X-83800Y1005262D02*
X-72522Y1005262D01*
X-72522Y1014040D01*
X-82312Y1014040D01*
X-83800Y1012552D01*
X-83800Y1005262D01*
G37*
G36*
X-70998Y1005262D02*
X-59720Y1005262D01*
X-59720Y1012552D01*
X-61208Y1014040D01*
X-70998Y1014040D01*
X-70998Y1005262D01*
G37*
G36*
X-82312Y994960D02*
X-72522Y994960D01*
X-72522Y1003738D01*
X-83800Y1003738D01*
X-83800Y996448D01*
X-82312Y994960D01*
G37*
G36*
X-70998Y994960D02*
X-61208Y994960D01*
X-59720Y996448D01*
X-59720Y1003738D01*
X-70998Y1003738D01*
X-70998Y994960D01*
G37*
G36*
X-55300Y976762D02*
X-35220Y976762D01*
X-35220Y978345D01*
X-35173Y978609D01*
X-35014Y978867D01*
X-34766Y979042D01*
X-34470Y979107D01*
X-34172Y979052D01*
X-33919Y978884D01*
X-33213Y978178D01*
X-30287Y978178D01*
X-28218Y980247D01*
X-28218Y983173D01*
X-30287Y985242D01*
X-32272Y985242D01*
X-32558Y985298D01*
X-32811Y985465D01*
X-34267Y986921D01*
X-34430Y987163D01*
X-34490Y987460D01*
X-34490Y991026D01*
X-35425Y991961D01*
X-35583Y992192D01*
X-35648Y992488D01*
X-35593Y992786D01*
X-35425Y993039D01*
X-34490Y993974D01*
X-34490Y1002026D01*
X-35234Y1002770D01*
X-51286Y1002770D01*
X-52030Y1002026D01*
X-52030Y993974D01*
X-51095Y993039D01*
X-50937Y992808D01*
X-50872Y992512D01*
X-50927Y992214D01*
X-51095Y991961D01*
X-52030Y991026D01*
X-52030Y982802D01*
X-52081Y982527D01*
X-52245Y982272D01*
X-52495Y982100D01*
X-52792Y982040D01*
X-53812Y982040D01*
X-55300Y980552D01*
X-55300Y976762D01*
G37*
G36*
X-93800Y873762D02*
X-82522Y873762D01*
X-82522Y882540D01*
X-92312Y882540D01*
X-93800Y881052D01*
X-93800Y873762D01*
G37*
G36*
X-80998Y873762D02*
X-69720Y873762D01*
X-69720Y881052D01*
X-71208Y882540D01*
X-80998Y882540D01*
X-80998Y873762D01*
G37*
G36*
X-80998Y863460D02*
X-71208Y863460D01*
X-69720Y864948D01*
X-69720Y872238D01*
X-80998Y872238D01*
X-80998Y863460D01*
G37*
G36*
X-92312Y863460D02*
X-82522Y863460D01*
X-82522Y872238D01*
X-93800Y872238D01*
X-93800Y864948D01*
X-92312Y863460D01*
G37*
%LPD*%
G36*
X1597364Y51825D02*
X1597067Y51765D01*
X831269Y52359D01*
X830995Y52410D01*
X830740Y52574D01*
X830568Y52824D01*
X830508Y53121D01*
X830508Y149601D01*
X830510Y150742D01*
X829699Y151552D01*
X828893Y152362D01*
X827746Y152362D01*
X645714Y152762D01*
X645712Y152762D01*
X644564Y152767D01*
X643757Y151963D01*
X643756Y151962D01*
X642941Y151153D01*
X642938Y150009D01*
X642938Y150008D01*
X642552Y53532D01*
X642501Y53260D01*
X642337Y53005D01*
X642087Y52833D01*
X641790Y52773D01*
X-97995Y52773D01*
X-98270Y52824D01*
X-98525Y52987D01*
X-98697Y53238D01*
X-98757Y53535D01*
X-98757Y524407D01*
X-98706Y524682D01*
X-98542Y524937D01*
X-98292Y525109D01*
X-97995Y525169D01*
X-39937Y525169D01*
X-38319Y526787D01*
X-38319Y686565D01*
X-38272Y686829D01*
X-38113Y687087D01*
X-37865Y687262D01*
X-37569Y687327D01*
X-37271Y687272D01*
X-37018Y687104D01*
X-23718Y673804D01*
X-23555Y673563D01*
X-23495Y673265D01*
X-23495Y650090D01*
X-23542Y649826D01*
X-23701Y649568D01*
X-23949Y649393D01*
X-24245Y649328D01*
X-24543Y649383D01*
X-24796Y649551D01*
X-25207Y649962D01*
X-28133Y649962D01*
X-30202Y647893D01*
X-30202Y644967D01*
X-28798Y643563D01*
X-28635Y643322D01*
X-28575Y643024D01*
X-28575Y551015D01*
X-28631Y550729D01*
X-28798Y550476D01*
X-34925Y544349D01*
X-34925Y329411D01*
X-11337Y305823D01*
X-11184Y305603D01*
X-11114Y305308D01*
X-11165Y305009D01*
X-11328Y304754D01*
X-11528Y304617D01*
X-13692Y302453D01*
X-13692Y299527D01*
X-12288Y298123D01*
X-12125Y297882D01*
X-12065Y297584D01*
X-12065Y233518D01*
X-12118Y233238D01*
X-12284Y232984D01*
X-12535Y232814D01*
X-16784Y231054D01*
X-19954Y227884D01*
X-21670Y223742D01*
X-21670Y219258D01*
X-19954Y215116D01*
X-16784Y211946D01*
X-12642Y210230D01*
X-8158Y210230D01*
X-4348Y211808D01*
X-4068Y211866D01*
X-3770Y211811D01*
X-3517Y211643D01*
X76681Y131445D01*
X565939Y131445D01*
X589489Y154995D01*
X589731Y155158D01*
X590028Y155218D01*
X592013Y155218D01*
X594082Y157287D01*
X594082Y160213D01*
X592013Y162282D01*
X589087Y162282D01*
X587018Y160213D01*
X587018Y158228D01*
X586962Y157942D01*
X586795Y157689D01*
X572241Y143135D01*
X572021Y142982D01*
X571726Y142912D01*
X571427Y142963D01*
X571310Y143038D01*
X564662Y143038D01*
X564662Y137760D01*
X565026Y137760D01*
X565290Y137713D01*
X565548Y137554D01*
X565723Y137306D01*
X565788Y137010D01*
X565733Y136712D01*
X565565Y136459D01*
X564584Y135478D01*
X564343Y135315D01*
X564045Y135255D01*
X534910Y135255D01*
X534646Y135302D01*
X534388Y135461D01*
X534213Y135709D01*
X534148Y136005D01*
X534203Y136303D01*
X534371Y136556D01*
X534759Y136944D01*
X534990Y137102D01*
X535286Y137167D01*
X535491Y137129D01*
X548388Y137129D01*
X549132Y137873D01*
X549132Y151152D01*
X549188Y151438D01*
X549355Y151691D01*
X551746Y154082D01*
X551988Y154245D01*
X552285Y154305D01*
X557368Y154305D01*
X557643Y154254D01*
X557898Y154090D01*
X558070Y153840D01*
X558130Y153543D01*
X558130Y152774D01*
X558874Y152030D01*
X568926Y152030D01*
X569670Y152774D01*
X569670Y158623D01*
X569721Y158898D01*
X569885Y159153D01*
X570135Y159325D01*
X570432Y159385D01*
X573174Y159385D01*
X573460Y159329D01*
X573713Y159162D01*
X575117Y157758D01*
X578043Y157758D01*
X580112Y159827D01*
X580112Y162753D01*
X578043Y164822D01*
X575117Y164822D01*
X573713Y163418D01*
X573472Y163255D01*
X573174Y163195D01*
X571335Y163195D01*
X571049Y163251D01*
X570796Y163418D01*
X563399Y170815D01*
X547632Y170815D01*
X547357Y170866D01*
X547102Y171030D01*
X546930Y171280D01*
X546870Y171577D01*
X546870Y173506D01*
X546921Y173781D01*
X547085Y174036D01*
X547335Y174208D01*
X547632Y174268D01*
X550103Y174268D01*
X552172Y176337D01*
X552172Y179263D01*
X550103Y181332D01*
X548118Y181332D01*
X547832Y181388D01*
X547579Y181555D01*
X544380Y184754D01*
X544227Y184974D01*
X544157Y185269D01*
X544208Y185568D01*
X544371Y185823D01*
X544622Y185995D01*
X544919Y186055D01*
X669455Y186055D01*
X669741Y185999D01*
X669994Y185832D01*
X701521Y154305D01*
X786919Y154305D01*
X800859Y168245D01*
X801079Y168398D01*
X801374Y168468D01*
X801673Y168417D01*
X801928Y168254D01*
X802100Y168004D01*
X802108Y167962D01*
X811240Y167962D01*
X811240Y172252D01*
X809752Y173740D01*
X808194Y173740D01*
X807930Y173787D01*
X807672Y173946D01*
X807497Y174194D01*
X807432Y174490D01*
X807487Y174788D01*
X807655Y175041D01*
X953066Y320452D01*
X953308Y320615D01*
X953605Y320675D01*
X1162215Y320675D01*
X1162501Y320619D01*
X1162754Y320452D01*
X1333981Y149225D01*
X1341789Y149225D01*
X1342053Y149178D01*
X1342311Y149019D01*
X1342486Y148771D01*
X1342551Y148475D01*
X1342496Y148177D01*
X1342328Y147924D01*
X1342130Y147726D01*
X1342130Y147447D01*
X1342079Y147172D01*
X1341915Y146917D01*
X1341665Y146745D01*
X1341368Y146685D01*
X1278725Y146685D01*
X1278439Y146741D01*
X1278186Y146908D01*
X1239465Y185629D01*
X1239302Y185871D01*
X1239242Y186168D01*
X1239242Y188153D01*
X1237173Y190222D01*
X1234247Y190222D01*
X1232566Y188541D01*
X1232346Y188388D01*
X1232051Y188318D01*
X1231752Y188369D01*
X1231497Y188532D01*
X1231325Y188782D01*
X1231265Y189080D01*
X1231265Y230274D01*
X1231321Y230560D01*
X1231488Y230813D01*
X1232892Y232217D01*
X1232892Y235143D01*
X1230823Y237212D01*
X1227897Y237212D01*
X1225828Y235143D01*
X1225828Y232217D01*
X1227232Y230813D01*
X1227395Y230572D01*
X1227455Y230274D01*
X1227455Y106136D01*
X1227402Y105856D01*
X1227236Y105602D01*
X1226985Y105432D01*
X1223416Y103954D01*
X1220246Y100784D01*
X1218530Y96642D01*
X1218530Y92158D01*
X1220246Y88016D01*
X1223416Y84846D01*
X1227558Y83130D01*
X1232042Y83130D01*
X1236184Y84846D01*
X1239354Y88016D01*
X1241070Y92158D01*
X1241070Y96642D01*
X1239354Y100784D01*
X1236184Y103954D01*
X1232042Y105670D01*
X1232027Y105670D01*
X1231752Y105721D01*
X1231497Y105885D01*
X1231325Y106135D01*
X1231265Y106432D01*
X1231265Y184300D01*
X1231312Y184564D01*
X1231471Y184822D01*
X1231719Y184997D01*
X1232015Y185062D01*
X1232313Y185007D01*
X1232566Y184839D01*
X1234247Y183158D01*
X1236232Y183158D01*
X1236518Y183102D01*
X1236771Y182935D01*
X1276831Y142875D01*
X1341368Y142875D01*
X1341643Y142824D01*
X1341898Y142660D01*
X1342070Y142410D01*
X1342130Y142113D01*
X1342130Y139674D01*
X1342874Y138930D01*
X1346073Y138930D01*
X1346348Y138879D01*
X1346603Y138715D01*
X1346775Y138465D01*
X1346835Y138168D01*
X1346835Y136371D01*
X1353031Y130175D01*
X1392709Y130175D01*
X1403985Y141451D01*
X1403985Y197000D01*
X1404032Y197264D01*
X1404191Y197522D01*
X1404439Y197697D01*
X1404735Y197762D01*
X1405033Y197707D01*
X1405286Y197539D01*
X1405697Y197128D01*
X1408623Y197128D01*
X1410692Y199197D01*
X1410692Y201182D01*
X1410748Y201468D01*
X1410915Y201721D01*
X1412051Y202857D01*
X1412293Y203020D01*
X1412590Y203080D01*
X1418354Y203080D01*
X1419420Y204146D01*
X1419420Y208954D01*
X1418354Y210020D01*
X1408354Y210020D01*
X1408090Y210067D01*
X1407832Y210226D01*
X1407657Y210474D01*
X1407592Y210770D01*
X1407647Y211068D01*
X1407815Y211321D01*
X1412051Y215557D01*
X1412293Y215720D01*
X1412590Y215780D01*
X1418354Y215780D01*
X1419420Y216846D01*
X1419420Y221654D01*
X1418354Y222720D01*
X1408546Y222720D01*
X1407480Y221654D01*
X1407480Y216690D01*
X1407424Y216404D01*
X1407257Y216151D01*
X1400175Y209069D01*
X1400175Y143345D01*
X1400119Y143059D01*
X1399952Y142806D01*
X1398936Y141790D01*
X1398716Y141637D01*
X1398421Y141567D01*
X1398122Y141618D01*
X1397867Y141781D01*
X1397695Y142032D01*
X1397635Y142329D01*
X1397635Y162079D01*
X1361385Y198329D01*
X1361222Y198571D01*
X1361162Y198868D01*
X1361162Y200798D01*
X1361213Y201073D01*
X1361377Y201328D01*
X1361627Y201500D01*
X1361924Y201560D01*
X1373738Y201560D01*
X1373738Y224838D01*
X1354960Y224838D01*
X1354960Y203048D01*
X1355088Y202920D01*
X1355246Y202690D01*
X1355311Y202394D01*
X1355255Y202096D01*
X1355088Y201843D01*
X1354098Y200853D01*
X1354098Y197927D01*
X1356167Y195858D01*
X1358152Y195858D01*
X1358438Y195802D01*
X1358691Y195635D01*
X1391557Y162769D01*
X1391710Y162550D01*
X1391780Y162254D01*
X1391729Y161956D01*
X1391565Y161700D01*
X1391315Y161529D01*
X1391018Y161468D01*
X1383624Y161468D01*
X1382880Y160724D01*
X1382880Y158877D01*
X1382829Y158602D01*
X1382665Y158347D01*
X1382415Y158175D01*
X1382118Y158115D01*
X1381732Y158115D01*
X1381457Y158166D01*
X1381202Y158330D01*
X1381030Y158580D01*
X1380970Y158877D01*
X1380970Y160926D01*
X1380226Y161670D01*
X1370174Y161670D01*
X1369430Y160926D01*
X1369430Y160147D01*
X1369379Y159872D01*
X1369215Y159617D01*
X1368965Y159445D01*
X1368668Y159385D01*
X1368032Y159385D01*
X1367757Y159436D01*
X1367502Y159600D01*
X1367330Y159850D01*
X1367270Y160147D01*
X1367270Y160826D01*
X1366526Y161570D01*
X1356474Y161570D01*
X1355730Y160826D01*
X1355730Y158877D01*
X1355679Y158602D01*
X1355515Y158347D01*
X1355265Y158175D01*
X1354968Y158115D01*
X1354432Y158115D01*
X1354157Y158166D01*
X1353902Y158330D01*
X1353730Y158580D01*
X1353670Y158877D01*
X1353670Y160726D01*
X1352926Y161470D01*
X1346490Y161470D01*
X1346204Y161526D01*
X1345951Y161693D01*
X1330548Y177096D01*
X1330385Y177338D01*
X1330325Y177635D01*
X1330325Y201048D01*
X1330376Y201323D01*
X1330540Y201578D01*
X1330790Y201750D01*
X1331087Y201810D01*
X1334788Y201810D01*
X1334788Y211290D01*
X1334694Y211290D01*
X1334430Y211337D01*
X1334172Y211496D01*
X1333997Y211744D01*
X1333932Y212040D01*
X1333987Y212338D01*
X1334155Y212591D01*
X1336696Y215132D01*
X1336726Y215293D01*
X1336890Y215548D01*
X1337140Y215720D01*
X1337437Y215780D01*
X1340454Y215780D01*
X1341520Y216846D01*
X1341520Y221654D01*
X1340368Y222806D01*
X1340210Y223037D01*
X1340145Y223333D01*
X1340200Y223631D01*
X1340368Y223884D01*
X1353659Y237175D01*
X1353879Y237328D01*
X1354174Y237398D01*
X1354473Y237347D01*
X1354728Y237184D01*
X1354900Y236934D01*
X1354960Y236636D01*
X1354960Y226362D01*
X1394040Y226362D01*
X1394040Y247523D01*
X1394091Y247798D01*
X1394255Y248053D01*
X1394505Y248225D01*
X1394802Y248285D01*
X1406055Y248285D01*
X1406341Y248229D01*
X1406594Y248062D01*
X1407257Y247399D01*
X1407420Y247158D01*
X1407480Y246860D01*
X1407480Y242246D01*
X1408546Y241180D01*
X1410843Y241180D01*
X1411118Y241129D01*
X1411373Y240965D01*
X1411545Y240715D01*
X1411605Y240418D01*
X1411605Y236182D01*
X1411554Y235907D01*
X1411390Y235652D01*
X1411140Y235480D01*
X1410843Y235420D01*
X1408546Y235420D01*
X1407480Y234354D01*
X1407480Y229546D01*
X1408546Y228480D01*
X1418354Y228480D01*
X1419420Y229546D01*
X1419420Y231013D01*
X1419471Y231288D01*
X1419635Y231543D01*
X1419885Y231715D01*
X1420182Y231775D01*
X1541308Y231775D01*
X1541583Y231724D01*
X1541838Y231560D01*
X1542010Y231310D01*
X1542070Y231013D01*
X1542070Y229474D01*
X1542107Y229437D01*
X1542265Y229206D01*
X1542330Y228910D01*
X1542275Y228612D01*
X1542107Y228359D01*
X1540800Y227052D01*
X1540800Y223762D01*
X1559380Y223762D01*
X1559380Y227052D01*
X1558073Y228359D01*
X1557915Y228590D01*
X1557850Y228886D01*
X1557905Y229184D01*
X1558073Y229437D01*
X1558110Y229474D01*
X1558110Y236526D01*
X1557175Y237461D01*
X1557017Y237692D01*
X1556952Y237988D01*
X1557007Y238286D01*
X1557175Y238539D01*
X1558110Y239474D01*
X1558110Y246526D01*
X1557175Y247461D01*
X1557017Y247692D01*
X1556952Y247988D01*
X1557007Y248286D01*
X1557175Y248539D01*
X1558110Y249474D01*
X1558110Y256526D01*
X1557366Y257270D01*
X1549140Y257270D01*
X1548854Y257326D01*
X1548601Y257493D01*
X1537915Y268179D01*
X1537752Y268421D01*
X1537692Y268718D01*
X1537692Y270703D01*
X1535623Y272772D01*
X1532697Y272772D01*
X1530628Y270703D01*
X1530628Y267777D01*
X1532697Y265708D01*
X1534682Y265708D01*
X1534968Y265652D01*
X1535221Y265485D01*
X1542586Y258120D01*
X1542744Y257889D01*
X1542809Y257593D01*
X1542754Y257295D01*
X1542586Y257042D01*
X1542070Y256526D01*
X1542070Y254195D01*
X1542023Y253931D01*
X1541864Y253673D01*
X1541616Y253498D01*
X1541320Y253433D01*
X1541022Y253488D01*
X1540769Y253656D01*
X1540703Y253722D01*
X1537777Y253722D01*
X1535708Y251653D01*
X1535708Y248727D01*
X1537777Y246658D01*
X1539762Y246658D01*
X1540048Y246602D01*
X1540301Y246435D01*
X1541847Y244889D01*
X1542010Y244648D01*
X1542070Y244350D01*
X1542070Y239474D01*
X1543005Y238539D01*
X1543163Y238308D01*
X1543228Y238012D01*
X1543173Y237714D01*
X1543005Y237461D01*
X1542070Y236526D01*
X1542070Y236347D01*
X1542019Y236072D01*
X1541855Y235817D01*
X1541605Y235645D01*
X1541308Y235585D01*
X1416177Y235585D01*
X1415902Y235636D01*
X1415647Y235800D01*
X1415475Y236050D01*
X1415415Y236347D01*
X1415415Y240418D01*
X1415466Y240693D01*
X1415630Y240948D01*
X1415880Y241120D01*
X1416177Y241180D01*
X1418354Y241180D01*
X1419420Y242246D01*
X1419420Y247054D01*
X1418354Y248120D01*
X1412240Y248120D01*
X1411954Y248176D01*
X1411701Y248343D01*
X1407949Y252095D01*
X1385697Y252095D01*
X1385422Y252146D01*
X1385167Y252310D01*
X1384995Y252560D01*
X1384935Y252857D01*
X1384935Y448183D01*
X1384986Y448458D01*
X1385150Y448713D01*
X1385400Y448885D01*
X1385697Y448945D01*
X1404368Y448945D01*
X1404643Y448894D01*
X1404898Y448730D01*
X1405070Y448480D01*
X1405130Y448183D01*
X1405130Y438974D01*
X1405874Y438230D01*
X1426926Y438230D01*
X1427670Y438974D01*
X1427670Y462026D01*
X1426926Y462770D01*
X1405874Y462770D01*
X1405130Y462026D01*
X1405130Y453517D01*
X1405079Y453242D01*
X1404915Y452987D01*
X1404665Y452815D01*
X1404368Y452755D01*
X1371435Y452755D01*
X1371149Y452811D01*
X1370896Y452978D01*
X1348290Y475584D01*
X1348137Y475804D01*
X1348067Y476099D01*
X1348118Y476398D01*
X1348281Y476653D01*
X1348532Y476825D01*
X1348829Y476885D01*
X1446049Y476885D01*
X1523369Y554205D01*
X1523589Y554358D01*
X1523884Y554428D01*
X1524183Y554377D01*
X1524438Y554214D01*
X1524610Y553964D01*
X1524670Y553666D01*
X1524670Y552162D01*
X1541250Y552162D01*
X1541250Y553738D01*
X1532198Y553738D01*
X1532198Y555262D01*
X1541631Y555262D01*
X1541631Y555141D01*
X1541704Y555193D01*
X1542000Y555258D01*
X1542298Y555202D01*
X1542551Y555035D01*
X1543735Y553850D01*
X1548085Y553850D01*
X1551160Y556925D01*
X1551160Y561275D01*
X1548085Y564350D01*
X1543735Y564350D01*
X1541181Y561795D01*
X1540961Y561642D01*
X1540666Y561573D01*
X1540367Y561623D01*
X1540112Y561787D01*
X1539940Y562037D01*
X1539933Y562073D01*
X1539845Y562161D01*
X1539687Y562392D01*
X1539622Y562688D01*
X1539677Y562986D01*
X1539845Y563239D01*
X1539980Y563374D01*
X1539980Y564150D01*
X1540036Y564436D01*
X1540203Y564689D01*
X1546225Y570711D01*
X1546225Y605309D01*
X1540203Y611331D01*
X1540040Y611573D01*
X1539980Y611870D01*
X1539980Y613566D01*
X1540027Y613829D01*
X1540186Y614087D01*
X1540434Y614263D01*
X1540730Y614328D01*
X1541028Y614272D01*
X1541281Y614105D01*
X1543735Y611650D01*
X1548085Y611650D01*
X1551160Y614725D01*
X1551160Y619075D01*
X1548085Y622150D01*
X1543735Y622150D01*
X1542551Y620965D01*
X1542331Y620812D01*
X1542036Y620743D01*
X1541737Y620793D01*
X1541631Y620861D01*
X1541631Y620838D01*
X1524670Y620838D01*
X1524670Y619362D01*
X1533722Y619362D01*
X1533722Y617838D01*
X1524670Y617838D01*
X1524670Y616048D01*
X1525717Y615001D01*
X1525880Y614760D01*
X1525940Y614462D01*
X1525940Y608544D01*
X1526033Y608408D01*
X1526098Y608112D01*
X1526043Y607814D01*
X1525940Y607659D01*
X1525940Y607187D01*
X1525889Y606912D01*
X1525725Y606657D01*
X1525475Y606485D01*
X1525178Y606425D01*
X1464791Y606425D01*
X1410335Y551969D01*
X1410335Y523721D01*
X1429607Y504449D01*
X1429770Y504208D01*
X1429830Y503910D01*
X1429830Y499707D01*
X1429840Y499660D01*
X1429785Y499362D01*
X1429617Y499109D01*
X1428360Y497852D01*
X1428360Y493062D01*
X1440440Y493062D01*
X1440440Y497852D01*
X1439383Y498909D01*
X1439225Y499140D01*
X1439160Y499436D01*
X1439215Y499734D01*
X1439370Y499967D01*
X1439370Y510026D01*
X1438626Y510770D01*
X1430574Y510770D01*
X1430163Y510359D01*
X1429932Y510201D01*
X1429636Y510136D01*
X1429338Y510191D01*
X1429085Y510359D01*
X1418815Y520629D01*
X1418662Y520849D01*
X1418592Y521144D01*
X1418643Y521443D01*
X1418806Y521698D01*
X1419057Y521870D01*
X1419354Y521930D01*
X1429326Y521930D01*
X1430070Y522674D01*
X1430070Y529726D01*
X1429385Y530411D01*
X1429227Y530642D01*
X1429162Y530938D01*
X1429217Y531236D01*
X1429385Y531489D01*
X1430162Y532266D01*
X1430392Y532424D01*
X1430688Y532489D01*
X1430987Y532433D01*
X1431024Y532408D01*
X1434023Y532408D01*
X1436092Y534477D01*
X1436092Y536462D01*
X1436148Y536748D01*
X1436315Y537001D01*
X1437959Y538645D01*
X1438179Y538798D01*
X1438474Y538868D01*
X1438773Y538817D01*
X1439028Y538654D01*
X1439200Y538404D01*
X1439260Y538106D01*
X1439260Y536462D01*
X1456340Y536462D01*
X1456340Y539752D01*
X1455283Y540809D01*
X1455125Y541040D01*
X1455060Y541336D01*
X1455070Y541391D01*
X1455070Y548726D01*
X1454326Y549470D01*
X1444274Y549470D01*
X1444010Y549517D01*
X1443752Y549676D01*
X1443577Y549924D01*
X1443512Y550220D01*
X1443567Y550518D01*
X1443735Y550771D01*
X1444556Y551592D01*
X1444798Y551755D01*
X1445095Y551815D01*
X1460068Y551815D01*
X1460343Y551764D01*
X1460598Y551600D01*
X1460770Y551350D01*
X1460830Y551053D01*
X1460830Y549974D01*
X1461574Y549230D01*
X1471626Y549230D01*
X1472370Y549974D01*
X1472370Y558026D01*
X1471626Y558770D01*
X1461574Y558770D01*
X1460830Y558026D01*
X1460830Y556387D01*
X1460779Y556112D01*
X1460615Y555857D01*
X1460365Y555685D01*
X1460068Y555625D01*
X1444079Y555625D01*
X1443815Y555672D01*
X1443557Y555831D01*
X1443382Y556079D01*
X1443317Y556375D01*
X1443372Y556673D01*
X1443540Y556926D01*
X1458259Y571645D01*
X1458479Y571798D01*
X1458774Y571868D01*
X1459073Y571817D01*
X1459328Y571654D01*
X1459500Y571404D01*
X1459560Y571106D01*
X1459560Y567762D01*
X1465838Y567762D01*
X1465838Y573040D01*
X1461494Y573040D01*
X1461230Y573087D01*
X1460972Y573246D01*
X1460797Y573494D01*
X1460732Y573790D01*
X1460787Y574088D01*
X1460955Y574341D01*
X1467416Y580802D01*
X1467658Y580965D01*
X1467955Y581025D01*
X1524165Y581025D01*
X1524451Y580969D01*
X1524704Y580802D01*
X1525717Y579789D01*
X1525880Y579548D01*
X1525940Y579250D01*
X1525940Y578544D01*
X1526033Y578408D01*
X1526098Y578112D01*
X1526043Y577814D01*
X1525923Y577634D01*
X1525884Y577434D01*
X1525717Y577181D01*
X1523365Y574829D01*
X1523365Y571335D01*
X1523309Y571049D01*
X1523142Y570796D01*
X1454941Y502595D01*
X1454721Y502442D01*
X1454426Y502372D01*
X1454127Y502423D01*
X1453872Y502586D01*
X1453700Y502837D01*
X1453640Y503134D01*
X1453640Y504238D01*
X1441560Y504238D01*
X1441560Y499448D01*
X1442617Y498391D01*
X1442775Y498160D01*
X1442840Y497864D01*
X1442785Y497566D01*
X1442630Y497333D01*
X1442630Y487274D01*
X1443374Y486530D01*
X1448466Y486530D01*
X1448730Y486483D01*
X1448988Y486324D01*
X1449163Y486076D01*
X1449228Y485780D01*
X1449173Y485482D01*
X1449005Y485229D01*
X1444694Y480918D01*
X1444453Y480755D01*
X1444155Y480695D01*
X1347305Y480695D01*
X1347019Y480751D01*
X1346766Y480918D01*
X1296189Y531495D01*
X1253340Y531495D01*
X1253076Y531542D01*
X1252818Y531701D01*
X1252643Y531949D01*
X1252578Y532245D01*
X1252633Y532543D01*
X1252801Y532796D01*
X1253212Y533207D01*
X1253212Y535192D01*
X1253268Y535478D01*
X1253435Y535731D01*
X1276211Y558507D01*
X1276453Y558670D01*
X1276750Y558730D01*
X1283826Y558730D01*
X1284570Y559474D01*
X1284570Y568833D01*
X1284621Y569108D01*
X1284785Y569363D01*
X1285035Y569535D01*
X1285332Y569595D01*
X1327315Y569595D01*
X1327601Y569539D01*
X1327854Y569372D01*
X1363191Y534035D01*
X1392468Y534035D01*
X1392743Y533984D01*
X1392998Y533820D01*
X1393170Y533570D01*
X1393230Y533273D01*
X1393230Y530874D01*
X1393974Y530130D01*
X1404026Y530130D01*
X1404770Y530874D01*
X1404770Y538926D01*
X1404026Y539670D01*
X1393974Y539670D01*
X1393230Y538926D01*
X1393230Y538607D01*
X1393179Y538332D01*
X1393015Y538077D01*
X1392765Y537905D01*
X1392468Y537845D01*
X1365085Y537845D01*
X1364799Y537901D01*
X1364546Y538068D01*
X1360077Y542537D01*
X1359924Y542757D01*
X1359854Y543052D01*
X1359905Y543351D01*
X1360068Y543606D01*
X1360268Y543743D01*
X1362432Y545907D01*
X1362432Y548833D01*
X1361894Y549371D01*
X1361736Y549602D01*
X1361671Y549898D01*
X1361726Y550196D01*
X1361894Y550449D01*
X1363702Y552257D01*
X1363702Y555183D01*
X1361633Y557252D01*
X1359648Y557252D01*
X1359362Y557308D01*
X1359109Y557475D01*
X1308830Y607754D01*
X1308672Y607985D01*
X1308607Y608281D01*
X1308663Y608579D01*
X1308830Y608832D01*
X1309035Y609037D01*
X1309277Y609200D01*
X1309574Y609260D01*
X1313138Y609260D01*
X1313138Y619062D01*
X1314662Y619062D01*
X1314662Y609260D01*
X1316648Y609260D01*
X1316923Y609209D01*
X1317178Y609045D01*
X1317350Y608795D01*
X1317385Y608620D01*
X1319096Y606910D01*
X1322988Y606910D01*
X1322988Y611562D01*
X1330090Y611562D01*
X1330090Y613004D01*
X1329043Y614051D01*
X1328880Y614293D01*
X1328820Y614590D01*
X1328820Y617478D01*
X1328537Y617761D01*
X1328379Y617992D01*
X1328314Y618288D01*
X1328370Y618586D01*
X1328537Y618839D01*
X1328820Y619122D01*
X1328820Y619690D01*
X1328876Y619976D01*
X1329043Y620229D01*
X1331595Y622781D01*
X1331595Y629439D01*
X1329209Y631825D01*
X1242541Y631825D01*
X1227559Y616843D01*
X1227318Y616680D01*
X1227020Y616620D01*
X1225350Y616620D01*
X1225064Y616676D01*
X1224811Y616843D01*
X1212369Y629285D01*
X1165074Y629285D01*
X1164799Y629336D01*
X1164544Y629500D01*
X1164372Y629750D01*
X1164312Y630047D01*
X1164312Y631383D01*
X1162243Y633452D01*
X1159317Y633452D01*
X1157248Y631383D01*
X1157248Y630047D01*
X1157197Y629772D01*
X1157033Y629517D01*
X1156783Y629345D01*
X1156486Y629285D01*
X1119351Y629285D01*
X1015434Y525368D01*
X1015193Y525205D01*
X1014895Y525145D01*
X908916Y525145D01*
X908630Y525201D01*
X908377Y525368D01*
X907638Y526107D01*
X907475Y526348D01*
X907415Y526646D01*
X907415Y573559D01*
X789528Y691446D01*
X789365Y691688D01*
X789305Y691985D01*
X789305Y1069001D01*
X789358Y1069281D01*
X789524Y1069536D01*
X789775Y1069705D01*
X793012Y1071046D01*
X796182Y1074216D01*
X797898Y1078358D01*
X797898Y1082842D01*
X796182Y1086984D01*
X793012Y1090154D01*
X788870Y1091870D01*
X784386Y1091870D01*
X780244Y1090154D01*
X777074Y1086984D01*
X775358Y1082842D01*
X775358Y1078358D01*
X777074Y1074216D01*
X780244Y1071046D01*
X784386Y1069330D01*
X784733Y1069330D01*
X785008Y1069279D01*
X785263Y1069115D01*
X785435Y1068865D01*
X785495Y1068568D01*
X785495Y690091D01*
X791660Y683926D01*
X791813Y683706D01*
X791883Y683411D01*
X791832Y683112D01*
X791669Y682857D01*
X791419Y682685D01*
X791121Y682625D01*
X780261Y682625D01*
X772871Y675235D01*
X772651Y675082D01*
X772356Y675012D01*
X772057Y675063D01*
X771802Y675226D01*
X771630Y675477D01*
X771570Y675774D01*
X771570Y676626D01*
X770826Y677370D01*
X761774Y677370D01*
X761030Y676626D01*
X761030Y674497D01*
X760979Y674222D01*
X760815Y673967D01*
X760565Y673795D01*
X760268Y673735D01*
X554825Y673735D01*
X554539Y673791D01*
X554286Y673958D01*
X474005Y754239D01*
X473854Y754453D01*
X473782Y754748D01*
X473831Y755047D01*
X473992Y755304D01*
X474241Y755477D01*
X474537Y755540D01*
X474835Y755482D01*
X477858Y754230D01*
X482342Y754230D01*
X486484Y755946D01*
X489654Y759116D01*
X491370Y763258D01*
X491370Y767742D01*
X489654Y771884D01*
X486484Y775054D01*
X482342Y776770D01*
X477858Y776770D01*
X473716Y775054D01*
X470546Y771884D01*
X469361Y769024D01*
X469213Y768794D01*
X468965Y768619D01*
X468669Y768554D01*
X468371Y768609D01*
X468118Y768777D01*
X467553Y769342D01*
X464627Y769342D01*
X462452Y767167D01*
X462352Y767004D01*
X462104Y766829D01*
X461808Y766764D01*
X461510Y766819D01*
X461257Y766987D01*
X456719Y771525D01*
X435752Y771525D01*
X435471Y771578D01*
X435217Y771744D01*
X435048Y771995D01*
X433354Y776084D01*
X430184Y779254D01*
X426042Y780970D01*
X421558Y780970D01*
X417762Y779398D01*
X417482Y779340D01*
X417184Y779395D01*
X416931Y779563D01*
X388208Y808286D01*
X388045Y808528D01*
X387985Y808825D01*
X387985Y1051698D01*
X388036Y1051973D01*
X388200Y1052228D01*
X388450Y1052400D01*
X388747Y1052460D01*
X392538Y1052460D01*
X392538Y1058762D01*
X400340Y1058762D01*
X400340Y1062052D01*
X399283Y1063109D01*
X399125Y1063340D01*
X399060Y1063636D01*
X399070Y1063691D01*
X399070Y1069160D01*
X399126Y1069446D01*
X399293Y1069699D01*
X401529Y1071935D01*
X401771Y1072098D01*
X402068Y1072158D01*
X404053Y1072158D01*
X406122Y1074227D01*
X406122Y1077153D01*
X404053Y1079222D01*
X401127Y1079222D01*
X400371Y1078466D01*
X400151Y1078313D01*
X399856Y1078243D01*
X399557Y1078294D01*
X399302Y1078457D01*
X399130Y1078707D01*
X399070Y1079005D01*
X399070Y1080526D01*
X398326Y1081270D01*
X392400Y1081270D01*
X392114Y1081326D01*
X391861Y1081493D01*
X378405Y1094949D01*
X378242Y1095191D01*
X378182Y1095488D01*
X378182Y1097473D01*
X377771Y1097884D01*
X377618Y1098104D01*
X377548Y1098399D01*
X377599Y1098698D01*
X377762Y1098953D01*
X378012Y1099125D01*
X378310Y1099185D01*
X420535Y1099185D01*
X420821Y1099129D01*
X421074Y1098962D01*
X428471Y1091565D01*
X488469Y1091565D01*
X502105Y1105201D01*
X502347Y1105364D01*
X502644Y1105424D01*
X509222Y1105424D01*
X509966Y1106168D01*
X509966Y1112746D01*
X510021Y1113032D01*
X510189Y1113285D01*
X510359Y1113455D01*
X510578Y1113608D01*
X510873Y1113677D01*
X511172Y1113627D01*
X511428Y1113463D01*
X511599Y1113213D01*
X511660Y1112916D01*
X511660Y1108250D01*
X513147Y1106762D01*
X520438Y1106762D01*
X520438Y1115314D01*
X530740Y1115314D01*
X530740Y1120854D01*
X529182Y1122411D01*
X529024Y1122642D01*
X528959Y1122938D01*
X529015Y1123236D01*
X529182Y1123489D01*
X529470Y1123776D01*
X529470Y1127633D01*
X529521Y1127908D01*
X529684Y1128163D01*
X529934Y1128335D01*
X530232Y1128395D01*
X547168Y1128395D01*
X547442Y1128344D01*
X547698Y1128180D01*
X547869Y1127930D01*
X547930Y1127633D01*
X547930Y1123776D01*
X548217Y1123489D01*
X548375Y1123258D01*
X548440Y1122962D01*
X548384Y1122664D01*
X548217Y1122411D01*
X546660Y1120854D01*
X546660Y1115314D01*
X565807Y1115314D01*
X565946Y1115538D01*
X566193Y1115714D01*
X566489Y1115779D01*
X566787Y1115723D01*
X567040Y1115556D01*
X568701Y1113895D01*
X568864Y1113653D01*
X568924Y1113356D01*
X568924Y1106101D01*
X569668Y1105357D01*
X579721Y1105357D01*
X580464Y1106101D01*
X580464Y1114153D01*
X579721Y1114897D01*
X573403Y1114897D01*
X573117Y1114952D01*
X572864Y1115120D01*
X572198Y1115786D01*
X572045Y1116005D01*
X571975Y1116300D01*
X572026Y1116599D01*
X572190Y1116855D01*
X572440Y1117026D01*
X572737Y1117087D01*
X573932Y1117087D01*
X573932Y1122365D01*
X567273Y1122365D01*
X567273Y1122794D01*
X567201Y1122742D01*
X566905Y1122677D01*
X566606Y1122733D01*
X566354Y1122900D01*
X564693Y1124561D01*
X564530Y1124803D01*
X564470Y1125100D01*
X564470Y1134226D01*
X564521Y1134501D01*
X564684Y1134756D01*
X564934Y1134928D01*
X565232Y1134988D01*
X631144Y1134988D01*
X632762Y1136606D01*
X632762Y1157476D01*
X632813Y1157751D01*
X632977Y1158006D01*
X633227Y1158178D01*
X633524Y1158238D01*
X817076Y1158238D01*
X817351Y1158187D01*
X817606Y1158023D01*
X817778Y1157773D01*
X817838Y1157476D01*
X817838Y719856D01*
X819456Y718238D01*
X1597067Y718238D01*
X1597342Y718187D01*
X1597597Y718023D01*
X1597769Y717773D01*
X1597829Y717476D01*
X1597829Y274032D01*
X1597778Y273757D01*
X1597614Y273502D01*
X1597364Y273330D01*
X1597067Y273270D01*
X1576314Y273270D01*
X1575570Y272526D01*
X1575570Y259474D01*
X1576314Y258730D01*
X1597067Y258730D01*
X1597342Y258679D01*
X1597597Y258515D01*
X1597769Y258265D01*
X1597829Y257968D01*
X1597829Y218032D01*
X1597778Y217757D01*
X1597614Y217502D01*
X1597364Y217330D01*
X1597067Y217270D01*
X1576314Y217270D01*
X1575570Y216526D01*
X1575570Y203474D01*
X1576314Y202730D01*
X1597067Y202730D01*
X1597342Y202679D01*
X1597597Y202515D01*
X1597769Y202265D01*
X1597829Y201968D01*
X1597829Y52527D01*
X1597778Y52252D01*
X1597614Y51996D01*
X1597364Y51825D01*
G37*
%LPC*%
G36*
X567654Y1123889D02*
X573932Y1123889D01*
X573932Y1129167D01*
X569142Y1129167D01*
X567654Y1127679D01*
X567654Y1123889D01*
G37*
G36*
X575456Y1123889D02*
X581734Y1123889D01*
X581734Y1127679D01*
X580247Y1129167D01*
X575456Y1129167D01*
X575456Y1123889D01*
G37*
G36*
X575456Y1117087D02*
X580247Y1117087D01*
X581734Y1118575D01*
X581734Y1122365D01*
X575456Y1122365D01*
X575456Y1117087D01*
G37*
G36*
X556962Y1106762D02*
X564252Y1106762D01*
X565740Y1108250D01*
X565740Y1113790D01*
X556962Y1113790D01*
X556962Y1106762D01*
G37*
G36*
X548147Y1106762D02*
X555438Y1106762D01*
X555438Y1113790D01*
X546660Y1113790D01*
X546660Y1108250D01*
X548147Y1106762D01*
G37*
G36*
X521962Y1106762D02*
X529252Y1106762D01*
X530740Y1108250D01*
X530740Y1113790D01*
X521962Y1113790D01*
X521962Y1106762D01*
G37*
G36*
X657667Y992148D02*
X660593Y992148D01*
X662662Y994217D01*
X662662Y996202D01*
X662718Y996488D01*
X662885Y996741D01*
X738864Y1072720D01*
X739095Y1072878D01*
X739391Y1072943D01*
X739689Y1072888D01*
X739881Y1072760D01*
X744058Y1071030D01*
X748542Y1071030D01*
X752684Y1072746D01*
X755854Y1075916D01*
X757570Y1080058D01*
X757570Y1084542D01*
X755854Y1088684D01*
X752684Y1091854D01*
X748542Y1093570D01*
X744058Y1093570D01*
X739916Y1091854D01*
X736746Y1088684D01*
X735030Y1084542D01*
X735030Y1080058D01*
X736529Y1076439D01*
X736587Y1076159D01*
X736532Y1075861D01*
X736364Y1075608D01*
X660191Y999435D01*
X659950Y999272D01*
X659652Y999212D01*
X657667Y999212D01*
X655598Y997143D01*
X655598Y994217D01*
X657667Y992148D01*
G37*
G36*
X623377Y1004848D02*
X626303Y1004848D01*
X628372Y1006917D01*
X628372Y1008902D01*
X628428Y1009188D01*
X628595Y1009441D01*
X691245Y1072090D01*
X691481Y1072251D01*
X691777Y1072314D01*
X692075Y1072256D01*
X695758Y1070730D01*
X700242Y1070730D01*
X704384Y1072446D01*
X707554Y1075616D01*
X709270Y1079758D01*
X709270Y1084242D01*
X707554Y1088384D01*
X704384Y1091554D01*
X700242Y1093270D01*
X695758Y1093270D01*
X691616Y1091554D01*
X688446Y1088384D01*
X686730Y1084242D01*
X686730Y1079758D01*
X688480Y1075534D01*
X688533Y1075456D01*
X688598Y1075160D01*
X688543Y1074862D01*
X688375Y1074609D01*
X625901Y1012135D01*
X625660Y1011972D01*
X625362Y1011912D01*
X623377Y1011912D01*
X621308Y1009843D01*
X621308Y1006917D01*
X623377Y1004848D01*
G37*
G36*
X444974Y1055630D02*
X455026Y1055630D01*
X455770Y1056374D01*
X455770Y1064426D01*
X455026Y1065170D01*
X447870Y1065170D01*
X447584Y1065226D01*
X447331Y1065393D01*
X446665Y1066059D01*
X446512Y1066279D01*
X446442Y1066574D01*
X446493Y1066873D01*
X446656Y1067128D01*
X446907Y1067300D01*
X447204Y1067360D01*
X449238Y1067360D01*
X449238Y1072638D01*
X442960Y1072638D01*
X442960Y1071604D01*
X442913Y1071340D01*
X442754Y1071082D01*
X442506Y1070907D01*
X442210Y1070842D01*
X441912Y1070897D01*
X441659Y1071065D01*
X433859Y1078865D01*
X427832Y1078865D01*
X427557Y1078916D01*
X427302Y1079080D01*
X427130Y1079330D01*
X427070Y1079627D01*
X427070Y1080526D01*
X426326Y1081270D01*
X416274Y1081270D01*
X415530Y1080526D01*
X415530Y1073474D01*
X416274Y1072730D01*
X426326Y1072730D01*
X427070Y1073474D01*
X427070Y1074293D01*
X427121Y1074568D01*
X427285Y1074823D01*
X427535Y1074995D01*
X427832Y1075055D01*
X431965Y1075055D01*
X432251Y1074999D01*
X432504Y1074832D01*
X444007Y1063329D01*
X444170Y1063088D01*
X444230Y1062790D01*
X444230Y1056374D01*
X444974Y1055630D01*
G37*
G36*
X442960Y1074162D02*
X449238Y1074162D01*
X449238Y1079440D01*
X444448Y1079440D01*
X442960Y1077952D01*
X442960Y1074162D01*
G37*
G36*
X450762Y1074162D02*
X457040Y1074162D01*
X457040Y1077952D01*
X455552Y1079440D01*
X450762Y1079440D01*
X450762Y1074162D01*
G37*
G36*
X450762Y1067360D02*
X455552Y1067360D01*
X457040Y1068848D01*
X457040Y1072638D01*
X450762Y1072638D01*
X450762Y1067360D01*
G37*
G36*
X416274Y1053730D02*
X426326Y1053730D01*
X427070Y1054474D01*
X427070Y1061526D01*
X426326Y1062270D01*
X416274Y1062270D01*
X415530Y1061526D01*
X415530Y1054474D01*
X416274Y1053730D01*
G37*
G36*
X394062Y1052460D02*
X398852Y1052460D01*
X400340Y1053948D01*
X400340Y1057238D01*
X394062Y1057238D01*
X394062Y1052460D01*
G37*
G36*
X1417362Y690462D02*
X1429140Y690462D01*
X1429140Y692194D01*
X1427231Y696803D01*
X1423703Y700331D01*
X1419094Y702240D01*
X1417362Y702240D01*
X1417362Y690462D01*
G37*
G36*
X1404060Y690462D02*
X1415838Y690462D01*
X1415838Y702240D01*
X1414106Y702240D01*
X1409497Y700331D01*
X1405969Y696803D01*
X1404060Y692194D01*
X1404060Y690462D01*
G37*
G36*
X1414106Y677160D02*
X1415838Y677160D01*
X1415838Y688938D01*
X1404060Y688938D01*
X1404060Y687206D01*
X1405969Y682597D01*
X1409497Y679069D01*
X1414106Y677160D01*
G37*
G36*
X1417362Y677160D02*
X1419094Y677160D01*
X1423703Y679069D01*
X1427231Y682597D01*
X1429140Y687206D01*
X1429140Y688938D01*
X1417362Y688938D01*
X1417362Y677160D01*
G37*
G36*
X1404060Y645262D02*
X1415838Y645262D01*
X1415838Y657040D01*
X1414106Y657040D01*
X1409497Y655131D01*
X1405969Y651603D01*
X1404060Y646994D01*
X1404060Y645262D01*
G37*
G36*
X1417362Y645262D02*
X1429140Y645262D01*
X1429140Y646994D01*
X1427231Y651603D01*
X1423703Y655131D01*
X1419094Y657040D01*
X1417362Y657040D01*
X1417362Y645262D01*
G37*
G36*
X1528370Y639862D02*
X1540148Y639862D01*
X1540148Y652540D01*
X1529858Y652540D01*
X1528370Y651052D01*
X1528370Y639862D01*
G37*
G36*
X1580972Y639862D02*
X1592750Y639862D01*
X1592750Y651052D01*
X1591262Y652540D01*
X1580972Y652540D01*
X1580972Y639862D01*
G37*
G36*
X1541672Y639862D02*
X1553450Y639862D01*
X1553450Y651052D01*
X1551962Y652540D01*
X1541672Y652540D01*
X1541672Y639862D01*
G37*
G36*
X1567670Y639862D02*
X1579448Y639862D01*
X1579448Y652540D01*
X1569158Y652540D01*
X1567670Y651052D01*
X1567670Y639862D01*
G37*
G36*
X1414106Y631960D02*
X1415838Y631960D01*
X1415838Y643738D01*
X1404060Y643738D01*
X1404060Y642006D01*
X1405969Y637397D01*
X1409497Y633869D01*
X1414106Y631960D01*
G37*
G36*
X1417362Y631960D02*
X1419094Y631960D01*
X1423703Y633869D01*
X1427231Y637397D01*
X1429140Y642006D01*
X1429140Y643738D01*
X1417362Y643738D01*
X1417362Y631960D01*
G37*
G36*
X1524670Y622362D02*
X1541250Y622362D01*
X1541250Y624152D01*
X1541043Y624359D01*
X1540890Y624579D01*
X1540820Y624874D01*
X1540871Y625173D01*
X1541034Y625428D01*
X1541285Y625600D01*
X1541582Y625660D01*
X1551962Y625660D01*
X1553450Y627148D01*
X1553450Y638338D01*
X1528370Y638338D01*
X1528370Y627148D01*
X1528577Y626941D01*
X1528730Y626721D01*
X1528800Y626426D01*
X1528749Y626127D01*
X1528586Y625872D01*
X1528336Y625700D01*
X1528038Y625640D01*
X1526158Y625640D01*
X1524670Y624152D01*
X1524670Y622362D01*
G37*
G36*
X1569158Y625660D02*
X1579448Y625660D01*
X1579448Y638338D01*
X1567670Y638338D01*
X1567670Y627148D01*
X1569158Y625660D01*
G37*
G36*
X1580972Y625660D02*
X1591262Y625660D01*
X1592750Y627148D01*
X1592750Y638338D01*
X1580972Y638338D01*
X1580972Y625660D01*
G37*
G36*
X1324512Y606910D02*
X1328404Y606910D01*
X1330090Y608596D01*
X1330090Y610038D01*
X1324512Y610038D01*
X1324512Y606910D01*
G37*
G36*
X1467362Y567762D02*
X1473640Y567762D01*
X1473640Y571552D01*
X1472152Y573040D01*
X1467362Y573040D01*
X1467362Y567762D01*
G37*
G36*
X1461048Y560960D02*
X1465838Y560960D01*
X1465838Y566238D01*
X1459560Y566238D01*
X1459560Y562448D01*
X1461048Y560960D01*
G37*
G36*
X1467362Y560960D02*
X1472152Y560960D01*
X1473640Y562448D01*
X1473640Y566238D01*
X1467362Y566238D01*
X1467362Y560960D01*
G37*
G36*
X1391960Y548662D02*
X1398238Y548662D01*
X1398238Y553940D01*
X1393448Y553940D01*
X1391960Y552452D01*
X1391960Y548662D01*
G37*
G36*
X1399762Y548662D02*
X1406040Y548662D01*
X1406040Y552452D01*
X1404552Y553940D01*
X1399762Y553940D01*
X1399762Y548662D01*
G37*
G36*
X1528370Y537662D02*
X1553450Y537662D01*
X1553450Y548852D01*
X1551962Y550340D01*
X1542012Y550340D01*
X1541737Y550391D01*
X1541482Y550555D01*
X1541425Y550638D01*
X1524670Y550638D01*
X1524670Y548848D01*
X1526158Y547360D01*
X1527608Y547360D01*
X1527883Y547309D01*
X1528138Y547145D01*
X1528310Y546895D01*
X1528370Y546598D01*
X1528370Y537662D01*
G37*
G36*
X1580972Y537662D02*
X1592750Y537662D01*
X1592750Y548852D01*
X1591262Y550340D01*
X1580972Y550340D01*
X1580972Y537662D01*
G37*
G36*
X1567670Y537662D02*
X1579448Y537662D01*
X1579448Y550340D01*
X1569158Y550340D01*
X1567670Y548852D01*
X1567670Y537662D01*
G37*
G36*
X1399762Y541860D02*
X1404552Y541860D01*
X1406040Y543348D01*
X1406040Y547138D01*
X1399762Y547138D01*
X1399762Y541860D01*
G37*
G36*
X1393448Y541860D02*
X1398238Y541860D01*
X1398238Y547138D01*
X1391960Y547138D01*
X1391960Y543348D01*
X1393448Y541860D01*
G37*
G36*
X1441274Y521930D02*
X1454326Y521930D01*
X1455070Y522674D01*
X1455070Y524383D01*
X1455121Y524658D01*
X1455285Y524913D01*
X1455535Y525085D01*
X1455832Y525145D01*
X1458749Y525145D01*
X1472139Y538535D01*
X1472381Y538698D01*
X1472678Y538758D01*
X1474663Y538758D01*
X1476732Y540827D01*
X1476732Y543753D01*
X1474663Y545822D01*
X1471737Y545822D01*
X1469668Y543753D01*
X1469668Y541768D01*
X1469612Y541482D01*
X1469445Y541229D01*
X1457394Y529178D01*
X1457153Y529015D01*
X1456855Y528955D01*
X1455832Y528955D01*
X1455557Y529006D01*
X1455302Y529170D01*
X1455130Y529420D01*
X1455070Y529717D01*
X1455070Y529994D01*
X1455060Y530040D01*
X1455115Y530338D01*
X1455283Y530591D01*
X1456340Y531648D01*
X1456340Y534938D01*
X1439260Y534938D01*
X1439260Y531648D01*
X1440317Y530591D01*
X1440475Y530360D01*
X1440540Y530064D01*
X1440530Y530009D01*
X1440530Y522674D01*
X1441274Y521930D01*
G37*
G36*
X1580972Y523460D02*
X1591262Y523460D01*
X1592750Y524948D01*
X1592750Y536138D01*
X1580972Y536138D01*
X1580972Y523460D01*
G37*
G36*
X1529858Y523460D02*
X1540148Y523460D01*
X1540148Y536138D01*
X1528370Y536138D01*
X1528370Y524948D01*
X1529858Y523460D01*
G37*
G36*
X1541672Y523460D02*
X1551962Y523460D01*
X1553450Y524948D01*
X1553450Y536138D01*
X1541672Y536138D01*
X1541672Y523460D01*
G37*
G36*
X1569158Y523460D02*
X1579448Y523460D01*
X1579448Y536138D01*
X1567670Y536138D01*
X1567670Y524948D01*
X1569158Y523460D01*
G37*
G36*
X1448362Y505762D02*
X1453640Y505762D01*
X1453640Y510552D01*
X1452152Y512040D01*
X1448362Y512040D01*
X1448362Y505762D01*
G37*
G36*
X1441560Y505762D02*
X1446838Y505762D01*
X1446838Y512040D01*
X1443048Y512040D01*
X1441560Y510552D01*
X1441560Y505762D01*
G37*
G36*
X1435162Y485260D02*
X1438952Y485260D01*
X1440440Y486748D01*
X1440440Y491538D01*
X1435162Y491538D01*
X1435162Y485260D01*
G37*
G36*
X1429848Y485260D02*
X1433638Y485260D01*
X1433638Y491538D01*
X1428360Y491538D01*
X1428360Y486748D01*
X1429848Y485260D01*
G37*
G36*
X1433860Y451262D02*
X1445638Y451262D01*
X1445638Y464040D01*
X1435348Y464040D01*
X1433860Y462552D01*
X1433860Y451262D01*
G37*
G36*
X1447162Y451262D02*
X1458940Y451262D01*
X1458940Y462552D01*
X1457452Y464040D01*
X1447162Y464040D01*
X1447162Y451262D01*
G37*
G36*
X1447162Y436960D02*
X1457452Y436960D01*
X1458940Y438448D01*
X1458940Y449738D01*
X1447162Y449738D01*
X1447162Y436960D01*
G37*
G36*
X1435348Y436960D02*
X1445638Y436960D01*
X1445638Y449738D01*
X1433860Y449738D01*
X1433860Y438448D01*
X1435348Y436960D01*
G37*
G36*
X-53442Y210030D02*
X-48958Y210030D01*
X-44816Y211746D01*
X-41646Y214916D01*
X-39930Y219058D01*
X-39930Y223542D01*
X-41646Y227684D01*
X-44816Y230854D01*
X-48425Y232349D01*
X-48663Y232506D01*
X-48835Y232756D01*
X-48895Y233053D01*
X-48895Y418234D01*
X-48839Y418520D01*
X-48672Y418773D01*
X-47268Y420177D01*
X-47268Y423103D01*
X-49337Y425172D01*
X-52263Y425172D01*
X-54332Y423103D01*
X-54332Y420177D01*
X-52928Y418773D01*
X-52765Y418532D01*
X-52705Y418234D01*
X-52705Y233332D01*
X-52756Y233057D01*
X-52920Y232802D01*
X-53170Y232630D01*
X-53417Y232580D01*
X-57584Y230854D01*
X-60754Y227684D01*
X-62470Y223542D01*
X-62470Y219058D01*
X-60754Y214916D01*
X-57584Y211746D01*
X-53442Y210030D01*
G37*
G36*
X1375262Y201560D02*
X1392552Y201560D01*
X1394040Y203048D01*
X1394040Y224838D01*
X1375262Y224838D01*
X1375262Y201560D01*
G37*
G36*
X1542288Y217460D02*
X1549328Y217460D01*
X1549328Y222238D01*
X1540800Y222238D01*
X1540800Y218948D01*
X1542288Y217460D01*
G37*
G36*
X1550852Y217460D02*
X1557892Y217460D01*
X1559380Y218948D01*
X1559380Y222238D01*
X1550852Y222238D01*
X1550852Y217460D01*
G37*
G36*
X1336312Y207312D02*
X1342790Y207312D01*
X1342790Y209480D01*
X1340980Y211290D01*
X1336312Y211290D01*
X1336312Y207312D01*
G37*
G36*
X1336312Y201810D02*
X1340980Y201810D01*
X1342790Y203620D01*
X1342790Y205788D01*
X1336312Y205788D01*
X1336312Y201810D01*
G37*
G36*
X667160Y167962D02*
X670938Y167962D01*
X670938Y173740D01*
X668648Y173740D01*
X667160Y172252D01*
X667160Y167962D01*
G37*
G36*
X672462Y167962D02*
X676240Y167962D01*
X676240Y172252D01*
X674752Y173740D01*
X672462Y173740D01*
X672462Y167962D01*
G37*
G36*
X1168358Y84930D02*
X1172842Y84930D01*
X1176984Y86646D01*
X1180154Y89816D01*
X1181870Y93958D01*
X1181870Y98442D01*
X1180154Y102584D01*
X1176984Y105754D01*
X1172842Y107470D01*
X1168358Y107470D01*
X1164216Y105754D01*
X1164212Y105750D01*
X1163981Y105592D01*
X1163685Y105527D01*
X1163387Y105582D01*
X1163134Y105750D01*
X1103575Y165309D01*
X1103412Y165551D01*
X1103352Y165848D01*
X1103352Y167833D01*
X1101283Y169902D01*
X1098357Y169902D01*
X1096288Y167833D01*
X1096288Y164907D01*
X1098357Y162838D01*
X1100342Y162838D01*
X1100628Y162782D01*
X1100881Y162615D01*
X1160647Y102849D01*
X1160807Y102613D01*
X1160870Y102317D01*
X1160812Y102019D01*
X1159330Y98442D01*
X1159330Y93958D01*
X1161046Y89816D01*
X1164216Y86646D01*
X1168358Y84930D01*
G37*
G36*
X807462Y160660D02*
X809752Y160660D01*
X811240Y162148D01*
X811240Y166438D01*
X807462Y166438D01*
X807462Y160660D01*
G37*
G36*
X803648Y160660D02*
X805938Y160660D01*
X805938Y166438D01*
X802160Y166438D01*
X802160Y162148D01*
X803648Y160660D01*
G37*
G36*
X672462Y160660D02*
X674752Y160660D01*
X676240Y162148D01*
X676240Y166438D01*
X672462Y166438D01*
X672462Y160660D01*
G37*
G36*
X668648Y160660D02*
X670938Y160660D01*
X670938Y166438D01*
X667160Y166438D01*
X667160Y162148D01*
X668648Y160660D01*
G37*
G36*
X1111258Y86730D02*
X1115742Y86730D01*
X1119884Y88446D01*
X1123054Y91616D01*
X1124770Y95758D01*
X1124770Y100242D01*
X1123054Y104384D01*
X1119884Y107554D01*
X1115742Y109270D01*
X1111258Y109270D01*
X1107306Y107633D01*
X1107027Y107575D01*
X1106729Y107631D01*
X1106476Y107798D01*
X1054045Y160229D01*
X1053882Y160471D01*
X1053822Y160768D01*
X1053822Y162753D01*
X1051753Y164822D01*
X1048827Y164822D01*
X1046758Y162753D01*
X1046758Y159827D01*
X1048827Y157758D01*
X1050812Y157758D01*
X1051098Y157702D01*
X1051351Y157535D01*
X1103749Y105137D01*
X1103909Y104901D01*
X1103972Y104605D01*
X1103914Y104307D01*
X1102230Y100242D01*
X1102230Y95758D01*
X1103946Y91616D01*
X1107116Y88446D01*
X1111258Y86730D01*
G37*
G36*
X556860Y144562D02*
X563138Y144562D01*
X563138Y149840D01*
X558348Y149840D01*
X556860Y148352D01*
X556860Y144562D01*
G37*
G36*
X564662Y144562D02*
X570940Y144562D01*
X570940Y148352D01*
X569452Y149840D01*
X564662Y149840D01*
X564662Y144562D01*
G37*
G36*
X558348Y137760D02*
X563138Y137760D01*
X563138Y143038D01*
X556860Y143038D01*
X556860Y139248D01*
X558348Y137760D01*
G37*
%LPD*%
G36*
X133418Y712407D02*
X133122Y712342D01*
X132824Y712397D01*
X132571Y712565D01*
X131786Y713350D01*
X121734Y713350D01*
X120949Y712565D01*
X120718Y712407D01*
X120422Y712342D01*
X120124Y712397D01*
X119871Y712565D01*
X119086Y713350D01*
X109034Y713350D01*
X108249Y712565D01*
X108018Y712407D01*
X107722Y712342D01*
X107424Y712397D01*
X107171Y712565D01*
X106386Y713350D01*
X96334Y713350D01*
X95549Y712565D01*
X95318Y712407D01*
X95022Y712342D01*
X94724Y712397D01*
X94471Y712565D01*
X93686Y713350D01*
X83634Y713350D01*
X82849Y712565D01*
X82618Y712407D01*
X82322Y712342D01*
X82024Y712397D01*
X81771Y712565D01*
X80986Y713350D01*
X70934Y713350D01*
X70149Y712565D01*
X69918Y712407D01*
X69622Y712342D01*
X69324Y712397D01*
X69071Y712565D01*
X68286Y713350D01*
X58234Y713350D01*
X57449Y712565D01*
X57218Y712407D01*
X56922Y712342D01*
X56624Y712397D01*
X56371Y712565D01*
X55586Y713350D01*
X45534Y713350D01*
X44749Y712565D01*
X44518Y712407D01*
X44222Y712342D01*
X43924Y712397D01*
X43671Y712565D01*
X42886Y713350D01*
X42244Y713350D01*
X41980Y713397D01*
X41722Y713556D01*
X41547Y713804D01*
X41482Y714100D01*
X41537Y714398D01*
X41705Y714651D01*
X348615Y1021561D01*
X348615Y1104813D01*
X348666Y1105088D01*
X348830Y1105343D01*
X349080Y1105515D01*
X349377Y1105575D01*
X352113Y1105575D01*
X352857Y1106319D01*
X352857Y1109308D01*
X352913Y1109594D01*
X353081Y1109846D01*
X360159Y1116925D01*
X360378Y1117078D01*
X360673Y1117147D01*
X360972Y1117097D01*
X361228Y1116933D01*
X361399Y1116683D01*
X361460Y1116386D01*
X361460Y1115458D01*
X380540Y1115458D01*
X380540Y1120998D01*
X378982Y1122555D01*
X378824Y1122786D01*
X378759Y1123082D01*
X378815Y1123380D01*
X378982Y1123633D01*
X379270Y1123920D01*
X379270Y1127633D01*
X379321Y1127908D01*
X379484Y1128163D01*
X379734Y1128335D01*
X380032Y1128395D01*
X396968Y1128395D01*
X397242Y1128344D01*
X397498Y1128180D01*
X397669Y1127930D01*
X397730Y1127633D01*
X397730Y1123920D01*
X398017Y1123633D01*
X398175Y1123403D01*
X398240Y1123106D01*
X398184Y1122808D01*
X398017Y1122555D01*
X396460Y1120998D01*
X396460Y1115458D01*
X415540Y1115458D01*
X415540Y1116627D01*
X415587Y1116890D01*
X415746Y1117148D01*
X415993Y1117324D01*
X416289Y1117389D01*
X416588Y1117333D01*
X416840Y1117166D01*
X419691Y1114315D01*
X419853Y1114074D01*
X419914Y1113777D01*
X419914Y1106244D01*
X420658Y1105500D01*
X430710Y1105500D01*
X431454Y1106244D01*
X431454Y1114296D01*
X430710Y1115040D01*
X424670Y1115040D01*
X424384Y1115095D01*
X424131Y1115263D01*
X423465Y1115929D01*
X423312Y1116148D01*
X423242Y1116443D01*
X423293Y1116742D01*
X423457Y1116998D01*
X423707Y1117169D01*
X424004Y1117230D01*
X424922Y1117230D01*
X424922Y1122508D01*
X418629Y1122508D01*
X418597Y1122327D01*
X418437Y1122069D01*
X418190Y1121893D01*
X417894Y1121828D01*
X417596Y1121884D01*
X417343Y1122051D01*
X414493Y1124901D01*
X414330Y1125143D01*
X414270Y1125440D01*
X414270Y1134226D01*
X414321Y1134501D01*
X414484Y1134756D01*
X414734Y1134928D01*
X415032Y1134988D01*
X512168Y1134988D01*
X512442Y1134937D01*
X512698Y1134773D01*
X512869Y1134523D01*
X512930Y1134226D01*
X512930Y1124269D01*
X512874Y1123983D01*
X512706Y1123730D01*
X511267Y1122291D01*
X511047Y1122138D01*
X510752Y1122068D01*
X510453Y1122119D01*
X510198Y1122282D01*
X510026Y1122532D01*
X509966Y1122829D01*
X509966Y1127220D01*
X509222Y1127964D01*
X499170Y1127964D01*
X498426Y1127220D01*
X498426Y1125347D01*
X498375Y1125072D01*
X498211Y1124817D01*
X497961Y1124645D01*
X497664Y1124585D01*
X478386Y1124585D01*
X478100Y1124641D01*
X477847Y1124808D01*
X476443Y1126212D01*
X473517Y1126212D01*
X471448Y1124143D01*
X471448Y1121217D01*
X473517Y1119148D01*
X476443Y1119148D01*
X477847Y1120552D01*
X478088Y1120715D01*
X478386Y1120775D01*
X497664Y1120775D01*
X497938Y1120724D01*
X498194Y1120560D01*
X498365Y1120310D01*
X498426Y1120013D01*
X498426Y1119168D01*
X499170Y1118424D01*
X508101Y1118424D01*
X508364Y1118377D01*
X508622Y1118218D01*
X508797Y1117971D01*
X508863Y1117675D01*
X508807Y1117376D01*
X508639Y1117124D01*
X506703Y1115188D01*
X506462Y1115025D01*
X506165Y1114964D01*
X499170Y1114964D01*
X498426Y1114220D01*
X498426Y1107225D01*
X498370Y1106940D01*
X498203Y1106687D01*
X487114Y1095598D01*
X486873Y1095435D01*
X486575Y1095375D01*
X430365Y1095375D01*
X430079Y1095431D01*
X429826Y1095598D01*
X422429Y1102995D01*
X372591Y1102995D01*
X367665Y1098069D01*
X367665Y1022185D01*
X367609Y1021899D01*
X367442Y1021646D01*
X137795Y791999D01*
X137795Y714112D01*
X137744Y713837D01*
X137580Y713582D01*
X137330Y713410D01*
X137033Y713350D01*
X134434Y713350D01*
X133649Y712565D01*
X133418Y712407D01*
G37*
%LPC*%
G36*
X418644Y1124032D02*
X424922Y1124032D01*
X424922Y1129310D01*
X420132Y1129310D01*
X418644Y1127822D01*
X418644Y1124032D01*
G37*
G36*
X426446Y1124032D02*
X432724Y1124032D01*
X432724Y1127822D01*
X431236Y1129310D01*
X426446Y1129310D01*
X426446Y1124032D01*
G37*
G36*
X426446Y1117230D02*
X431236Y1117230D01*
X432724Y1118718D01*
X432724Y1122508D01*
X426446Y1122508D01*
X426446Y1117230D01*
G37*
G36*
X406762Y1106906D02*
X414052Y1106906D01*
X415540Y1108394D01*
X415540Y1113934D01*
X406762Y1113934D01*
X406762Y1106906D01*
G37*
G36*
X397947Y1106906D02*
X405238Y1106906D01*
X405238Y1113934D01*
X396460Y1113934D01*
X396460Y1108394D01*
X397947Y1106906D01*
G37*
G36*
X362947Y1106906D02*
X370238Y1106906D01*
X370238Y1113934D01*
X361460Y1113934D01*
X361460Y1108394D01*
X362947Y1106906D01*
G37*
G36*
X371762Y1106906D02*
X379052Y1106906D01*
X380540Y1108394D01*
X380540Y1113934D01*
X371762Y1113934D01*
X371762Y1106906D01*
G37*
%LPD*%
G36*
X57218Y537407D02*
X56922Y537342D01*
X56624Y537397D01*
X56371Y537565D01*
X55586Y538350D01*
X47590Y538350D01*
X47304Y538406D01*
X47051Y538573D01*
X-55Y585679D01*
X-218Y585921D01*
X-278Y586218D01*
X-278Y588203D01*
X-2347Y590272D01*
X-5273Y590272D01*
X-5684Y589861D01*
X-5904Y589708D01*
X-6199Y589638D01*
X-6498Y589689D01*
X-6753Y589852D01*
X-6925Y590102D01*
X-6985Y590400D01*
X-6985Y631355D01*
X-6929Y631641D01*
X-6762Y631894D01*
X8255Y646911D01*
X8255Y651029D01*
X-30892Y690176D01*
X-31055Y690418D01*
X-31115Y690715D01*
X-31115Y693778D01*
X-31064Y694053D01*
X-30900Y694308D01*
X-30650Y694480D01*
X-30353Y694540D01*
X-26402Y694540D01*
X-26402Y714620D01*
X-30353Y714620D01*
X-30628Y714671D01*
X-30883Y714835D01*
X-31055Y715085D01*
X-31115Y715382D01*
X-31115Y926748D01*
X-31164Y926972D01*
X-31109Y927270D01*
X-30941Y927523D01*
X-30490Y927974D01*
X-30490Y936026D01*
X-31234Y936770D01*
X-34854Y936770D01*
X-35118Y936817D01*
X-35376Y936976D01*
X-35551Y937224D01*
X-35616Y937520D01*
X-35561Y937818D01*
X-35393Y938071D01*
X-34490Y938974D01*
X-34490Y944595D01*
X-34443Y944859D01*
X-34284Y945117D01*
X-34036Y945292D01*
X-33740Y945357D01*
X-33442Y945302D01*
X-33225Y945158D01*
X-30287Y945158D01*
X-28218Y947227D01*
X-28218Y950153D01*
X-29907Y951842D01*
X-30065Y952072D01*
X-30130Y952368D01*
X-30074Y952666D01*
X-29907Y952919D01*
X3106Y985932D01*
X4445Y987271D01*
X4445Y1037463D01*
X4496Y1037738D01*
X4660Y1037993D01*
X4910Y1038165D01*
X5207Y1038225D01*
X24568Y1038225D01*
X24843Y1038174D01*
X25098Y1038010D01*
X25270Y1037760D01*
X25330Y1037463D01*
X25330Y1034674D01*
X26074Y1033930D01*
X34126Y1033930D01*
X34870Y1034674D01*
X34870Y1044145D01*
X34917Y1044409D01*
X35076Y1044667D01*
X35324Y1044842D01*
X35620Y1044907D01*
X35918Y1044852D01*
X36171Y1044684D01*
X36837Y1044018D01*
X37000Y1043777D01*
X37060Y1043479D01*
X37060Y1040462D01*
X42338Y1040462D01*
X42338Y1046750D01*
X42119Y1046791D01*
X41864Y1046955D01*
X41692Y1047205D01*
X41632Y1047502D01*
X41632Y1049213D01*
X39563Y1051282D01*
X36637Y1051282D01*
X35233Y1049878D01*
X34992Y1049715D01*
X34694Y1049655D01*
X12632Y1049655D01*
X12357Y1049706D01*
X12102Y1049870D01*
X11930Y1050120D01*
X11870Y1050417D01*
X11870Y1052026D01*
X11126Y1052770D01*
X1074Y1052770D01*
X330Y1052026D01*
X330Y1049414D01*
X283Y1049150D01*
X124Y1048892D01*
X-124Y1048717D01*
X-420Y1048652D01*
X-718Y1048707D01*
X-971Y1048875D01*
X-8197Y1056101D01*
X-8355Y1056332D01*
X-8420Y1056628D01*
X-8365Y1056926D01*
X-8197Y1057179D01*
X-2241Y1063135D01*
X-2021Y1063288D01*
X-1726Y1063358D01*
X-1427Y1063307D01*
X-1172Y1063144D01*
X-1000Y1062894D01*
X-940Y1062596D01*
X-940Y1061762D01*
X5338Y1061762D01*
X5338Y1067040D01*
X3504Y1067040D01*
X3240Y1067087D01*
X2982Y1067246D01*
X2807Y1067494D01*
X2742Y1067790D01*
X2797Y1068088D01*
X2965Y1068341D01*
X55176Y1120552D01*
X55418Y1120715D01*
X55715Y1120775D01*
X92860Y1120775D01*
X93124Y1120728D01*
X93382Y1120569D01*
X93557Y1120321D01*
X93622Y1120025D01*
X93567Y1119727D01*
X93399Y1119474D01*
X92988Y1119063D01*
X92988Y1116137D01*
X95057Y1114068D01*
X97042Y1114068D01*
X97328Y1114012D01*
X97581Y1113845D01*
X97607Y1113819D01*
X97770Y1113578D01*
X97830Y1113280D01*
X97830Y1106552D01*
X98574Y1105808D01*
X108626Y1105808D01*
X109370Y1106552D01*
X109370Y1114604D01*
X108626Y1115348D01*
X101782Y1115348D01*
X101496Y1115404D01*
X101243Y1115571D01*
X100275Y1116539D01*
X100112Y1116781D01*
X100052Y1117078D01*
X100052Y1118046D01*
X100103Y1118321D01*
X100267Y1118576D01*
X100517Y1118748D01*
X100814Y1118808D01*
X108626Y1118808D01*
X109100Y1119282D01*
X109341Y1119445D01*
X109639Y1119505D01*
X110497Y1119505D01*
X110772Y1119454D01*
X111028Y1119290D01*
X111199Y1119040D01*
X111259Y1118743D01*
X111259Y1114698D01*
X130339Y1114698D01*
X130339Y1118743D01*
X130391Y1119018D01*
X130554Y1119273D01*
X130804Y1119445D01*
X131101Y1119505D01*
X145497Y1119505D01*
X145772Y1119454D01*
X146028Y1119290D01*
X146199Y1119040D01*
X146259Y1118743D01*
X146259Y1114698D01*
X156561Y1114698D01*
X156561Y1106146D01*
X163852Y1106146D01*
X165200Y1107495D01*
X165442Y1107658D01*
X165739Y1107718D01*
X167833Y1107718D01*
X169237Y1109122D01*
X169478Y1109285D01*
X169776Y1109345D01*
X171358Y1109345D01*
X171633Y1109294D01*
X171888Y1109130D01*
X172060Y1108880D01*
X172120Y1108583D01*
X172120Y1106482D01*
X172864Y1105738D01*
X182916Y1105738D01*
X183660Y1106482D01*
X183660Y1114534D01*
X182916Y1115278D01*
X172864Y1115278D01*
X172120Y1114534D01*
X172120Y1113917D01*
X172069Y1113642D01*
X171905Y1113387D01*
X171655Y1113215D01*
X171358Y1113155D01*
X169776Y1113155D01*
X169490Y1113211D01*
X169237Y1113378D01*
X167833Y1114782D01*
X166101Y1114782D01*
X165827Y1114833D01*
X165571Y1114997D01*
X165400Y1115247D01*
X165339Y1115544D01*
X165339Y1119910D01*
X165395Y1120196D01*
X165563Y1120449D01*
X169549Y1124435D01*
X169769Y1124588D01*
X170064Y1124658D01*
X170363Y1124607D01*
X170618Y1124444D01*
X170738Y1124270D01*
X185182Y1124270D01*
X185384Y1124413D01*
X185680Y1124478D01*
X185978Y1124422D01*
X186231Y1124255D01*
X188441Y1122045D01*
X337693Y1122045D01*
X337968Y1121994D01*
X338223Y1121830D01*
X338395Y1121580D01*
X338455Y1121283D01*
X338455Y1105381D01*
X339502Y1104334D01*
X339665Y1104093D01*
X339725Y1103795D01*
X339725Y1082906D01*
X339669Y1082620D01*
X339502Y1082367D01*
X338098Y1080963D01*
X338098Y1078037D01*
X340167Y1075968D01*
X343093Y1075968D01*
X343504Y1076379D01*
X343724Y1076532D01*
X344019Y1076602D01*
X344318Y1076551D01*
X344573Y1076388D01*
X344745Y1076138D01*
X344805Y1075840D01*
X344805Y1023455D01*
X344749Y1023169D01*
X344582Y1022916D01*
X318523Y996857D01*
X318303Y996704D01*
X318008Y996634D01*
X317709Y996685D01*
X317454Y996848D01*
X317317Y997048D01*
X315153Y999212D01*
X312227Y999212D01*
X310158Y997143D01*
X310158Y995158D01*
X310102Y994872D01*
X309935Y994619D01*
X28889Y713573D01*
X28648Y713410D01*
X28350Y713350D01*
X23194Y713350D01*
X22930Y713397D01*
X22672Y713556D01*
X22497Y713804D01*
X22432Y714100D01*
X22487Y714398D01*
X22655Y714651D01*
X312629Y1004625D01*
X312871Y1004788D01*
X313168Y1004848D01*
X315153Y1004848D01*
X317222Y1006917D01*
X317222Y1009843D01*
X315153Y1011912D01*
X312227Y1011912D01*
X310158Y1009843D01*
X310158Y1007858D01*
X310102Y1007572D01*
X309935Y1007319D01*
X16189Y713573D01*
X15948Y713410D01*
X15650Y713350D01*
X7434Y713350D01*
X6649Y712565D01*
X6418Y712407D01*
X6122Y712342D01*
X5824Y712397D01*
X5571Y712565D01*
X4786Y713350D01*
X-5266Y713350D01*
X-6051Y712565D01*
X-6282Y712407D01*
X-6578Y712342D01*
X-6876Y712397D01*
X-7129Y712565D01*
X-7914Y713350D01*
X-14380Y713350D01*
X-14666Y713406D01*
X-14919Y713573D01*
X-16565Y715219D01*
X-16728Y715461D01*
X-16788Y715758D01*
X-16788Y717743D01*
X-18857Y719812D01*
X-21783Y719812D01*
X-23852Y717743D01*
X-23852Y715382D01*
X-23903Y715107D01*
X-24067Y714852D01*
X-24317Y714680D01*
X-24614Y714620D01*
X-24878Y714620D01*
X-24878Y694540D01*
X-20088Y694540D01*
X-18931Y695697D01*
X-18700Y695855D01*
X-18404Y695920D01*
X-18106Y695865D01*
X-18024Y695810D01*
X-15367Y695810D01*
X-15092Y695759D01*
X-14837Y695595D01*
X-14665Y695345D01*
X-14605Y695048D01*
X-14605Y676121D01*
X-3329Y664845D01*
X1435Y664845D01*
X1721Y664789D01*
X1974Y664622D01*
X44225Y622371D01*
X44378Y622151D01*
X44448Y621856D01*
X44397Y621557D01*
X44329Y621451D01*
X44822Y621451D01*
X44822Y615292D01*
X50981Y615292D01*
X50981Y614802D01*
X51054Y614853D01*
X51350Y614918D01*
X51648Y614863D01*
X51901Y614695D01*
X72445Y594151D01*
X72608Y593910D01*
X72668Y593612D01*
X72668Y591627D01*
X74737Y589558D01*
X77663Y589558D01*
X79732Y591627D01*
X79732Y593612D01*
X79788Y593898D01*
X79955Y594151D01*
X116136Y630332D01*
X116378Y630495D01*
X116675Y630555D01*
X148740Y630555D01*
X149004Y630508D01*
X149262Y630349D01*
X149437Y630101D01*
X149502Y629805D01*
X149447Y629507D01*
X149279Y629254D01*
X148868Y628843D01*
X148868Y626858D01*
X148812Y626572D01*
X148645Y626319D01*
X61595Y539269D01*
X61595Y539112D01*
X61544Y538837D01*
X61380Y538582D01*
X61130Y538410D01*
X60833Y538350D01*
X58234Y538350D01*
X57449Y537565D01*
X57218Y537407D01*
G37*
%LPC*%
G36*
X178652Y1117468D02*
X183442Y1117468D01*
X184930Y1118955D01*
X184930Y1122746D01*
X178652Y1122746D01*
X178652Y1117468D01*
G37*
G36*
X172338Y1117468D02*
X177128Y1117468D01*
X177128Y1122746D01*
X170850Y1122746D01*
X170850Y1118955D01*
X172338Y1117468D01*
G37*
G36*
X112747Y1106146D02*
X120037Y1106146D01*
X120037Y1113174D01*
X111259Y1113174D01*
X111259Y1107634D01*
X112747Y1106146D01*
G37*
G36*
X147747Y1106146D02*
X155037Y1106146D01*
X155037Y1113174D01*
X146259Y1113174D01*
X146259Y1107634D01*
X147747Y1106146D01*
G37*
G36*
X121561Y1106146D02*
X128852Y1106146D01*
X130339Y1107634D01*
X130339Y1113174D01*
X121561Y1113174D01*
X121561Y1106146D01*
G37*
G36*
X6862Y1061762D02*
X13140Y1061762D01*
X13140Y1065552D01*
X11652Y1067040D01*
X6862Y1067040D01*
X6862Y1061762D01*
G37*
G36*
X6862Y1054960D02*
X11652Y1054960D01*
X13140Y1056448D01*
X13140Y1060238D01*
X6862Y1060238D01*
X6862Y1054960D01*
G37*
G36*
X548Y1054960D02*
X5338Y1054960D01*
X5338Y1060238D01*
X-940Y1060238D01*
X-940Y1056448D01*
X548Y1054960D01*
G37*
G36*
X43862Y1040462D02*
X49140Y1040462D01*
X49140Y1045252D01*
X47652Y1046740D01*
X43862Y1046740D01*
X43862Y1040462D01*
G37*
G36*
X38548Y1032660D02*
X42338Y1032660D01*
X42338Y1038938D01*
X37060Y1038938D01*
X37060Y1034148D01*
X38548Y1032660D01*
G37*
G36*
X43862Y1032660D02*
X47652Y1032660D01*
X49140Y1034148D01*
X49140Y1038938D01*
X43862Y1038938D01*
X43862Y1032660D01*
G37*
G36*
X54214Y978230D02*
X67266Y978230D01*
X68010Y978974D01*
X68010Y998026D01*
X67266Y998770D01*
X54214Y998770D01*
X53470Y998026D01*
X53470Y978974D01*
X54214Y978230D01*
G37*
G36*
X61502Y960762D02*
X69280Y960762D01*
X69280Y970052D01*
X67792Y971540D01*
X61502Y971540D01*
X61502Y960762D01*
G37*
G36*
X52200Y960762D02*
X59978Y960762D01*
X59978Y971540D01*
X53688Y971540D01*
X52200Y970052D01*
X52200Y960762D01*
G37*
G36*
X53688Y948460D02*
X59978Y948460D01*
X59978Y959238D01*
X52200Y959238D01*
X52200Y949948D01*
X53688Y948460D01*
G37*
G36*
X61502Y948460D02*
X67792Y948460D01*
X69280Y949948D01*
X69280Y959238D01*
X61502Y959238D01*
X61502Y948460D01*
G37*
G36*
X54214Y921230D02*
X67266Y921230D01*
X68010Y921974D01*
X68010Y941026D01*
X67266Y941770D01*
X54214Y941770D01*
X53470Y941026D01*
X53470Y921974D01*
X54214Y921230D01*
G37*
G36*
X52200Y903762D02*
X59978Y903762D01*
X59978Y914540D01*
X53688Y914540D01*
X52200Y913052D01*
X52200Y903762D01*
G37*
G36*
X61502Y903762D02*
X69280Y903762D01*
X69280Y913052D01*
X67792Y914540D01*
X61502Y914540D01*
X61502Y903762D01*
G37*
G36*
X53688Y891460D02*
X59978Y891460D01*
X59978Y902238D01*
X52200Y902238D01*
X52200Y892948D01*
X53688Y891460D01*
G37*
G36*
X61502Y891460D02*
X67792Y891460D01*
X69280Y892948D01*
X69280Y902238D01*
X61502Y902238D01*
X61502Y891460D01*
G37*
G36*
X19822Y582990D02*
X24112Y582990D01*
X24771Y583649D01*
X25002Y583807D01*
X25298Y583872D01*
X25596Y583817D01*
X25849Y583649D01*
X26508Y582990D01*
X30798Y582990D01*
X30798Y590292D01*
X32322Y590292D01*
X32322Y582990D01*
X36612Y582990D01*
X37271Y583649D01*
X37502Y583807D01*
X37798Y583872D01*
X38096Y583817D01*
X38349Y583649D01*
X39008Y582990D01*
X43298Y582990D01*
X43298Y590292D01*
X50600Y590292D01*
X50600Y594582D01*
X49941Y595241D01*
X49783Y595472D01*
X49718Y595768D01*
X49773Y596066D01*
X49941Y596319D01*
X50600Y596978D01*
X50600Y601268D01*
X43298Y601268D01*
X43298Y602792D01*
X50600Y602792D01*
X50600Y607082D01*
X49941Y607741D01*
X49783Y607972D01*
X49718Y608268D01*
X49773Y608566D01*
X49941Y608819D01*
X50600Y609478D01*
X50600Y613768D01*
X43298Y613768D01*
X43298Y621070D01*
X39008Y621070D01*
X38349Y620411D01*
X38118Y620253D01*
X37822Y620188D01*
X37524Y620243D01*
X37271Y620411D01*
X36612Y621070D01*
X32322Y621070D01*
X32322Y613768D01*
X30798Y613768D01*
X30798Y621070D01*
X26508Y621070D01*
X25849Y620411D01*
X25618Y620253D01*
X25322Y620188D01*
X25024Y620243D01*
X24771Y620411D01*
X24112Y621070D01*
X19822Y621070D01*
X19822Y613768D01*
X12520Y613768D01*
X12520Y609478D01*
X13179Y608819D01*
X13337Y608588D01*
X13402Y608292D01*
X13347Y607994D01*
X13179Y607741D01*
X12520Y607082D01*
X12520Y602792D01*
X19822Y602792D01*
X19822Y601268D01*
X12520Y601268D01*
X12520Y596978D01*
X13179Y596319D01*
X13337Y596088D01*
X13402Y595792D01*
X13347Y595494D01*
X13179Y595241D01*
X12520Y594582D01*
X12520Y590292D01*
X19822Y590292D01*
X19822Y582990D01*
G37*
G36*
X12520Y615292D02*
X18298Y615292D01*
X18298Y621070D01*
X14008Y621070D01*
X12520Y619582D01*
X12520Y615292D01*
G37*
G36*
X44822Y582990D02*
X49112Y582990D01*
X50600Y584478D01*
X50600Y588768D01*
X44822Y588768D01*
X44822Y582990D01*
G37*
G36*
X14008Y582990D02*
X18298Y582990D01*
X18298Y588768D01*
X12520Y588768D01*
X12520Y584478D01*
X14008Y582990D01*
G37*
%LPD*%
G36*
X1328629Y573465D02*
X1328331Y573405D01*
X1279374Y573405D01*
X1279099Y573456D01*
X1278844Y573620D01*
X1278672Y573870D01*
X1278612Y574167D01*
X1278612Y574233D01*
X1276543Y576302D01*
X1274294Y576302D01*
X1274019Y576353D01*
X1273764Y576517D01*
X1273592Y576767D01*
X1273532Y577064D01*
X1273532Y578043D01*
X1273146Y578429D01*
X1272993Y578649D01*
X1272923Y578944D01*
X1272974Y579243D01*
X1273137Y579498D01*
X1273387Y579670D01*
X1273685Y579730D01*
X1274326Y579730D01*
X1275070Y580474D01*
X1275070Y586265D01*
X1275117Y586529D01*
X1275276Y586787D01*
X1275524Y586962D01*
X1275820Y587027D01*
X1275870Y587018D01*
X1279083Y587018D01*
X1281152Y589087D01*
X1281152Y592013D01*
X1279748Y593417D01*
X1279585Y593658D01*
X1279525Y593956D01*
X1279525Y600868D01*
X1279576Y601143D01*
X1279740Y601398D01*
X1279990Y601570D01*
X1280287Y601630D01*
X1281826Y601630D01*
X1282570Y602374D01*
X1282570Y610426D01*
X1281826Y611170D01*
X1273564Y611170D01*
X1273300Y611217D01*
X1273042Y611376D01*
X1272867Y611624D01*
X1272802Y611920D01*
X1272857Y612218D01*
X1273025Y612471D01*
X1274961Y614407D01*
X1275203Y614570D01*
X1275500Y614630D01*
X1281826Y614630D01*
X1282570Y615374D01*
X1282570Y623426D01*
X1281826Y624170D01*
X1271774Y624170D01*
X1271030Y623426D01*
X1271030Y616180D01*
X1270974Y615894D01*
X1270807Y615641D01*
X1268095Y612929D01*
X1268095Y592032D01*
X1268044Y591757D01*
X1267880Y591502D01*
X1267630Y591330D01*
X1267333Y591270D01*
X1265274Y591270D01*
X1264530Y590526D01*
X1264530Y580234D01*
X1264483Y579970D01*
X1264324Y579712D01*
X1264076Y579537D01*
X1263780Y579472D01*
X1263482Y579527D01*
X1263229Y579695D01*
X1263169Y579755D01*
X1231735Y579755D01*
X1231449Y579811D01*
X1231196Y579978D01*
X1222895Y588279D01*
X1222742Y588499D01*
X1222672Y588794D01*
X1222723Y589093D01*
X1222886Y589348D01*
X1223137Y589520D01*
X1223434Y589580D01*
X1233027Y589580D01*
X1233771Y590324D01*
X1233771Y596876D01*
X1233734Y596913D01*
X1233576Y597144D01*
X1233511Y597440D01*
X1233566Y597738D01*
X1233734Y597991D01*
X1235041Y599298D01*
X1235041Y602338D01*
X1225739Y602338D01*
X1225739Y603862D01*
X1235041Y603862D01*
X1235041Y606902D01*
X1233734Y608209D01*
X1233576Y608440D01*
X1233511Y608736D01*
X1233566Y609034D01*
X1233734Y609287D01*
X1233771Y609324D01*
X1233771Y615876D01*
X1233414Y616233D01*
X1233256Y616463D01*
X1233191Y616759D01*
X1233247Y617057D01*
X1233414Y617310D01*
X1243896Y627792D01*
X1244138Y627955D01*
X1244435Y628015D01*
X1298218Y628015D01*
X1298493Y627964D01*
X1298748Y627800D01*
X1298920Y627550D01*
X1298980Y627253D01*
X1298980Y624590D01*
X1298924Y624304D01*
X1298757Y624051D01*
X1297710Y623004D01*
X1297710Y621562D01*
X1304812Y621562D01*
X1304812Y620038D01*
X1297710Y620038D01*
X1297710Y618596D01*
X1298532Y617774D01*
X1298690Y617543D01*
X1298755Y617247D01*
X1298699Y616949D01*
X1298532Y616696D01*
X1296035Y614199D01*
X1296035Y607541D01*
X1328870Y574706D01*
X1329023Y574486D01*
X1329093Y574191D01*
X1329042Y573892D01*
X1328879Y573637D01*
X1328629Y573465D01*
G37*
G36*
X771693Y164854D02*
X771398Y164784D01*
X771099Y164835D01*
X770844Y164998D01*
X770707Y165198D01*
X768543Y167362D01*
X766558Y167362D01*
X766272Y167418D01*
X766019Y167585D01*
X764447Y169157D01*
X764294Y169377D01*
X764224Y169672D01*
X764275Y169971D01*
X764438Y170226D01*
X764638Y170363D01*
X766802Y172527D01*
X766802Y175453D01*
X764733Y177522D01*
X762748Y177522D01*
X762462Y177578D01*
X762209Y177745D01*
X759048Y180906D01*
X758885Y181148D01*
X758825Y181445D01*
X758825Y184898D01*
X758876Y185173D01*
X759040Y185428D01*
X759290Y185600D01*
X759587Y185660D01*
X760938Y185660D01*
X760938Y198740D01*
X759148Y198740D01*
X758101Y197693D01*
X757860Y197530D01*
X757562Y197470D01*
X754644Y197470D01*
X754508Y197377D01*
X754212Y197312D01*
X753914Y197367D01*
X753759Y197470D01*
X750405Y197470D01*
X750141Y197517D01*
X749883Y197676D01*
X749708Y197924D01*
X749643Y198220D01*
X749698Y198518D01*
X749866Y198771D01*
X750292Y199197D01*
X750292Y202123D01*
X748223Y204192D01*
X745297Y204192D01*
X743228Y202123D01*
X743228Y200138D01*
X743172Y199852D01*
X743005Y199599D01*
X742219Y198813D01*
X741988Y198655D01*
X741692Y198590D01*
X741394Y198645D01*
X741141Y198813D01*
X737389Y202565D01*
X734926Y202565D01*
X734640Y202621D01*
X734387Y202788D01*
X732983Y204192D01*
X730057Y204192D01*
X727882Y202017D01*
X727782Y201854D01*
X727534Y201679D01*
X727238Y201614D01*
X726940Y201669D01*
X726687Y201837D01*
X725115Y203409D01*
X724952Y203651D01*
X724892Y203948D01*
X724892Y205933D01*
X722823Y208002D01*
X719897Y208002D01*
X717828Y205933D01*
X717828Y203007D01*
X719897Y200938D01*
X721882Y200938D01*
X722168Y200882D01*
X722421Y200715D01*
X724312Y198824D01*
X724475Y198583D01*
X724535Y198285D01*
X724535Y198232D01*
X724484Y197957D01*
X724320Y197702D01*
X724070Y197530D01*
X723773Y197470D01*
X720838Y197470D01*
X720552Y197526D01*
X720299Y197693D01*
X719252Y198740D01*
X717462Y198740D01*
X717462Y185531D01*
X717596Y185445D01*
X717768Y185195D01*
X717828Y184898D01*
X717828Y182687D01*
X719897Y180618D01*
X722823Y180618D01*
X724892Y182687D01*
X724892Y185613D01*
X724876Y185629D01*
X724723Y185849D01*
X724653Y186144D01*
X724704Y186443D01*
X724867Y186698D01*
X725117Y186870D01*
X725415Y186930D01*
X728853Y186930D01*
X729128Y186879D01*
X729383Y186715D01*
X729555Y186465D01*
X729615Y186168D01*
X729615Y185016D01*
X729559Y184730D01*
X729392Y184477D01*
X727988Y183073D01*
X727988Y180147D01*
X728399Y179736D01*
X728552Y179516D01*
X728622Y179221D01*
X728571Y178922D01*
X728408Y178667D01*
X728158Y178495D01*
X727860Y178435D01*
X693016Y178435D01*
X692730Y178491D01*
X692477Y178658D01*
X691073Y180062D01*
X688147Y180062D01*
X686078Y177993D01*
X686078Y176976D01*
X686031Y176712D01*
X685872Y176454D01*
X685624Y176279D01*
X685328Y176214D01*
X685030Y176269D01*
X684777Y176437D01*
X671349Y189865D01*
X552300Y189865D01*
X552036Y189912D01*
X551778Y190071D01*
X551603Y190319D01*
X551538Y190615D01*
X551593Y190913D01*
X551761Y191166D01*
X552172Y191577D01*
X552172Y194503D01*
X550768Y195907D01*
X550605Y196148D01*
X550545Y196446D01*
X550545Y201018D01*
X550596Y201293D01*
X550760Y201548D01*
X551010Y201720D01*
X551307Y201780D01*
X552126Y201780D01*
X552870Y202524D01*
X552870Y207136D01*
X552917Y207400D01*
X553076Y207658D01*
X553324Y207833D01*
X553620Y207898D01*
X553918Y207843D01*
X554171Y207675D01*
X566901Y194945D01*
X578639Y194945D01*
X581301Y197607D01*
X581543Y197770D01*
X581840Y197830D01*
X589126Y197830D01*
X589870Y198574D01*
X589870Y208626D01*
X589126Y209370D01*
X581074Y209370D01*
X580330Y208626D01*
X580330Y202340D01*
X580274Y202054D01*
X580107Y201801D01*
X579441Y201135D01*
X579221Y200982D01*
X578926Y200912D01*
X578627Y200963D01*
X578372Y201126D01*
X578200Y201377D01*
X578140Y201674D01*
X578140Y202838D01*
X566029Y202838D01*
X566013Y202750D01*
X565854Y202492D01*
X565606Y202317D01*
X565310Y202252D01*
X565012Y202307D01*
X564759Y202475D01*
X555848Y211386D01*
X555685Y211628D01*
X555625Y211925D01*
X555625Y215419D01*
X553239Y217805D01*
X542771Y217805D01*
X539995Y215029D01*
X539765Y214871D01*
X539469Y214806D01*
X539393Y214820D01*
X533074Y214820D01*
X532330Y214076D01*
X532330Y202524D01*
X533110Y201744D01*
X533191Y201729D01*
X533446Y201565D01*
X533618Y201315D01*
X533678Y201018D01*
X533678Y197927D01*
X535747Y195858D01*
X538673Y195858D01*
X540742Y197927D01*
X540742Y200853D01*
X540009Y201586D01*
X539851Y201816D01*
X539786Y202112D01*
X539842Y202410D01*
X539870Y202453D01*
X539870Y209200D01*
X539926Y209486D01*
X540093Y209739D01*
X544029Y213675D01*
X544249Y213828D01*
X544544Y213898D01*
X544843Y213847D01*
X545098Y213684D01*
X545270Y213434D01*
X545330Y213136D01*
X545330Y202524D01*
X546097Y201757D01*
X546248Y201729D01*
X546503Y201565D01*
X546675Y201315D01*
X546735Y201018D01*
X546735Y196446D01*
X546679Y196160D01*
X546512Y195907D01*
X545108Y194503D01*
X545108Y191577D01*
X545519Y191166D01*
X545672Y190946D01*
X545742Y190651D01*
X545691Y190352D01*
X545528Y190097D01*
X545278Y189925D01*
X544980Y189865D01*
X317350Y189865D01*
X317086Y189912D01*
X316828Y190071D01*
X316653Y190319D01*
X316588Y190615D01*
X316643Y190913D01*
X316811Y191166D01*
X317222Y191577D01*
X317222Y194503D01*
X315153Y196572D01*
X313168Y196572D01*
X312882Y196628D01*
X312629Y196795D01*
X102777Y406647D01*
X102624Y406867D01*
X102554Y407162D01*
X102605Y407461D01*
X102768Y407716D01*
X102968Y407853D01*
X104467Y409352D01*
X104708Y409515D01*
X105006Y409575D01*
X190665Y409575D01*
X190951Y409519D01*
X191204Y409352D01*
X335761Y264795D01*
X565554Y264795D01*
X565840Y264739D01*
X566093Y264572D01*
X567497Y263168D01*
X569784Y263168D01*
X570048Y263121D01*
X570306Y262962D01*
X570481Y262714D01*
X570546Y262418D01*
X570491Y262120D01*
X570323Y261867D01*
X544499Y236043D01*
X544258Y235880D01*
X543960Y235820D01*
X539574Y235820D01*
X538830Y235076D01*
X538830Y223524D01*
X539574Y222780D01*
X545626Y222780D01*
X546370Y223524D01*
X546370Y232210D01*
X546426Y232496D01*
X546593Y232749D01*
X564414Y250570D01*
X564629Y250721D01*
X564923Y250793D01*
X565223Y250744D01*
X565329Y250677D01*
X565328Y250810D01*
X571987Y250856D01*
X571950Y256134D01*
X571822Y256133D01*
X571554Y256180D01*
X571296Y256340D01*
X571120Y256587D01*
X571055Y256883D01*
X571111Y257181D01*
X571278Y257434D01*
X626159Y312315D01*
X626379Y312468D01*
X626674Y312538D01*
X626973Y312487D01*
X627228Y312324D01*
X627400Y312074D01*
X627460Y311776D01*
X627460Y309662D01*
X633738Y309662D01*
X633738Y314940D01*
X630624Y314940D01*
X630360Y314987D01*
X630102Y315146D01*
X629927Y315394D01*
X629862Y315690D01*
X629917Y315988D01*
X630085Y316241D01*
X631399Y317555D01*
X631641Y317718D01*
X631938Y317778D01*
X633923Y317778D01*
X635992Y319847D01*
X635992Y322773D01*
X633923Y324842D01*
X630997Y324842D01*
X628928Y322773D01*
X628928Y320788D01*
X628872Y320502D01*
X628705Y320249D01*
X573793Y265337D01*
X573573Y265184D01*
X573278Y265114D01*
X572979Y265165D01*
X572724Y265328D01*
X572552Y265579D01*
X572492Y265876D01*
X572492Y268163D01*
X570423Y270232D01*
X567497Y270232D01*
X566093Y268828D01*
X565852Y268665D01*
X565554Y268605D01*
X337655Y268605D01*
X337369Y268661D01*
X337116Y268828D01*
X199297Y406647D01*
X199144Y406867D01*
X199074Y407162D01*
X199125Y407461D01*
X199288Y407716D01*
X199488Y407853D01*
X200987Y409352D01*
X201228Y409515D01*
X201526Y409575D01*
X245468Y409575D01*
X245743Y409524D01*
X245998Y409360D01*
X246170Y409110D01*
X246230Y408813D01*
X246230Y405424D01*
X247163Y404491D01*
X247316Y404271D01*
X247386Y403976D01*
X247335Y403677D01*
X247172Y403422D01*
X246922Y403250D01*
X246624Y403190D01*
X246448Y403190D01*
X244960Y401702D01*
X244960Y396562D01*
X252962Y396562D01*
X252962Y388410D01*
X256413Y388410D01*
X256688Y388359D01*
X256943Y388195D01*
X257115Y387945D01*
X257175Y387648D01*
X257175Y382332D01*
X257124Y382057D01*
X256960Y381802D01*
X256710Y381630D01*
X256413Y381570D01*
X250074Y381570D01*
X249330Y380826D01*
X249330Y372774D01*
X250074Y372030D01*
X258276Y372030D01*
X258540Y371983D01*
X258798Y371824D01*
X258973Y371576D01*
X259038Y371280D01*
X258983Y370982D01*
X258815Y370729D01*
X256879Y368793D01*
X256638Y368630D01*
X256340Y368570D01*
X250074Y368570D01*
X249330Y367826D01*
X249330Y359774D01*
X250074Y359030D01*
X260126Y359030D01*
X260870Y359774D01*
X260870Y366546D01*
X260921Y366821D01*
X261085Y367076D01*
X261335Y367248D01*
X261632Y367308D01*
X262398Y367308D01*
X262673Y367257D01*
X262928Y367093D01*
X263100Y366843D01*
X263160Y366546D01*
X263160Y364462D01*
X269438Y364462D01*
X269438Y369740D01*
X267184Y369740D01*
X266909Y369791D01*
X266654Y369955D01*
X266482Y370205D01*
X266422Y370502D01*
X266422Y371168D01*
X266473Y371443D01*
X266637Y371698D01*
X266887Y371870D01*
X267184Y371930D01*
X272760Y371930D01*
X273046Y371874D01*
X273299Y371707D01*
X273965Y371041D01*
X274118Y370821D01*
X274188Y370526D01*
X274137Y370227D01*
X273974Y369972D01*
X273724Y369800D01*
X273426Y369740D01*
X270962Y369740D01*
X270962Y357660D01*
X275752Y357660D01*
X277299Y359207D01*
X277446Y359446D01*
X277694Y359621D01*
X277990Y359686D01*
X278288Y359631D01*
X278541Y359463D01*
X279274Y358730D01*
X289326Y358730D01*
X290070Y359474D01*
X290070Y367526D01*
X289326Y368270D01*
X282440Y368270D01*
X282154Y368326D01*
X281901Y368493D01*
X281235Y369159D01*
X281082Y369379D01*
X281012Y369674D01*
X281063Y369973D01*
X281226Y370228D01*
X281477Y370400D01*
X281774Y370460D01*
X283538Y370460D01*
X283538Y382540D01*
X278748Y382540D01*
X277201Y380994D01*
X277054Y380754D01*
X276806Y380579D01*
X276510Y380514D01*
X276212Y380569D01*
X275959Y380737D01*
X275226Y381470D01*
X265174Y381470D01*
X264430Y380726D01*
X264430Y379857D01*
X264379Y379582D01*
X264215Y379327D01*
X263965Y379155D01*
X263668Y379095D01*
X261747Y379095D01*
X261472Y379146D01*
X261217Y379310D01*
X261045Y379560D01*
X260985Y379857D01*
X260985Y387648D01*
X261036Y387923D01*
X261200Y388178D01*
X261450Y388350D01*
X261747Y388410D01*
X267038Y388410D01*
X267038Y396562D01*
X268562Y396562D01*
X268562Y388410D01*
X273552Y388410D01*
X275011Y389869D01*
X275242Y390027D01*
X275538Y390092D01*
X275836Y390037D01*
X276089Y389869D01*
X277748Y388210D01*
X282738Y388210D01*
X282738Y396362D01*
X290740Y396362D01*
X290740Y401502D01*
X289252Y402990D01*
X289076Y402990D01*
X288812Y403037D01*
X288554Y403196D01*
X288379Y403444D01*
X288314Y403740D01*
X288369Y404038D01*
X288537Y404291D01*
X289470Y405224D01*
X289470Y415976D01*
X288726Y416720D01*
X287504Y416720D01*
X287229Y416771D01*
X286974Y416935D01*
X286802Y417185D01*
X286742Y417482D01*
X286742Y420563D01*
X284673Y422632D01*
X282688Y422632D01*
X282402Y422688D01*
X282149Y422855D01*
X232355Y472649D01*
X232192Y472891D01*
X232132Y473188D01*
X232132Y475173D01*
X230063Y477242D01*
X227137Y477242D01*
X226726Y476831D01*
X226506Y476678D01*
X226211Y476608D01*
X225912Y476659D01*
X225657Y476822D01*
X225485Y477072D01*
X225425Y477370D01*
X225425Y513868D01*
X225476Y514143D01*
X225640Y514398D01*
X225890Y514570D01*
X226187Y514630D01*
X235326Y514630D01*
X236070Y515374D01*
X236070Y523494D01*
X236061Y523508D01*
X235996Y523804D01*
X236051Y524102D01*
X236219Y524355D01*
X237059Y525195D01*
X237279Y525348D01*
X237574Y525418D01*
X237873Y525367D01*
X238128Y525204D01*
X238300Y524954D01*
X238360Y524656D01*
X238360Y519962D01*
X252840Y519962D01*
X252840Y525102D01*
X251352Y526590D01*
X251176Y526590D01*
X250912Y526637D01*
X250654Y526796D01*
X250479Y527044D01*
X250414Y527340D01*
X250469Y527638D01*
X250637Y527891D01*
X251570Y528824D01*
X251570Y539576D01*
X250826Y540320D01*
X248705Y540320D01*
X248441Y540367D01*
X248183Y540526D01*
X248008Y540774D01*
X247943Y541070D01*
X247998Y541368D01*
X248166Y541621D01*
X248642Y542097D01*
X248642Y545023D01*
X246573Y547092D01*
X243647Y547092D01*
X241966Y545411D01*
X241746Y545258D01*
X241451Y545188D01*
X241152Y545239D01*
X240897Y545402D01*
X240725Y545652D01*
X240665Y545950D01*
X240665Y549044D01*
X240721Y549330D01*
X240888Y549583D01*
X242292Y550987D01*
X242292Y553913D01*
X240223Y555982D01*
X237297Y555982D01*
X235228Y553913D01*
X235228Y550987D01*
X236632Y549583D01*
X236795Y549342D01*
X236855Y549044D01*
X236855Y537481D01*
X236808Y537217D01*
X236649Y536959D01*
X236401Y536784D01*
X236105Y536719D01*
X235807Y536774D01*
X235554Y536942D01*
X235326Y537170D01*
X232537Y537170D01*
X232262Y537221D01*
X232007Y537385D01*
X231835Y537635D01*
X231775Y537932D01*
X231775Y573298D01*
X231826Y573573D01*
X231990Y573828D01*
X232240Y574000D01*
X232537Y574060D01*
X235658Y574060D01*
X235658Y579862D01*
X244040Y579862D01*
X244040Y582286D01*
X242767Y583559D01*
X242609Y583790D01*
X242544Y584086D01*
X242599Y584384D01*
X242767Y584637D01*
X242770Y584640D01*
X242770Y587740D01*
X242826Y588026D01*
X242993Y588279D01*
X245745Y591031D01*
X245745Y592963D01*
X245796Y593238D01*
X245960Y593493D01*
X246210Y593665D01*
X246507Y593725D01*
X258468Y593725D01*
X258743Y593674D01*
X258998Y593510D01*
X259170Y593260D01*
X259230Y592963D01*
X259230Y592640D01*
X260031Y591839D01*
X260189Y591608D01*
X260254Y591312D01*
X260199Y591014D01*
X260031Y590761D01*
X259230Y589960D01*
X259230Y584640D01*
X260031Y583839D01*
X260189Y583608D01*
X260254Y583312D01*
X260199Y583014D01*
X260031Y582761D01*
X259230Y581960D01*
X259230Y577064D01*
X259179Y576789D01*
X259015Y576534D01*
X258765Y576362D01*
X258468Y576302D01*
X257617Y576302D01*
X255548Y574233D01*
X255548Y571307D01*
X257617Y569238D01*
X260543Y569238D01*
X262612Y571307D01*
X262612Y573292D01*
X262668Y573578D01*
X262835Y573831D01*
X264311Y575307D01*
X264553Y575470D01*
X264850Y575530D01*
X270820Y575530D01*
X271930Y576640D01*
X271930Y577366D01*
X271981Y577641D01*
X272145Y577896D01*
X272395Y578068D01*
X272692Y578128D01*
X275783Y578128D01*
X277852Y580197D01*
X277852Y583123D01*
X275783Y585192D01*
X273798Y585192D01*
X273512Y585248D01*
X273259Y585415D01*
X272153Y586521D01*
X271990Y586763D01*
X271930Y587060D01*
X271930Y589960D01*
X271129Y590761D01*
X270971Y590992D01*
X270906Y591288D01*
X270961Y591586D01*
X271129Y591839D01*
X271930Y592640D01*
X271930Y598004D01*
X271869Y598094D01*
X271804Y598390D01*
X271859Y598688D01*
X272027Y598941D01*
X273200Y600114D01*
X273200Y602538D01*
X257960Y602538D01*
X257960Y600114D01*
X259133Y598941D01*
X259291Y598710D01*
X259356Y598414D01*
X259301Y598116D01*
X259133Y597863D01*
X259028Y597758D01*
X258787Y597595D01*
X258489Y597535D01*
X246507Y597535D01*
X246232Y597586D01*
X245977Y597750D01*
X245805Y598000D01*
X245745Y598297D01*
X245745Y598959D01*
X242993Y601711D01*
X242830Y601953D01*
X242770Y602250D01*
X242770Y605960D01*
X241660Y607070D01*
X231180Y607070D01*
X230070Y605960D01*
X230070Y605917D01*
X230019Y605642D01*
X229855Y605387D01*
X229605Y605215D01*
X229308Y605155D01*
X221461Y605155D01*
X218979Y602673D01*
X218748Y602515D01*
X218452Y602450D01*
X218154Y602505D01*
X217901Y602673D01*
X197670Y622904D01*
X197517Y623124D01*
X197447Y623419D01*
X197498Y623718D01*
X197661Y623973D01*
X197912Y624145D01*
X198209Y624205D01*
X279550Y624205D01*
X279814Y624158D01*
X280072Y623999D01*
X280247Y623751D01*
X280312Y623455D01*
X280257Y623157D01*
X280089Y622904D01*
X279678Y622493D01*
X279678Y619567D01*
X281747Y617498D01*
X283732Y617498D01*
X284018Y617442D01*
X284271Y617275D01*
X537265Y364281D01*
X537428Y364040D01*
X537488Y363742D01*
X537488Y361757D01*
X539557Y359688D01*
X542483Y359688D01*
X544552Y361757D01*
X544552Y364683D01*
X542483Y366752D01*
X540498Y366752D01*
X540212Y366808D01*
X539959Y366975D01*
X393250Y513684D01*
X393097Y513904D01*
X393027Y514199D01*
X393078Y514498D01*
X393241Y514753D01*
X393492Y514925D01*
X393789Y514985D01*
X733194Y514985D01*
X733480Y514929D01*
X733733Y514762D01*
X735137Y513358D01*
X738063Y513358D01*
X740132Y515427D01*
X740132Y518353D01*
X738063Y520422D01*
X735137Y520422D01*
X733733Y519018D01*
X733492Y518855D01*
X733194Y518795D01*
X394805Y518795D01*
X394519Y518851D01*
X394266Y519018D01*
X287840Y625444D01*
X287687Y625664D01*
X287617Y625959D01*
X287668Y626258D01*
X287831Y626513D01*
X288082Y626685D01*
X288379Y626745D01*
X458635Y626745D01*
X458921Y626689D01*
X459174Y626522D01*
X524991Y560705D01*
X617624Y560705D01*
X617910Y560649D01*
X618163Y560482D01*
X619567Y559078D01*
X622493Y559078D01*
X624668Y561253D01*
X624768Y561416D01*
X625016Y561591D01*
X625312Y561656D01*
X625610Y561601D01*
X625863Y561433D01*
X631640Y555656D01*
X631793Y555436D01*
X631863Y555141D01*
X631812Y554842D01*
X631649Y554587D01*
X631399Y554415D01*
X631101Y554355D01*
X541886Y554355D01*
X541600Y554411D01*
X541347Y554578D01*
X539943Y555982D01*
X537017Y555982D01*
X534948Y553913D01*
X534948Y550987D01*
X537017Y548918D01*
X539943Y548918D01*
X541347Y550322D01*
X541588Y550485D01*
X541886Y550545D01*
X700268Y550545D01*
X700543Y550494D01*
X700798Y550330D01*
X700970Y550080D01*
X701030Y549783D01*
X701030Y528806D01*
X702206Y527630D01*
X708294Y527630D01*
X709470Y528806D01*
X709470Y549783D01*
X709521Y550058D01*
X709685Y550313D01*
X709935Y550485D01*
X710232Y550545D01*
X712968Y550545D01*
X713243Y550494D01*
X713498Y550330D01*
X713670Y550080D01*
X713730Y549783D01*
X713730Y528806D01*
X714906Y527630D01*
X720994Y527630D01*
X722170Y528806D01*
X722170Y549783D01*
X722221Y550058D01*
X722385Y550313D01*
X722635Y550485D01*
X722932Y550545D01*
X725668Y550545D01*
X725943Y550494D01*
X726198Y550330D01*
X726370Y550080D01*
X726430Y549783D01*
X726430Y528806D01*
X727606Y527630D01*
X733694Y527630D01*
X734870Y528806D01*
X734870Y549783D01*
X734921Y550058D01*
X735085Y550313D01*
X735335Y550485D01*
X735632Y550545D01*
X738368Y550545D01*
X738643Y550494D01*
X738898Y550330D01*
X739070Y550080D01*
X739130Y549783D01*
X739130Y528806D01*
X740306Y527630D01*
X746394Y527630D01*
X747570Y528806D01*
X747570Y549783D01*
X747621Y550058D01*
X747785Y550313D01*
X748035Y550485D01*
X748332Y550545D01*
X749798Y550545D01*
X750073Y550494D01*
X750328Y550330D01*
X750500Y550080D01*
X750560Y549783D01*
X750560Y539912D01*
X756812Y539912D01*
X756812Y526360D01*
X759620Y526360D01*
X760539Y527279D01*
X760770Y527437D01*
X761066Y527502D01*
X761364Y527447D01*
X761617Y527279D01*
X764952Y523944D01*
X765115Y523703D01*
X765175Y523405D01*
X765175Y515216D01*
X765119Y514930D01*
X764952Y514677D01*
X763548Y513273D01*
X763548Y510347D01*
X765617Y508278D01*
X768543Y508278D01*
X768829Y508564D01*
X769049Y508717D01*
X769344Y508787D01*
X769643Y508736D01*
X769898Y508573D01*
X770070Y508323D01*
X770130Y508025D01*
X770130Y503174D01*
X770874Y502430D01*
X778926Y502430D01*
X779670Y503174D01*
X779670Y513226D01*
X778926Y513970D01*
X777367Y513970D01*
X777092Y514021D01*
X776837Y514185D01*
X776665Y514435D01*
X776605Y514732D01*
X776605Y523113D01*
X776656Y523388D01*
X776820Y523643D01*
X777070Y523815D01*
X777367Y523875D01*
X797079Y523875D01*
X817176Y543972D01*
X817418Y544135D01*
X817715Y544195D01*
X821006Y544195D01*
X821289Y544140D01*
X821543Y543974D01*
X821711Y543722D01*
X821768Y543424D01*
X821761Y542844D01*
X822496Y542091D01*
X832547Y541968D01*
X833300Y542703D01*
X833309Y543442D01*
X833360Y543708D01*
X833523Y543963D01*
X833774Y544135D01*
X834071Y544195D01*
X842175Y544195D01*
X842461Y544139D01*
X842714Y543972D01*
X845407Y541279D01*
X845570Y541038D01*
X845630Y540740D01*
X845630Y528447D01*
X845579Y528172D01*
X845415Y527917D01*
X845165Y527745D01*
X844868Y527685D01*
X836765Y527685D01*
X836479Y527741D01*
X836226Y527908D01*
X833384Y530751D01*
X833217Y531001D01*
X833160Y531299D01*
X833239Y537756D01*
X832504Y538509D01*
X822453Y538632D01*
X821700Y537897D01*
X821602Y529845D01*
X822337Y529092D01*
X829434Y529006D01*
X829711Y528950D01*
X829964Y528782D01*
X834871Y523875D01*
X862241Y523875D01*
X862505Y523828D01*
X862763Y523669D01*
X862938Y523421D01*
X862939Y523419D01*
X862982Y523653D01*
X863150Y523906D01*
X865474Y526230D01*
X865694Y526383D01*
X865989Y526453D01*
X866288Y526402D01*
X866543Y526239D01*
X866715Y525989D01*
X866775Y525691D01*
X866775Y525615D01*
X866719Y525329D01*
X866552Y525076D01*
X864304Y522828D01*
X864063Y522665D01*
X863765Y522605D01*
X863689Y522605D01*
X863425Y522652D01*
X863167Y522811D01*
X862992Y523059D01*
X862991Y523061D01*
X862948Y522827D01*
X862780Y522574D01*
X741114Y400908D01*
X740873Y400745D01*
X740575Y400685D01*
X733982Y400685D01*
X733707Y400736D01*
X733452Y400900D01*
X733280Y401150D01*
X733220Y401447D01*
X733220Y409626D01*
X732476Y410370D01*
X719924Y410370D01*
X719180Y409626D01*
X719180Y400574D01*
X719924Y399830D01*
X721686Y399830D01*
X721950Y399783D01*
X722208Y399624D01*
X722383Y399376D01*
X722448Y399080D01*
X722393Y398782D01*
X722225Y398529D01*
X639445Y315749D01*
X639445Y315702D01*
X639394Y315427D01*
X639230Y315172D01*
X638980Y315000D01*
X638683Y314940D01*
X635262Y314940D01*
X635262Y302737D01*
X635398Y302654D01*
X635573Y302406D01*
X635638Y302110D01*
X635583Y301812D01*
X635415Y301559D01*
X634749Y300893D01*
X634508Y300730D01*
X634210Y300670D01*
X629474Y300670D01*
X628730Y299926D01*
X628730Y291874D01*
X629474Y291130D01*
X639526Y291130D01*
X640270Y291874D01*
X640270Y299926D01*
X640259Y299937D01*
X640101Y300168D01*
X640036Y300464D01*
X640091Y300762D01*
X640259Y301015D01*
X641671Y302427D01*
X641912Y302589D01*
X642209Y302650D01*
X647037Y302659D01*
X647016Y314739D01*
X645661Y314736D01*
X645397Y314783D01*
X645139Y314943D01*
X644963Y315190D01*
X644898Y315486D01*
X644954Y315784D01*
X645121Y316037D01*
X649217Y320133D01*
X649437Y320286D01*
X649732Y320356D01*
X650031Y320305D01*
X650286Y320142D01*
X650423Y319942D01*
X652587Y317778D01*
X655513Y317778D01*
X656917Y319182D01*
X657158Y319345D01*
X657456Y319405D01*
X694209Y319405D01*
X714269Y339465D01*
X714489Y339618D01*
X714784Y339688D01*
X715083Y339637D01*
X715338Y339474D01*
X715510Y339224D01*
X715570Y338926D01*
X715570Y322168D01*
X715599Y321880D01*
X715672Y321640D01*
X715792Y321420D01*
X715952Y321227D01*
X716148Y321070D01*
X716371Y320954D01*
X716615Y320884D01*
X716875Y320860D01*
X737122Y320860D01*
X737410Y320889D01*
X737650Y320962D01*
X737870Y321082D01*
X738063Y321242D01*
X738220Y321438D01*
X738336Y321661D01*
X738406Y321905D01*
X738430Y322165D01*
X738430Y332170D01*
X738401Y332458D01*
X738328Y332697D01*
X738208Y332918D01*
X738048Y333111D01*
X737823Y333292D01*
X735343Y334911D01*
X735276Y334960D01*
X732799Y336993D01*
X732693Y337099D01*
X730720Y339503D01*
X730637Y339627D01*
X729171Y342370D01*
X729114Y342508D01*
X728260Y345325D01*
X728228Y345586D01*
X728394Y348713D01*
X728394Y348887D01*
X728239Y351808D01*
X728294Y352134D01*
X728461Y352387D01*
X749269Y373195D01*
X749489Y373348D01*
X749784Y373418D01*
X750083Y373367D01*
X750338Y373204D01*
X750510Y372954D01*
X750570Y372656D01*
X750570Y365430D01*
X750599Y365143D01*
X750672Y364903D01*
X750792Y364682D01*
X750952Y364489D01*
X751177Y364308D01*
X753657Y362689D01*
X753724Y362640D01*
X756201Y360607D01*
X756307Y360501D01*
X758280Y358097D01*
X758363Y357973D01*
X759829Y355230D01*
X759886Y355092D01*
X760740Y352275D01*
X760772Y352014D01*
X760606Y348887D01*
X760606Y348713D01*
X760772Y345586D01*
X760740Y345325D01*
X759886Y342508D01*
X759829Y342370D01*
X758363Y339627D01*
X758280Y339503D01*
X756307Y337099D01*
X756201Y336993D01*
X753724Y334960D01*
X753657Y334911D01*
X751177Y333292D01*
X750952Y333111D01*
X750792Y332918D01*
X750672Y332697D01*
X750599Y332457D01*
X750570Y332170D01*
X750570Y322168D01*
X750599Y321880D01*
X750672Y321640D01*
X750792Y321420D01*
X750952Y321227D01*
X751148Y321070D01*
X751371Y320954D01*
X751615Y320884D01*
X751875Y320860D01*
X772122Y320860D01*
X772410Y320889D01*
X772650Y320962D01*
X772870Y321082D01*
X773063Y321242D01*
X773220Y321438D01*
X773336Y321661D01*
X773406Y321905D01*
X773430Y322165D01*
X773430Y338366D01*
X773477Y338630D01*
X773636Y338888D01*
X773884Y339063D01*
X774180Y339128D01*
X774478Y339073D01*
X774731Y338905D01*
X776025Y337611D01*
X776188Y337370D01*
X776248Y337072D01*
X776248Y335087D01*
X778317Y333018D01*
X781243Y333018D01*
X783312Y335087D01*
X783312Y338013D01*
X781243Y340082D01*
X780226Y340082D01*
X779962Y340129D01*
X779704Y340288D01*
X779529Y340536D01*
X779464Y340832D01*
X779519Y341130D01*
X779687Y341383D01*
X798379Y360075D01*
X798599Y360228D01*
X798894Y360298D01*
X799193Y360247D01*
X799448Y360084D01*
X799620Y359834D01*
X799680Y359536D01*
X799680Y352574D01*
X800424Y351830D01*
X807210Y351830D01*
X807496Y351774D01*
X807749Y351607D01*
X834457Y324899D01*
X834620Y324658D01*
X834680Y324360D01*
X834680Y316774D01*
X835424Y316030D01*
X847976Y316030D01*
X848720Y316774D01*
X848720Y325010D01*
X848776Y325296D01*
X848943Y325549D01*
X868045Y344651D01*
X868045Y349488D01*
X868093Y349754D01*
X868253Y350011D01*
X868501Y350186D01*
X868798Y350250D01*
X872263Y350292D01*
X872998Y351045D01*
X872897Y359338D01*
X872952Y359633D01*
X873120Y359886D01*
X1003866Y490632D01*
X1004108Y490795D01*
X1004405Y490855D01*
X1114194Y490855D01*
X1114480Y490799D01*
X1114733Y490632D01*
X1116137Y489228D01*
X1119063Y489228D01*
X1121132Y491297D01*
X1121132Y494048D01*
X1121183Y494323D01*
X1121347Y494578D01*
X1121597Y494750D01*
X1121894Y494810D01*
X1125752Y494810D01*
X1127240Y496298D01*
X1127240Y501438D01*
X1119238Y501438D01*
X1119238Y502962D01*
X1127240Y502962D01*
X1127240Y508102D01*
X1125752Y509590D01*
X1125576Y509590D01*
X1125312Y509637D01*
X1125054Y509796D01*
X1124879Y510044D01*
X1124814Y510340D01*
X1124869Y510638D01*
X1125037Y510891D01*
X1125970Y511824D01*
X1125970Y522576D01*
X1125226Y523320D01*
X1114774Y523320D01*
X1114030Y522576D01*
X1114030Y516330D01*
X1113974Y516044D01*
X1113807Y515791D01*
X1112311Y514295D01*
X1112070Y514132D01*
X1111772Y514072D01*
X1109787Y514072D01*
X1108971Y513256D01*
X1108751Y513103D01*
X1108456Y513033D01*
X1108157Y513084D01*
X1107902Y513247D01*
X1107730Y513497D01*
X1107670Y513795D01*
X1107670Y520460D01*
X1107726Y520746D01*
X1107893Y520999D01*
X1122889Y535995D01*
X1123131Y536158D01*
X1123428Y536218D01*
X1125413Y536218D01*
X1127482Y538287D01*
X1127482Y541213D01*
X1125413Y543282D01*
X1122487Y543282D01*
X1120418Y541213D01*
X1120418Y539228D01*
X1120362Y538942D01*
X1120195Y538689D01*
X1104199Y522693D01*
X1103958Y522530D01*
X1103660Y522470D01*
X1096874Y522470D01*
X1096130Y521726D01*
X1096130Y520827D01*
X1096079Y520552D01*
X1095915Y520297D01*
X1095665Y520125D01*
X1095368Y520065D01*
X1017359Y520065D01*
X1017095Y520112D01*
X1016837Y520271D01*
X1016662Y520519D01*
X1016597Y520815D01*
X1016652Y521113D01*
X1016820Y521366D01*
X1120706Y625252D01*
X1120948Y625415D01*
X1121245Y625475D01*
X1121321Y625475D01*
X1121585Y625428D01*
X1121843Y625269D01*
X1122018Y625021D01*
X1122083Y624725D01*
X1122028Y624427D01*
X1121860Y624174D01*
X1116965Y619279D01*
X1116965Y601191D01*
X1161192Y556964D01*
X1161355Y556723D01*
X1161415Y556425D01*
X1161415Y542356D01*
X1161364Y542081D01*
X1161200Y541826D01*
X1160950Y541654D01*
X1160653Y541594D01*
X1145074Y541594D01*
X1144330Y540850D01*
X1144330Y524798D01*
X1145074Y524054D01*
X1167116Y524054D01*
X1167402Y523998D01*
X1167655Y523831D01*
X1169725Y521761D01*
X1169888Y521520D01*
X1169948Y521222D01*
X1169948Y519237D01*
X1172017Y517168D01*
X1174943Y517168D01*
X1177012Y519237D01*
X1177012Y522163D01*
X1176422Y522753D01*
X1176269Y522973D01*
X1176199Y523268D01*
X1176250Y523567D01*
X1176413Y523822D01*
X1176663Y523994D01*
X1176961Y524054D01*
X1182126Y524054D01*
X1182870Y524798D01*
X1182870Y540850D01*
X1182126Y541594D01*
X1165987Y541594D01*
X1165712Y541645D01*
X1165457Y541809D01*
X1165285Y542059D01*
X1165225Y542356D01*
X1165225Y558319D01*
X1120998Y602546D01*
X1120835Y602788D01*
X1120775Y603085D01*
X1120775Y606268D01*
X1120826Y606543D01*
X1120990Y606798D01*
X1121240Y606970D01*
X1121537Y607030D01*
X1127320Y607030D01*
X1127606Y606974D01*
X1127859Y606807D01*
X1130781Y603885D01*
X1145059Y603885D01*
X1151186Y610012D01*
X1151428Y610175D01*
X1151725Y610235D01*
X1157868Y610235D01*
X1158143Y610184D01*
X1158398Y610020D01*
X1158570Y609770D01*
X1158630Y609473D01*
X1158630Y608112D01*
X1158654Y608078D01*
X1158719Y607782D01*
X1158663Y607484D01*
X1158496Y607231D01*
X1157248Y605983D01*
X1157248Y603057D01*
X1158334Y601971D01*
X1158487Y601751D01*
X1158557Y601456D01*
X1158506Y601157D01*
X1158343Y600902D01*
X1158093Y600730D01*
X1157795Y600670D01*
X1156574Y600670D01*
X1155830Y599926D01*
X1155830Y589874D01*
X1156574Y589130D01*
X1164626Y589130D01*
X1165370Y589874D01*
X1165370Y599926D01*
X1164626Y600670D01*
X1163765Y600670D01*
X1163501Y600717D01*
X1163243Y600876D01*
X1163068Y601124D01*
X1163003Y601420D01*
X1163058Y601718D01*
X1163226Y601971D01*
X1164312Y603057D01*
X1164312Y605983D01*
X1164166Y606129D01*
X1164013Y606349D01*
X1163943Y606644D01*
X1163994Y606943D01*
X1164157Y607198D01*
X1164407Y607370D01*
X1164705Y607430D01*
X1168426Y607430D01*
X1169004Y608008D01*
X1169224Y608161D01*
X1169519Y608231D01*
X1169818Y608180D01*
X1170073Y608017D01*
X1170245Y607767D01*
X1170287Y607559D01*
X1174605Y603241D01*
X1174758Y603021D01*
X1174828Y602726D01*
X1174777Y602427D01*
X1174614Y602172D01*
X1174364Y602000D01*
X1174362Y602000D01*
X1174362Y595662D01*
X1179640Y595662D01*
X1179640Y599313D01*
X1179691Y599588D01*
X1179855Y599843D01*
X1180105Y600015D01*
X1180402Y600075D01*
X1189901Y600075D01*
X1190165Y600028D01*
X1190423Y599869D01*
X1190598Y599621D01*
X1190663Y599325D01*
X1190625Y599120D01*
X1190625Y588491D01*
X1193011Y586105D01*
X1195235Y586105D01*
X1195521Y586049D01*
X1195774Y585882D01*
X1198615Y583041D01*
X1198768Y582821D01*
X1198838Y582526D01*
X1198787Y582227D01*
X1198624Y581972D01*
X1198374Y581800D01*
X1198076Y581740D01*
X1197862Y581740D01*
X1197862Y569660D01*
X1198856Y569660D01*
X1199120Y569613D01*
X1199378Y569454D01*
X1199553Y569206D01*
X1199618Y568910D01*
X1199563Y568612D01*
X1199395Y568359D01*
X1198729Y567693D01*
X1198488Y567530D01*
X1198190Y567470D01*
X1192074Y567470D01*
X1191330Y566726D01*
X1191330Y558674D01*
X1192074Y557930D01*
X1202126Y557930D01*
X1202870Y558674D01*
X1202870Y566130D01*
X1202926Y566416D01*
X1203093Y566669D01*
X1205865Y569441D01*
X1205865Y581179D01*
X1198765Y588279D01*
X1198612Y588499D01*
X1198542Y588794D01*
X1198593Y589093D01*
X1198756Y589348D01*
X1199007Y589520D01*
X1199304Y589580D01*
X1201920Y589580D01*
X1202206Y589524D01*
X1202459Y589357D01*
X1208182Y583634D01*
X1208345Y583393D01*
X1208405Y583095D01*
X1208405Y548475D01*
X1208349Y548189D01*
X1208182Y547936D01*
X1172914Y512668D01*
X1172673Y512505D01*
X1172375Y512445D01*
X1156181Y512445D01*
X1138555Y494819D01*
X1138555Y472532D01*
X1138504Y472257D01*
X1138340Y472002D01*
X1138090Y471830D01*
X1137793Y471770D01*
X1136074Y471770D01*
X1135330Y471026D01*
X1135330Y460974D01*
X1136074Y460230D01*
X1144126Y460230D01*
X1144870Y460974D01*
X1144870Y471026D01*
X1144126Y471770D01*
X1143127Y471770D01*
X1142852Y471821D01*
X1142597Y471985D01*
X1142425Y472235D01*
X1142365Y472532D01*
X1142365Y492925D01*
X1142421Y493211D01*
X1142588Y493464D01*
X1143029Y493905D01*
X1143249Y494058D01*
X1143544Y494128D01*
X1143843Y494077D01*
X1144098Y493914D01*
X1144270Y493664D01*
X1144330Y493366D01*
X1144330Y479798D01*
X1145074Y479054D01*
X1182126Y479054D01*
X1182870Y479798D01*
X1182870Y495850D01*
X1182126Y496594D01*
X1176768Y496594D01*
X1176504Y496641D01*
X1176246Y496800D01*
X1176071Y497048D01*
X1176006Y497344D01*
X1176061Y497642D01*
X1176229Y497895D01*
X1200729Y522395D01*
X1200949Y522548D01*
X1201244Y522618D01*
X1201543Y522567D01*
X1201798Y522404D01*
X1201970Y522154D01*
X1202030Y521856D01*
X1202030Y517507D01*
X1202040Y517460D01*
X1201985Y517162D01*
X1201817Y516909D01*
X1200760Y515852D01*
X1200760Y512562D01*
X1208562Y512562D01*
X1208562Y511038D01*
X1200760Y511038D01*
X1200760Y507748D01*
X1201817Y506691D01*
X1201975Y506460D01*
X1202040Y506164D01*
X1202030Y506109D01*
X1202030Y498774D01*
X1202774Y498030D01*
X1205103Y498030D01*
X1205378Y497979D01*
X1205633Y497815D01*
X1205805Y497565D01*
X1205865Y497268D01*
X1205865Y486245D01*
X1205809Y485959D01*
X1205642Y485706D01*
X1178313Y458377D01*
X1178093Y458224D01*
X1177798Y458154D01*
X1177499Y458205D01*
X1177244Y458368D01*
X1177072Y458619D01*
X1177012Y458916D01*
X1177012Y459933D01*
X1174837Y462108D01*
X1174674Y462208D01*
X1174499Y462456D01*
X1174434Y462752D01*
X1174489Y463050D01*
X1174657Y463303D01*
X1187659Y476305D01*
X1187901Y476468D01*
X1188198Y476528D01*
X1190183Y476528D01*
X1192252Y478597D01*
X1192252Y481523D01*
X1190183Y483592D01*
X1187257Y483592D01*
X1185188Y481523D01*
X1185188Y479538D01*
X1185132Y479252D01*
X1184965Y478999D01*
X1164024Y458058D01*
X1163783Y457895D01*
X1163485Y457835D01*
X1132367Y457835D01*
X1132103Y457882D01*
X1131845Y458041D01*
X1131670Y458289D01*
X1131605Y458585D01*
X1131660Y458883D01*
X1131828Y459136D01*
X1133140Y460448D01*
X1133140Y465238D01*
X1121060Y465238D01*
X1121060Y460448D01*
X1122372Y459136D01*
X1122525Y458916D01*
X1122595Y458621D01*
X1122544Y458322D01*
X1122381Y458067D01*
X1122131Y457895D01*
X1121833Y457835D01*
X990196Y457835D01*
X989910Y457891D01*
X989657Y458058D01*
X988253Y459462D01*
X985327Y459462D01*
X983258Y457393D01*
X983258Y454467D01*
X985433Y452292D01*
X985596Y452192D01*
X985771Y451944D01*
X985836Y451648D01*
X985781Y451350D01*
X985613Y451097D01*
X832554Y298038D01*
X832313Y297875D01*
X832015Y297815D01*
X720232Y297815D01*
X719957Y297866D01*
X719702Y298030D01*
X719530Y298280D01*
X719470Y298577D01*
X719470Y300126D01*
X718726Y300870D01*
X710674Y300870D01*
X709930Y300126D01*
X709930Y293840D01*
X709874Y293554D01*
X709707Y293301D01*
X709041Y292635D01*
X708821Y292482D01*
X708526Y292412D01*
X708227Y292463D01*
X707972Y292626D01*
X707800Y292877D01*
X707740Y293174D01*
X707740Y294338D01*
X695660Y294338D01*
X695660Y293124D01*
X695613Y292860D01*
X695454Y292602D01*
X695206Y292427D01*
X694910Y292362D01*
X694612Y292417D01*
X694359Y292585D01*
X691669Y295275D01*
X688232Y295275D01*
X687957Y295326D01*
X687702Y295490D01*
X687530Y295740D01*
X687470Y296037D01*
X687470Y304826D01*
X686726Y305570D01*
X683387Y305570D01*
X683112Y305621D01*
X682857Y305785D01*
X682685Y306035D01*
X682625Y306332D01*
X682625Y306474D01*
X682681Y306760D01*
X682848Y307013D01*
X682982Y307147D01*
X682982Y310073D01*
X680913Y312142D01*
X677987Y312142D01*
X675918Y310073D01*
X675918Y307147D01*
X676546Y306519D01*
X676704Y306289D01*
X676769Y305993D01*
X676713Y305695D01*
X676546Y305442D01*
X675930Y304826D01*
X675930Y298884D01*
X675883Y298620D01*
X675724Y298362D01*
X675476Y298187D01*
X675180Y298122D01*
X674882Y298177D01*
X674629Y298345D01*
X666693Y306281D01*
X666530Y306523D01*
X666470Y306820D01*
X666470Y314326D01*
X665726Y315070D01*
X655674Y315070D01*
X654882Y314278D01*
X654652Y314120D01*
X654356Y314055D01*
X654058Y314110D01*
X653805Y314277D01*
X653330Y314750D01*
X648540Y314741D01*
X648561Y302661D01*
X653351Y302670D01*
X654982Y304306D01*
X655224Y304470D01*
X655522Y304530D01*
X662740Y304530D01*
X663026Y304474D01*
X663279Y304307D01*
X668717Y298869D01*
X668875Y298639D01*
X668940Y298343D01*
X668884Y298045D01*
X668717Y297792D01*
X666899Y295974D01*
X666669Y295816D01*
X666373Y295751D01*
X666075Y295807D01*
X665822Y295974D01*
X665726Y296070D01*
X658170Y296070D01*
X657884Y296126D01*
X657631Y296293D01*
X657379Y296545D01*
X654341Y296545D01*
X654067Y296596D01*
X653811Y296759D01*
X653639Y297009D01*
X653579Y297306D01*
X653574Y299736D01*
X652829Y300479D01*
X642777Y300461D01*
X642034Y299716D01*
X642048Y291664D01*
X642794Y290921D01*
X652846Y290939D01*
X653628Y291724D01*
X653849Y291878D01*
X654144Y291948D01*
X654443Y291897D01*
X654698Y291734D01*
X654870Y291483D01*
X654930Y291186D01*
X654930Y286274D01*
X655674Y285530D01*
X665726Y285530D01*
X666470Y286274D01*
X666470Y286893D01*
X666521Y287168D01*
X666685Y287423D01*
X666935Y287595D01*
X667232Y287655D01*
X689775Y287655D01*
X690061Y287599D01*
X690314Y287432D01*
X700220Y277526D01*
X700373Y277306D01*
X700443Y277011D01*
X700392Y276712D01*
X700229Y276457D01*
X699979Y276285D01*
X699681Y276225D01*
X681201Y276225D01*
X667385Y262409D01*
X667385Y235431D01*
X684942Y217874D01*
X685105Y217633D01*
X685165Y217335D01*
X685165Y217020D01*
X685118Y216756D01*
X684959Y216498D01*
X684711Y216323D01*
X684415Y216258D01*
X684117Y216313D01*
X683864Y216481D01*
X683453Y216892D01*
X680527Y216892D01*
X678458Y214823D01*
X678458Y211897D01*
X679862Y210493D01*
X680025Y210252D01*
X680085Y209954D01*
X680085Y198197D01*
X680029Y197911D01*
X679862Y197658D01*
X678930Y196726D01*
X678930Y187674D01*
X679674Y186930D01*
X683756Y186930D01*
X683892Y187023D01*
X684188Y187088D01*
X684486Y187033D01*
X684641Y186930D01*
X688756Y186930D01*
X688892Y187023D01*
X689188Y187088D01*
X689486Y187033D01*
X689641Y186930D01*
X693756Y186930D01*
X693892Y187023D01*
X694188Y187088D01*
X694486Y187033D01*
X694641Y186930D01*
X698756Y186930D01*
X698892Y187023D01*
X699188Y187088D01*
X699486Y187033D01*
X699641Y186930D01*
X703756Y186930D01*
X703892Y187023D01*
X704188Y187088D01*
X704486Y187033D01*
X704641Y186930D01*
X708756Y186930D01*
X708892Y187023D01*
X709188Y187088D01*
X709486Y187033D01*
X709641Y186930D01*
X712562Y186930D01*
X712848Y186874D01*
X713101Y186707D01*
X714148Y185660D01*
X715938Y185660D01*
X715938Y198740D01*
X713867Y198740D01*
X713592Y198791D01*
X713337Y198955D01*
X713165Y199205D01*
X713105Y199502D01*
X713105Y235354D01*
X713161Y235640D01*
X713328Y235893D01*
X714732Y237297D01*
X714732Y240223D01*
X714664Y240291D01*
X714506Y240521D01*
X714441Y240817D01*
X714497Y241115D01*
X714664Y241368D01*
X715070Y241774D01*
X715070Y248793D01*
X715121Y249068D01*
X715285Y249323D01*
X715535Y249495D01*
X715832Y249555D01*
X716445Y249555D01*
X716731Y249499D01*
X716984Y249332D01*
X717007Y249309D01*
X717170Y249068D01*
X717230Y248770D01*
X717230Y241574D01*
X717974Y240830D01*
X728026Y240830D01*
X728770Y241574D01*
X728770Y249626D01*
X728026Y250370D01*
X721650Y250370D01*
X721364Y250426D01*
X721111Y250593D01*
X720445Y251259D01*
X720292Y251479D01*
X720222Y251774D01*
X720273Y252073D01*
X720436Y252328D01*
X720687Y252500D01*
X720984Y252560D01*
X722238Y252560D01*
X722238Y264640D01*
X717448Y264640D01*
X716789Y263981D01*
X716558Y263823D01*
X716262Y263758D01*
X715964Y263813D01*
X715711Y263981D01*
X714852Y264840D01*
X710062Y264840D01*
X710062Y258038D01*
X708538Y258038D01*
X708538Y264840D01*
X703748Y264840D01*
X703289Y264381D01*
X703058Y264223D01*
X702762Y264158D01*
X702464Y264213D01*
X702211Y264381D01*
X701652Y264940D01*
X696862Y264940D01*
X696862Y258138D01*
X695338Y258138D01*
X695338Y264940D01*
X690548Y264940D01*
X688891Y263283D01*
X688660Y263125D01*
X688364Y263060D01*
X688066Y263115D01*
X687813Y263283D01*
X687026Y264070D01*
X680084Y264070D01*
X679820Y264117D01*
X679562Y264276D01*
X679387Y264524D01*
X679322Y264820D01*
X679377Y265118D01*
X679545Y265371D01*
X683826Y269652D01*
X684068Y269815D01*
X684365Y269875D01*
X721525Y269875D01*
X721811Y269819D01*
X722064Y269652D01*
X725775Y265941D01*
X725928Y265721D01*
X725998Y265426D01*
X725947Y265127D01*
X725784Y264872D01*
X725534Y264700D01*
X725236Y264640D01*
X723762Y264640D01*
X723762Y252560D01*
X728680Y252560D01*
X728966Y252504D01*
X729219Y252337D01*
X731707Y249849D01*
X731870Y249608D01*
X731930Y249310D01*
X731930Y242074D01*
X732674Y241330D01*
X737415Y241330D01*
X737679Y241283D01*
X737937Y241124D01*
X738112Y240876D01*
X738177Y240580D01*
X738122Y240282D01*
X737954Y240029D01*
X736878Y238953D01*
X736878Y236027D01*
X738947Y233958D01*
X741873Y233958D01*
X743277Y235362D01*
X743518Y235525D01*
X743816Y235585D01*
X759610Y235585D01*
X759874Y235538D01*
X760132Y235379D01*
X760307Y235131D01*
X760372Y234835D01*
X760317Y234537D01*
X760149Y234284D01*
X759738Y233873D01*
X759738Y230947D01*
X761807Y228878D01*
X763792Y228878D01*
X764078Y228822D01*
X764331Y228655D01*
X773842Y219144D01*
X774005Y218903D01*
X774065Y218605D01*
X774065Y198232D01*
X774014Y197957D01*
X773850Y197702D01*
X773600Y197530D01*
X773303Y197470D01*
X769644Y197470D01*
X769508Y197377D01*
X769212Y197312D01*
X768914Y197367D01*
X768759Y197470D01*
X765838Y197470D01*
X765552Y197526D01*
X765299Y197693D01*
X764252Y198740D01*
X762462Y198740D01*
X762462Y185660D01*
X764252Y185660D01*
X765299Y186707D01*
X765541Y186870D01*
X765838Y186930D01*
X768756Y186930D01*
X768892Y187023D01*
X769188Y187088D01*
X769486Y187033D01*
X769641Y186930D01*
X773756Y186930D01*
X773892Y187023D01*
X774188Y187088D01*
X774486Y187033D01*
X774641Y186930D01*
X778756Y186930D01*
X778892Y187023D01*
X779188Y187088D01*
X779486Y187033D01*
X779641Y186930D01*
X783463Y186930D01*
X783738Y186879D01*
X783993Y186715D01*
X784165Y186465D01*
X784225Y186168D01*
X784225Y177635D01*
X784169Y177349D01*
X784002Y177096D01*
X771913Y165007D01*
X771693Y164854D01*
G37*
%LPC*%
G36*
X257960Y604062D02*
X264818Y604062D01*
X264818Y608340D01*
X259814Y608340D01*
X257960Y606486D01*
X257960Y604062D01*
G37*
G36*
X266342Y604062D02*
X273200Y604062D01*
X273200Y606486D01*
X271346Y608340D01*
X266342Y608340D01*
X266342Y604062D01*
G37*
G36*
X1167560Y595662D02*
X1172838Y595662D01*
X1172838Y601940D01*
X1169048Y601940D01*
X1167560Y600452D01*
X1167560Y595662D01*
G37*
G36*
X1169048Y587860D02*
X1172838Y587860D01*
X1172838Y594138D01*
X1167560Y594138D01*
X1167560Y589348D01*
X1169048Y587860D01*
G37*
G36*
X1174362Y587860D02*
X1178152Y587860D01*
X1179640Y589348D01*
X1179640Y594138D01*
X1174362Y594138D01*
X1174362Y587860D01*
G37*
G36*
X1190060Y576462D02*
X1196338Y576462D01*
X1196338Y581740D01*
X1191548Y581740D01*
X1190060Y580252D01*
X1190060Y576462D01*
G37*
G36*
X237182Y574060D02*
X242186Y574060D01*
X244040Y575914D01*
X244040Y578338D01*
X237182Y578338D01*
X237182Y574060D01*
G37*
G36*
X1191548Y569660D02*
X1196338Y569660D01*
X1196338Y574938D01*
X1190060Y574938D01*
X1190060Y571148D01*
X1191548Y569660D01*
G37*
G36*
X752480Y526360D02*
X755288Y526360D01*
X755288Y538388D01*
X750560Y538388D01*
X750560Y528280D01*
X752480Y526360D01*
G37*
G36*
X246362Y511810D02*
X251352Y511810D01*
X252840Y513298D01*
X252840Y518438D01*
X246362Y518438D01*
X246362Y511810D01*
G37*
G36*
X239848Y511810D02*
X244838Y511810D01*
X244838Y518438D01*
X238360Y518438D01*
X238360Y513298D01*
X239848Y511810D01*
G37*
G36*
X781860Y508962D02*
X787138Y508962D01*
X787138Y515240D01*
X783348Y515240D01*
X781860Y513752D01*
X781860Y508962D01*
G37*
G36*
X788662Y508962D02*
X793940Y508962D01*
X793940Y513752D01*
X792452Y515240D01*
X788662Y515240D01*
X788662Y508962D01*
G37*
G36*
X788662Y501160D02*
X792452Y501160D01*
X793940Y502648D01*
X793940Y507438D01*
X788662Y507438D01*
X788662Y501160D01*
G37*
G36*
X783348Y501160D02*
X787138Y501160D01*
X787138Y507438D01*
X781860Y507438D01*
X781860Y502648D01*
X783348Y501160D01*
G37*
G36*
X1127862Y466762D02*
X1133140Y466762D01*
X1133140Y471552D01*
X1131652Y473040D01*
X1127862Y473040D01*
X1127862Y466762D01*
G37*
G36*
X1121060Y466762D02*
X1126338Y466762D01*
X1126338Y473040D01*
X1122548Y473040D01*
X1121060Y471552D01*
X1121060Y466762D01*
G37*
G36*
X246448Y388410D02*
X251438Y388410D01*
X251438Y395038D01*
X244960Y395038D01*
X244960Y389898D01*
X246448Y388410D01*
G37*
G36*
X284262Y388210D02*
X289252Y388210D01*
X290740Y389698D01*
X290740Y394838D01*
X284262Y394838D01*
X284262Y388210D01*
G37*
G36*
X285062Y377262D02*
X291340Y377262D01*
X291340Y381052D01*
X289852Y382540D01*
X285062Y382540D01*
X285062Y377262D01*
G37*
G36*
X285062Y370460D02*
X289852Y370460D01*
X291340Y371948D01*
X291340Y375738D01*
X285062Y375738D01*
X285062Y370460D01*
G37*
G36*
X264648Y357660D02*
X269438Y357660D01*
X269438Y362938D01*
X263160Y362938D01*
X263160Y359148D01*
X264648Y357660D01*
G37*
G36*
X807462Y322062D02*
X814990Y322062D01*
X814990Y326352D01*
X813502Y327840D01*
X807462Y327840D01*
X807462Y322062D01*
G37*
G36*
X798410Y322062D02*
X805938Y322062D01*
X805938Y327840D01*
X799898Y327840D01*
X798410Y326352D01*
X798410Y322062D01*
G37*
G36*
X799898Y314760D02*
X805938Y314760D01*
X805938Y320538D01*
X798410Y320538D01*
X798410Y316248D01*
X799898Y314760D01*
G37*
G36*
X807462Y314760D02*
X813502Y314760D01*
X814990Y316248D01*
X814990Y320538D01*
X807462Y320538D01*
X807462Y314760D01*
G37*
G36*
X628948Y302860D02*
X633738Y302860D01*
X633738Y308138D01*
X627460Y308138D01*
X627460Y304348D01*
X628948Y302860D01*
G37*
G36*
X695660Y295862D02*
X700938Y295862D01*
X700938Y302140D01*
X697148Y302140D01*
X695660Y300652D01*
X695660Y295862D01*
G37*
G36*
X702462Y295862D02*
X707740Y295862D01*
X707740Y300652D01*
X706252Y302140D01*
X702462Y302140D01*
X702462Y295862D01*
G37*
G36*
X656397Y227608D02*
X659323Y227608D01*
X661392Y229677D01*
X661392Y232603D01*
X659988Y234007D01*
X659825Y234248D01*
X659765Y234546D01*
X659765Y253068D01*
X659816Y253343D01*
X659980Y253598D01*
X660230Y253770D01*
X660527Y253830D01*
X662676Y253830D01*
X663420Y254574D01*
X663420Y265026D01*
X662676Y265770D01*
X651924Y265770D01*
X650991Y264837D01*
X650771Y264684D01*
X650476Y264614D01*
X650177Y264665D01*
X649922Y264828D01*
X649750Y265078D01*
X649690Y265376D01*
X649690Y265552D01*
X648202Y267040D01*
X643062Y267040D01*
X643062Y252560D01*
X648202Y252560D01*
X649690Y254048D01*
X649690Y254224D01*
X649737Y254488D01*
X649896Y254746D01*
X650144Y254921D01*
X650440Y254986D01*
X650738Y254931D01*
X650991Y254763D01*
X651924Y253830D01*
X655193Y253830D01*
X655468Y253779D01*
X655723Y253615D01*
X655895Y253365D01*
X655955Y253068D01*
X655955Y234546D01*
X655899Y234260D01*
X655732Y234007D01*
X654328Y232603D01*
X654328Y229677D01*
X656397Y227608D01*
G37*
G36*
X634910Y260562D02*
X641538Y260562D01*
X641538Y267040D01*
X636398Y267040D01*
X634910Y265552D01*
X634910Y260562D01*
G37*
G36*
X636398Y252560D02*
X641538Y252560D01*
X641538Y259038D01*
X634910Y259038D01*
X634910Y254048D01*
X636398Y252560D01*
G37*
G36*
X587362Y250962D02*
X593640Y250962D01*
X593640Y254752D01*
X592152Y256240D01*
X587362Y256240D01*
X587362Y250962D01*
G37*
G36*
X567104Y233034D02*
X567853Y232295D01*
X577905Y232365D01*
X578643Y233115D01*
X578602Y239037D01*
X578658Y239328D01*
X578825Y239581D01*
X579529Y240285D01*
X579749Y240438D01*
X580044Y240508D01*
X580343Y240457D01*
X580598Y240294D01*
X580770Y240044D01*
X580830Y239746D01*
X580830Y233174D01*
X581574Y232430D01*
X591626Y232430D01*
X592370Y233174D01*
X592370Y233553D01*
X592421Y233828D01*
X592585Y234083D01*
X592835Y234255D01*
X593132Y234315D01*
X632864Y234315D01*
X633150Y234259D01*
X633403Y234092D01*
X634807Y232688D01*
X637733Y232688D01*
X639802Y234757D01*
X639802Y237683D01*
X637733Y239752D01*
X634807Y239752D01*
X633403Y238348D01*
X633162Y238185D01*
X632864Y238125D01*
X593132Y238125D01*
X592857Y238176D01*
X592602Y238340D01*
X592430Y238590D01*
X592370Y238887D01*
X592370Y241173D01*
X592421Y241448D01*
X592585Y241703D01*
X592835Y241875D01*
X593132Y241935D01*
X593879Y241935D01*
X594569Y242625D01*
X594811Y242788D01*
X595108Y242848D01*
X597093Y242848D01*
X599162Y244917D01*
X599162Y247843D01*
X597093Y249912D01*
X594402Y249912D01*
X594127Y249963D01*
X594021Y250031D01*
X594021Y249438D01*
X585838Y249438D01*
X585838Y256240D01*
X581048Y256240D01*
X580170Y255362D01*
X579944Y255206D01*
X579649Y255139D01*
X579350Y255193D01*
X579096Y255358D01*
X578264Y256178D01*
X573474Y256145D01*
X573559Y244065D01*
X576094Y244083D01*
X576363Y244036D01*
X576621Y243877D01*
X576796Y243629D01*
X576861Y243333D01*
X576806Y243035D01*
X576638Y242782D01*
X575967Y242111D01*
X575731Y241951D01*
X575434Y241888D01*
X567786Y241835D01*
X567047Y241086D01*
X567104Y233034D01*
G37*
G36*
X565747Y245499D02*
X567245Y244021D01*
X572035Y244055D01*
X571998Y249333D01*
X565720Y249289D01*
X565747Y245499D01*
G37*
G36*
X572862Y204362D02*
X578140Y204362D01*
X578140Y209152D01*
X576652Y210640D01*
X572862Y210640D01*
X572862Y204362D01*
G37*
G36*
X566060Y204362D02*
X571338Y204362D01*
X571338Y210640D01*
X567548Y210640D01*
X566060Y209152D01*
X566060Y204362D01*
G37*
%LPD*%
G36*
X1217507Y603246D02*
X1217211Y603181D01*
X1216913Y603236D01*
X1216660Y603404D01*
X1216179Y603885D01*
X1179665Y603885D01*
X1179379Y603941D01*
X1179126Y604108D01*
X1177105Y606129D01*
X1176952Y606349D01*
X1176882Y606644D01*
X1176933Y606943D01*
X1177096Y607198D01*
X1177347Y607370D01*
X1177644Y607430D01*
X1183426Y607430D01*
X1184170Y608174D01*
X1184170Y610743D01*
X1184221Y611018D01*
X1184385Y611273D01*
X1184635Y611445D01*
X1184932Y611505D01*
X1192467Y611505D01*
X1192742Y611454D01*
X1192997Y611290D01*
X1193169Y611040D01*
X1193229Y610743D01*
X1193229Y609324D01*
X1193973Y608580D01*
X1207025Y608580D01*
X1207769Y609324D01*
X1207769Y615876D01*
X1207025Y616620D01*
X1193973Y616620D01*
X1193183Y615830D01*
X1193178Y615802D01*
X1193014Y615547D01*
X1192764Y615375D01*
X1192467Y615315D01*
X1184932Y615315D01*
X1184657Y615366D01*
X1184402Y615530D01*
X1184230Y615780D01*
X1184170Y616077D01*
X1184170Y617226D01*
X1183426Y617970D01*
X1177010Y617970D01*
X1176724Y618026D01*
X1176471Y618193D01*
X1170490Y624174D01*
X1170337Y624394D01*
X1170267Y624689D01*
X1170318Y624988D01*
X1170481Y625243D01*
X1170732Y625415D01*
X1171029Y625475D01*
X1210475Y625475D01*
X1210761Y625419D01*
X1211014Y625252D01*
X1219272Y616994D01*
X1219430Y616764D01*
X1219495Y616468D01*
X1219439Y616170D01*
X1219272Y615917D01*
X1219231Y615876D01*
X1219231Y609324D01*
X1219268Y609287D01*
X1219426Y609056D01*
X1219491Y608760D01*
X1219436Y608462D01*
X1219268Y608209D01*
X1217961Y606902D01*
X1217961Y603943D01*
X1217914Y603679D01*
X1217755Y603421D01*
X1217507Y603246D01*
G37*
G36*
X866321Y542952D02*
X866025Y542887D01*
X865727Y542942D01*
X865474Y543110D01*
X862227Y546357D01*
X862069Y546588D01*
X862004Y546884D01*
X862059Y547182D01*
X862227Y547435D01*
X863440Y548648D01*
X863440Y555938D01*
X844360Y555938D01*
X844360Y553364D01*
X844313Y553100D01*
X844154Y552842D01*
X843906Y552667D01*
X843610Y552602D01*
X843312Y552657D01*
X843059Y552825D01*
X791155Y604729D01*
X790992Y604971D01*
X790932Y605268D01*
X790932Y607253D01*
X790521Y607664D01*
X790368Y607884D01*
X790298Y608179D01*
X790349Y608478D01*
X790512Y608733D01*
X790762Y608905D01*
X791060Y608965D01*
X844715Y608965D01*
X845001Y608909D01*
X845254Y608742D01*
X859845Y594151D01*
X860008Y593910D01*
X860068Y593612D01*
X860068Y591627D01*
X862137Y589558D01*
X865063Y589558D01*
X865474Y589969D01*
X865694Y590122D01*
X865989Y590192D01*
X866288Y590141D01*
X866543Y589978D01*
X866715Y589728D01*
X866775Y589430D01*
X866775Y543649D01*
X866728Y543385D01*
X866569Y543127D01*
X866321Y542952D01*
G37*
%LPC*%
G36*
X844360Y557462D02*
X853138Y557462D01*
X853138Y566240D01*
X845848Y566240D01*
X844360Y564752D01*
X844360Y557462D01*
G37*
G36*
X854662Y557462D02*
X863440Y557462D01*
X863440Y564752D01*
X861952Y566240D01*
X854662Y566240D01*
X854662Y557462D01*
G37*
%LPD*%
G36*
X228346Y580217D02*
X228050Y580152D01*
X227752Y580207D01*
X227499Y580375D01*
X220568Y587306D01*
X220405Y587548D01*
X220345Y587845D01*
X220345Y598335D01*
X220401Y598621D01*
X220568Y598874D01*
X222816Y601122D01*
X223058Y601285D01*
X223355Y601345D01*
X229308Y601345D01*
X229583Y601294D01*
X229838Y601130D01*
X230010Y600880D01*
X230066Y600601D01*
X230131Y600506D01*
X230196Y600210D01*
X230141Y599912D01*
X229973Y599659D01*
X228800Y598486D01*
X228800Y596062D01*
X237182Y596062D01*
X237182Y594538D01*
X228800Y594538D01*
X228800Y592114D01*
X229973Y590941D01*
X230131Y590710D01*
X230196Y590414D01*
X230141Y590116D01*
X230070Y590009D01*
X230070Y584640D01*
X230073Y584637D01*
X230231Y584406D01*
X230296Y584110D01*
X230241Y583812D01*
X230073Y583559D01*
X228800Y582286D01*
X228800Y580914D01*
X228753Y580650D01*
X228594Y580392D01*
X228346Y580217D01*
G37*
G36*
X308819Y187385D02*
X308521Y187325D01*
X112865Y187325D01*
X112579Y187381D01*
X112326Y187548D01*
X87110Y212764D01*
X86950Y213000D01*
X86887Y213296D01*
X86945Y213594D01*
X88670Y217758D01*
X88670Y222242D01*
X86954Y226384D01*
X83784Y229554D01*
X79642Y231270D01*
X75158Y231270D01*
X70994Y229545D01*
X70715Y229487D01*
X70417Y229543D01*
X70164Y229710D01*
X-30892Y330766D01*
X-31055Y331008D01*
X-31115Y331305D01*
X-31115Y518778D01*
X-31064Y519053D01*
X-30900Y519308D01*
X-30650Y519480D01*
X-30353Y519540D01*
X-26402Y519540D01*
X-26402Y539620D01*
X-30353Y539620D01*
X-30628Y539671D01*
X-30883Y539835D01*
X-31055Y540085D01*
X-31115Y540382D01*
X-31115Y542455D01*
X-31059Y542741D01*
X-30892Y542994D01*
X-24765Y549121D01*
X-24765Y570141D01*
X-24718Y570405D01*
X-24559Y570663D01*
X-24311Y570838D01*
X-24015Y570903D01*
X-23717Y570848D01*
X-23464Y570680D01*
X-16098Y563314D01*
X-15935Y563073D01*
X-15875Y562775D01*
X-15875Y539112D01*
X-15926Y538837D01*
X-16090Y538582D01*
X-16340Y538410D01*
X-16637Y538350D01*
X-18018Y538350D01*
X-18084Y538305D01*
X-18380Y538240D01*
X-18678Y538295D01*
X-18931Y538463D01*
X-20088Y539620D01*
X-24878Y539620D01*
X-24878Y519540D01*
X-20088Y519540D01*
X-18931Y520697D01*
X-18700Y520855D01*
X-18404Y520920D01*
X-18106Y520865D01*
X-18024Y520810D01*
X-9470Y520810D01*
X-9184Y520754D01*
X-8931Y520587D01*
X-7565Y519221D01*
X-7402Y518980D01*
X-7342Y518682D01*
X-7342Y516697D01*
X-5273Y514628D01*
X-2347Y514628D01*
X-278Y516697D01*
X-278Y519672D01*
X-317Y519729D01*
X-387Y520024D01*
X-336Y520323D01*
X-173Y520578D01*
X77Y520750D01*
X375Y520810D01*
X4786Y520810D01*
X5571Y521595D01*
X5802Y521753D01*
X6098Y521818D01*
X6396Y521763D01*
X6649Y521595D01*
X7434Y520810D01*
X10033Y520810D01*
X10308Y520759D01*
X10563Y520595D01*
X10735Y520345D01*
X10795Y520048D01*
X10795Y486891D01*
X309060Y188626D01*
X309213Y188406D01*
X309283Y188111D01*
X309232Y187812D01*
X309069Y187557D01*
X308819Y187385D01*
G37*
%LPC*%
G36*
X121958Y206930D02*
X126442Y206930D01*
X130584Y208646D01*
X133754Y211816D01*
X135470Y215958D01*
X135470Y220442D01*
X133754Y224584D01*
X130584Y227754D01*
X126442Y229470D01*
X121958Y229470D01*
X117816Y227754D01*
X117732Y227670D01*
X117501Y227512D01*
X117205Y227447D01*
X116907Y227502D01*
X116654Y227670D01*
X105355Y238969D01*
X105192Y239211D01*
X105132Y239508D01*
X105132Y241493D01*
X103063Y243562D01*
X100137Y243562D01*
X98068Y241493D01*
X98068Y238567D01*
X100137Y236498D01*
X102122Y236498D01*
X102408Y236442D01*
X102661Y236275D01*
X114200Y224736D01*
X114360Y224500D01*
X114423Y224204D01*
X114365Y223906D01*
X112930Y220442D01*
X112930Y215958D01*
X114646Y211816D01*
X117816Y208646D01*
X121958Y206930D01*
G37*
%LPD*%
G36*
X518948Y135315D02*
X518650Y135255D01*
X78575Y135255D01*
X78289Y135311D01*
X78036Y135478D01*
X-707Y214221D01*
X-868Y214457D01*
X-930Y214754D01*
X-872Y215052D01*
X870Y219258D01*
X870Y223742D01*
X-846Y227884D01*
X-4016Y231054D01*
X-7785Y232615D01*
X-8023Y232772D01*
X-8195Y233022D01*
X-8255Y233319D01*
X-8255Y297584D01*
X-8199Y297870D01*
X-8032Y298123D01*
X-6522Y299633D01*
X-6422Y299796D01*
X-6174Y299971D01*
X-5878Y300036D01*
X-5580Y299981D01*
X-5327Y299813D01*
X67561Y226925D01*
X67721Y226689D01*
X67784Y226392D01*
X67726Y226095D01*
X66890Y224075D01*
X66741Y223846D01*
X66494Y223670D01*
X66198Y223605D01*
X65900Y223661D01*
X65647Y223828D01*
X64963Y224512D01*
X62037Y224512D01*
X60633Y223108D01*
X60392Y222945D01*
X60094Y222885D01*
X45930Y222885D01*
X45650Y222938D01*
X45395Y223104D01*
X45226Y223355D01*
X44054Y226184D01*
X40884Y229354D01*
X36742Y231070D01*
X32258Y231070D01*
X28116Y229354D01*
X24946Y226184D01*
X23230Y222042D01*
X23230Y217558D01*
X24946Y213416D01*
X28116Y210246D01*
X32258Y208530D01*
X36742Y208530D01*
X40884Y210246D01*
X44054Y213416D01*
X45770Y217558D01*
X45770Y218313D01*
X45821Y218588D01*
X45985Y218843D01*
X46235Y219015D01*
X46532Y219075D01*
X60094Y219075D01*
X60380Y219019D01*
X60633Y218852D01*
X62037Y217448D01*
X64963Y217448D01*
X65073Y217558D01*
X65298Y217713D01*
X65593Y217781D01*
X65892Y217727D01*
X66146Y217562D01*
X66315Y217310D01*
X67846Y213616D01*
X71016Y210446D01*
X75158Y208730D01*
X79642Y208730D01*
X83495Y210326D01*
X83774Y210384D01*
X84072Y210328D01*
X84325Y210161D01*
X110971Y183515D01*
X539915Y183515D01*
X540201Y183459D01*
X540454Y183292D01*
X541113Y182633D01*
X541266Y182413D01*
X541336Y182118D01*
X541285Y181819D01*
X541122Y181564D01*
X540922Y181427D01*
X538758Y179263D01*
X538758Y176337D01*
X538824Y176271D01*
X538977Y176051D01*
X539047Y175756D01*
X538996Y175457D01*
X538833Y175202D01*
X538583Y175030D01*
X538285Y174970D01*
X538074Y174970D01*
X537330Y174226D01*
X537330Y165704D01*
X537283Y165440D01*
X537124Y165182D01*
X536876Y165007D01*
X536580Y164942D01*
X536282Y164997D01*
X536029Y165165D01*
X534093Y167101D01*
X533930Y167343D01*
X533870Y167640D01*
X533870Y174226D01*
X533126Y174970D01*
X525074Y174970D01*
X524330Y174226D01*
X524330Y164174D01*
X525074Y163430D01*
X532060Y163430D01*
X532346Y163374D01*
X532599Y163207D01*
X538834Y156972D01*
X538987Y156752D01*
X539057Y156457D01*
X539006Y156158D01*
X538843Y155903D01*
X538593Y155731D01*
X538295Y155671D01*
X535484Y155671D01*
X535310Y155633D01*
X535012Y155688D01*
X534759Y155856D01*
X533674Y156941D01*
X527542Y156941D01*
X527542Y145638D01*
X518398Y145638D01*
X518398Y137347D01*
X519189Y136556D01*
X519342Y136336D01*
X519412Y136041D01*
X519361Y135742D01*
X519198Y135487D01*
X518948Y135315D01*
G37*
%LPC*%
G36*
X518398Y147162D02*
X526018Y147162D01*
X526018Y156941D01*
X519886Y156941D01*
X518398Y155453D01*
X518398Y147162D01*
G37*
%LPD*%
G36*
X794508Y197377D02*
X794212Y197312D01*
X793914Y197367D01*
X793759Y197470D01*
X789644Y197470D01*
X789508Y197377D01*
X789212Y197312D01*
X788914Y197367D01*
X788759Y197470D01*
X785965Y197470D01*
X785701Y197517D01*
X785443Y197676D01*
X785268Y197924D01*
X785203Y198220D01*
X785258Y198518D01*
X785426Y198771D01*
X785852Y199197D01*
X785852Y202123D01*
X783783Y204192D01*
X780857Y204192D01*
X779176Y202511D01*
X778956Y202358D01*
X778661Y202288D01*
X778362Y202339D01*
X778107Y202502D01*
X777935Y202752D01*
X777875Y203050D01*
X777875Y220499D01*
X767025Y231349D01*
X766862Y231591D01*
X766802Y231888D01*
X766802Y233873D01*
X766391Y234284D01*
X766238Y234504D01*
X766168Y234799D01*
X766219Y235098D01*
X766382Y235353D01*
X766632Y235525D01*
X766930Y235585D01*
X774219Y235585D01*
X779141Y240507D01*
X779383Y240670D01*
X779680Y240730D01*
X786626Y240730D01*
X787370Y241474D01*
X787370Y249526D01*
X786626Y250270D01*
X776574Y250270D01*
X775830Y249526D01*
X775830Y242900D01*
X775774Y242614D01*
X775607Y242361D01*
X772864Y239618D01*
X772623Y239455D01*
X772325Y239395D01*
X743816Y239395D01*
X743530Y239451D01*
X743277Y239618D01*
X742684Y240211D01*
X742526Y240441D01*
X742461Y240737D01*
X742517Y241035D01*
X742684Y241288D01*
X743470Y242074D01*
X743470Y250126D01*
X742726Y250870D01*
X736390Y250870D01*
X736104Y250926D01*
X735851Y251093D01*
X735185Y251759D01*
X735032Y251979D01*
X734962Y252274D01*
X735013Y252573D01*
X735176Y252828D01*
X735427Y253000D01*
X735724Y253060D01*
X736938Y253060D01*
X736938Y265140D01*
X732280Y265140D01*
X731994Y265196D01*
X731741Y265363D01*
X725990Y271114D01*
X725837Y271334D01*
X725767Y271629D01*
X725818Y271928D01*
X725981Y272183D01*
X726232Y272355D01*
X726529Y272415D01*
X732955Y272415D01*
X733241Y272359D01*
X733494Y272192D01*
X739245Y266441D01*
X739398Y266221D01*
X739468Y265926D01*
X739417Y265627D01*
X739254Y265372D01*
X739004Y265200D01*
X738706Y265140D01*
X738462Y265140D01*
X738462Y253060D01*
X743420Y253060D01*
X743706Y253004D01*
X743959Y252837D01*
X746707Y250089D01*
X746870Y249848D01*
X746930Y249550D01*
X746930Y241874D01*
X747674Y241130D01*
X757726Y241130D01*
X758470Y241874D01*
X758470Y249926D01*
X757726Y250670D01*
X751830Y250670D01*
X751544Y250726D01*
X751291Y250893D01*
X750625Y251559D01*
X750472Y251779D01*
X750402Y252074D01*
X750453Y252373D01*
X750616Y252628D01*
X750867Y252800D01*
X751164Y252860D01*
X751938Y252860D01*
X751938Y264940D01*
X747133Y264940D01*
X746949Y264814D01*
X746653Y264749D01*
X746355Y264804D01*
X746102Y264972D01*
X736150Y274924D01*
X735997Y275144D01*
X735927Y275439D01*
X735978Y275738D01*
X736141Y275993D01*
X736392Y276165D01*
X736689Y276225D01*
X771040Y276225D01*
X771304Y276178D01*
X771562Y276019D01*
X771737Y275771D01*
X771802Y275475D01*
X771747Y275177D01*
X771579Y274924D01*
X771168Y274513D01*
X771168Y271587D01*
X773237Y269518D01*
X776163Y269518D01*
X777217Y270572D01*
X777447Y270730D01*
X777743Y270795D01*
X778041Y270739D01*
X778294Y270572D01*
X783025Y265841D01*
X783178Y265621D01*
X783248Y265326D01*
X783197Y265027D01*
X783034Y264772D01*
X782784Y264600D01*
X782486Y264540D01*
X782362Y264540D01*
X782362Y259262D01*
X789021Y259262D01*
X789021Y259032D01*
X789094Y259083D01*
X789390Y259148D01*
X789688Y259093D01*
X789941Y258925D01*
X799242Y249624D01*
X799405Y249383D01*
X799465Y249085D01*
X799465Y198232D01*
X799414Y197957D01*
X799250Y197702D01*
X799000Y197530D01*
X798703Y197470D01*
X794644Y197470D01*
X794508Y197377D01*
G37*
%LPC*%
G36*
X761574Y241030D02*
X771626Y241030D01*
X772370Y241774D01*
X772370Y248660D01*
X772426Y248946D01*
X772593Y249199D01*
X775421Y252027D01*
X775550Y252228D01*
X775800Y252400D01*
X776097Y252460D01*
X780838Y252460D01*
X780838Y264540D01*
X776048Y264540D01*
X775800Y264292D01*
X775569Y264134D01*
X775273Y264069D01*
X774975Y264124D01*
X774722Y264292D01*
X770409Y268605D01*
X767946Y268605D01*
X767660Y268661D01*
X767407Y268828D01*
X766003Y270232D01*
X763077Y270232D01*
X761008Y268163D01*
X761008Y265116D01*
X760952Y264830D01*
X760785Y264577D01*
X760239Y264031D01*
X760008Y263873D01*
X759712Y263808D01*
X759414Y263863D01*
X759161Y264031D01*
X758252Y264940D01*
X753462Y264940D01*
X753462Y252860D01*
X758252Y252860D01*
X759061Y253669D01*
X759292Y253827D01*
X759588Y253892D01*
X759886Y253837D01*
X760139Y253669D01*
X761048Y252760D01*
X765838Y252760D01*
X765838Y259562D01*
X767362Y259562D01*
X767362Y252760D01*
X768926Y252760D01*
X769190Y252713D01*
X769448Y252554D01*
X769623Y252306D01*
X769688Y252010D01*
X769633Y251712D01*
X769465Y251459D01*
X768799Y250793D01*
X768558Y250630D01*
X768260Y250570D01*
X761574Y250570D01*
X760830Y249826D01*
X760830Y241774D01*
X761574Y241030D01*
G37*
G36*
X782362Y252460D02*
X787152Y252460D01*
X788640Y253948D01*
X788640Y257738D01*
X782362Y257738D01*
X782362Y252460D01*
G37*
%LPD*%
G36*
X699951Y221403D02*
X699655Y221338D01*
X699357Y221393D01*
X699104Y221561D01*
X698693Y221972D01*
X696708Y221972D01*
X696422Y222028D01*
X696169Y222195D01*
X679405Y238959D01*
X679252Y239179D01*
X679182Y239474D01*
X679233Y239773D01*
X679396Y240028D01*
X679647Y240200D01*
X679944Y240260D01*
X681238Y240260D01*
X681238Y252340D01*
X679784Y252340D01*
X679520Y252387D01*
X679262Y252546D01*
X679087Y252794D01*
X679022Y253090D01*
X679077Y253388D01*
X679245Y253641D01*
X679911Y254307D01*
X680153Y254470D01*
X680450Y254530D01*
X687026Y254530D01*
X687759Y255263D01*
X687979Y255416D01*
X688274Y255486D01*
X688573Y255435D01*
X688828Y255272D01*
X689000Y255022D01*
X689060Y254724D01*
X689060Y254348D01*
X689528Y253880D01*
X689686Y253649D01*
X689751Y253353D01*
X689696Y253055D01*
X689528Y252802D01*
X688848Y252122D01*
X688617Y251964D01*
X688321Y251899D01*
X688023Y251954D01*
X687770Y252122D01*
X687552Y252340D01*
X682762Y252340D01*
X682762Y240260D01*
X687640Y240260D01*
X687926Y240204D01*
X688179Y240037D01*
X700182Y228034D01*
X700345Y227793D01*
X700405Y227495D01*
X700405Y222100D01*
X700358Y221836D01*
X700199Y221578D01*
X699951Y221403D01*
G37*
G36*
X737160Y332208D02*
X737160Y322130D01*
X716840Y322130D01*
X716840Y375470D01*
X737160Y375470D01*
X737160Y365392D01*
X734556Y363692D01*
X731838Y361462D01*
X729611Y358748D01*
X727957Y355652D01*
X726941Y352302D01*
X727127Y348800D01*
X726941Y345298D01*
X727957Y341948D01*
X729611Y338852D01*
X731838Y336138D01*
X734556Y333908D01*
X737160Y332208D01*
G37*
G36*
X737160Y332208D02*
X737160Y322130D01*
X716840Y322130D01*
X716840Y375470D01*
X737160Y375470D01*
X737160Y365392D01*
X734556Y363692D01*
X731838Y361462D01*
X729611Y358748D01*
X727957Y355652D01*
X726941Y352302D01*
X727127Y348800D01*
X726941Y345298D01*
X727957Y341948D01*
X729611Y338852D01*
X731838Y336138D01*
X734556Y333908D01*
X737160Y332208D01*
G37*
G36*
X772160Y375470D02*
X772160Y322130D01*
X751840Y322130D01*
X751840Y332208D01*
X754444Y333908D01*
X757162Y336138D01*
X759389Y338852D01*
X761043Y341948D01*
X762059Y345298D01*
X761873Y348800D01*
X762059Y352302D01*
X761043Y355652D01*
X759389Y358748D01*
X757162Y361462D01*
X754444Y363692D01*
X751840Y365392D01*
X751840Y375470D01*
X772160Y375470D01*
G37*
G36*
X772160Y375470D02*
X772160Y322130D01*
X751840Y322130D01*
X751840Y332208D01*
X754444Y333908D01*
X757162Y336138D01*
X759389Y338852D01*
X761043Y341948D01*
X762059Y345298D01*
X761873Y348800D01*
X762059Y352302D01*
X761043Y355652D01*
X759389Y358748D01*
X757162Y361462D01*
X754444Y363692D01*
X751840Y365392D01*
X751840Y375470D01*
X772160Y375470D01*
G37*
D10*
X1422800Y545200D03*
X1422800Y535700D03*
X1422800Y526200D03*
X1447800Y526200D03*
X1447800Y535700D03*
X1447800Y545200D03*
D11*
X1264800Y497400D03*
X1264800Y518400D03*
D12*
X1532960Y551400D03*
X1532860Y560100D03*
X1532960Y575600D03*
X1532960Y585600D03*
X1532960Y590600D03*
X1532960Y600600D03*
X1532960Y613600D03*
X1532960Y621600D03*
X1532960Y618600D03*
X1532960Y610600D03*
X1532960Y605600D03*
X1532960Y595600D03*
X1532960Y580600D03*
X1532960Y570600D03*
X1532960Y565400D03*
X1532960Y554500D03*
D13*
X1580210Y536900D03*
X1580210Y639100D03*
X1540910Y536900D03*
X1540910Y639100D03*
D11*
X660700Y309800D03*
X660700Y290800D03*
X681700Y300300D03*
D14*
X1163600Y487824D03*
X1163600Y532824D03*
D15*
X1434400Y492300D03*
X1447400Y492300D03*
X1434600Y505000D03*
X1447600Y505000D03*
X701700Y295100D03*
X714700Y295100D03*
G36*
X652304Y299207D02*
X652317Y292208D01*
X643318Y292193D01*
X643305Y299192D01*
X652304Y299207D01*
G37*
G36*
X652282Y312207D02*
X652295Y305208D01*
X643296Y305193D01*
X643283Y312192D01*
X652282Y312207D01*
G37*
D16*
X634500Y295900D03*
X634500Y308900D03*
D17*
X1207800Y521300D03*
X1207800Y511800D03*
X1207800Y502300D03*
X1235800Y502300D03*
X1235800Y521300D03*
D18*
X1416400Y450500D03*
X1446400Y450500D03*
D19*
X60740Y903000D03*
X60740Y960000D03*
D20*
X-81760Y873000D03*
X-71760Y1004500D03*
D21*
X-43260Y921000D03*
X-39260Y932000D03*
X-43260Y943000D03*
X-45260Y954000D03*
X-43260Y965000D03*
X-45260Y976000D03*
X-43260Y987000D03*
X-43260Y998000D03*
D19*
X60740Y931500D03*
X60740Y988500D03*
D15*
X30100Y1039700D03*
X43100Y1039700D03*
D22*
X526780Y146400D03*
X542020Y146400D03*
D16*
X563900Y143800D03*
X563900Y156800D03*
X6100Y1048000D03*
X6100Y1061000D03*
D15*
G36*
X871635Y358554D02*
X871721Y351556D01*
X862723Y351446D01*
X862637Y358444D01*
X871635Y358554D01*
G37*
G36*
X871477Y371554D02*
X871563Y364556D01*
X862565Y364446D01*
X862479Y371444D01*
X871477Y371554D01*
G37*
D23*
X806700Y357100D03*
X841700Y357100D03*
X806700Y321300D03*
X841700Y321300D03*
X726200Y405100D03*
X761200Y405100D03*
D15*
X572100Y203600D03*
X585100Y203600D03*
D24*
X536100Y208300D03*
X549100Y208300D03*
X542600Y229300D03*
D15*
X529100Y169200D03*
X542100Y169200D03*
D25*
X1226501Y593600D03*
X1226501Y603100D03*
X1226501Y612600D03*
X1200499Y612600D03*
X1200499Y593600D03*
D16*
X1197100Y562700D03*
X1197100Y575700D03*
D15*
X1124500Y612800D03*
X1137500Y612800D03*
D26*
X721640Y348800D03*
X767360Y348800D03*
D27*
X1178900Y612700D03*
X1163900Y612700D03*
D15*
X1160600Y594900D03*
X1173600Y594900D03*
X1127100Y466000D03*
X1140100Y466000D03*
D28*
X-25640Y529580D03*
X-12940Y529580D03*
X-240Y529580D03*
X12460Y529580D03*
X25160Y529580D03*
X37860Y529580D03*
X50560Y529580D03*
X63260Y529580D03*
X75960Y529580D03*
X88660Y529580D03*
X101360Y529580D03*
X114060Y529580D03*
X126760Y529580D03*
X139460Y529580D03*
X139460Y704580D03*
X126760Y704580D03*
X114060Y704580D03*
X101360Y704580D03*
X88660Y704580D03*
X75960Y704580D03*
X63260Y704580D03*
X50560Y704580D03*
X37860Y704580D03*
X25160Y704580D03*
X12460Y704580D03*
X-240Y704580D03*
X-12940Y704580D03*
X-25640Y704580D03*
D27*
X31560Y602030D03*
X19060Y589530D03*
X19060Y602030D03*
X19060Y614530D03*
X31560Y589530D03*
X31560Y614530D03*
X44060Y589530D03*
X44060Y602030D03*
X44060Y614530D03*
D16*
X90700Y461600D03*
X90700Y474600D03*
D29*
X796700Y192200D03*
X791700Y192200D03*
X786700Y192200D03*
X781700Y192200D03*
X776700Y192200D03*
X771700Y192200D03*
X766700Y192200D03*
X761700Y192200D03*
X756700Y192200D03*
X751700Y192200D03*
X746700Y192200D03*
X741700Y192200D03*
X736700Y192200D03*
X731700Y192200D03*
X726700Y192200D03*
X721700Y192200D03*
X716700Y192200D03*
X711700Y192200D03*
X706700Y192200D03*
X701700Y192200D03*
X696700Y192200D03*
X691700Y192200D03*
X686700Y192200D03*
X681700Y192200D03*
D30*
X806700Y167200D03*
X671700Y167200D03*
D16*
X781600Y245500D03*
X781600Y258500D03*
X752700Y245900D03*
X752700Y258900D03*
X766600Y245800D03*
X766600Y258800D03*
X737700Y246100D03*
X737700Y259100D03*
X723000Y245600D03*
X723000Y258600D03*
X709300Y245800D03*
X709300Y258800D03*
X696100Y245900D03*
X696100Y258900D03*
X682000Y246300D03*
X682000Y259300D03*
D15*
G36*
X577320Y240631D02*
X577369Y233632D01*
X568370Y233569D01*
X568321Y240568D01*
X577320Y240631D01*
G37*
G36*
X577230Y253631D02*
X577279Y246632D01*
X568280Y246569D01*
X568231Y253568D01*
X577230Y253631D01*
G37*
D16*
X586600Y237200D03*
X586600Y250200D03*
D31*
X1260300Y564500D03*
X1279300Y564500D03*
X1269800Y585500D03*
D16*
X1276800Y606400D03*
X1276800Y619400D03*
D32*
X270035Y601425D02*
X261125Y601425D01*
X261125Y605175D01*
X270035Y605175D01*
X270035Y601425D01*
X270035Y602612D02*
X261125Y602612D01*
X261125Y603799D02*
X270035Y603799D01*
X270035Y604986D02*
X261125Y604986D01*
X261125Y593425D02*
X270035Y593425D01*
X261125Y593425D02*
X261125Y597175D01*
X270035Y597175D01*
X270035Y593425D01*
X270035Y594612D02*
X261125Y594612D01*
X261125Y595799D02*
X270035Y595799D01*
X270035Y596986D02*
X261125Y596986D01*
X261125Y585425D02*
X270035Y585425D01*
X261125Y585425D02*
X261125Y589175D01*
X270035Y589175D01*
X270035Y585425D01*
X270035Y586612D02*
X261125Y586612D01*
X261125Y587799D02*
X270035Y587799D01*
X270035Y588986D02*
X261125Y588986D01*
X261125Y577425D02*
X270035Y577425D01*
X261125Y577425D02*
X261125Y581175D01*
X270035Y581175D01*
X270035Y577425D01*
X270035Y578612D02*
X261125Y578612D01*
X261125Y579799D02*
X270035Y579799D01*
X270035Y580986D02*
X261125Y580986D01*
X240875Y577225D02*
X231965Y577225D01*
X231965Y580975D01*
X240875Y580975D01*
X240875Y577225D01*
X240875Y578412D02*
X231965Y578412D01*
X231965Y579599D02*
X240875Y579599D01*
X240875Y580786D02*
X231965Y580786D01*
X231965Y585425D02*
X240875Y585425D01*
X231965Y585425D02*
X231965Y589175D01*
X240875Y589175D01*
X240875Y585425D01*
X240875Y586612D02*
X231965Y586612D01*
X231965Y587799D02*
X240875Y587799D01*
X240875Y588986D02*
X231965Y588986D01*
X231965Y593425D02*
X240875Y593425D01*
X231965Y593425D02*
X231965Y597175D01*
X240875Y597175D01*
X240875Y593425D01*
X240875Y594612D02*
X231965Y594612D01*
X231965Y595799D02*
X240875Y595799D01*
X240875Y596986D02*
X231965Y596986D01*
X231965Y601425D02*
X240875Y601425D01*
X231965Y601425D02*
X231965Y605175D01*
X240875Y605175D01*
X240875Y601425D01*
X240875Y602612D02*
X231965Y602612D01*
X231965Y603799D02*
X240875Y603799D01*
X240875Y604986D02*
X231965Y604986D01*
D16*
X230300Y519400D03*
X230300Y532400D03*
X255100Y363800D03*
X255100Y376800D03*
X270200Y376700D03*
X270200Y363700D03*
X284300Y363500D03*
X284300Y376500D03*
D17*
X393300Y1077000D03*
X393300Y1067500D03*
X393300Y1058000D03*
X421300Y1058000D03*
X421300Y1077000D03*
D16*
X450000Y1060400D03*
X450000Y1073400D03*
X103600Y1110578D03*
X103600Y1123578D03*
D33*
X155799Y1128936D03*
X120799Y1128936D03*
X120799Y1113936D03*
X155799Y1113936D03*
D16*
X177890Y1110508D03*
X177890Y1123508D03*
D33*
X556200Y1129552D03*
X521200Y1129552D03*
X521200Y1114552D03*
X556200Y1114552D03*
D16*
X574694Y1110127D03*
X574694Y1123127D03*
X504196Y1110194D03*
X504196Y1123194D03*
D33*
X406000Y1129696D03*
X371000Y1129696D03*
X371000Y1114696D03*
X406000Y1114696D03*
D16*
X425684Y1110270D03*
X425684Y1123270D03*
X347087Y1110345D03*
X347087Y1123345D03*
D34*
X1320287Y611813D02*
X1327213Y611813D01*
X1327213Y609787D01*
X1320287Y609787D01*
X1320287Y611813D01*
X1320287Y610428D02*
X1327213Y610428D01*
X1327213Y611069D02*
X1320287Y611069D01*
X1320287Y611710D02*
X1327213Y611710D01*
X1327213Y616813D02*
X1320287Y616813D01*
X1327213Y616813D02*
X1327213Y614787D01*
X1320287Y614787D01*
X1320287Y616813D01*
X1320287Y615428D02*
X1327213Y615428D01*
X1327213Y616069D02*
X1320287Y616069D01*
X1320287Y616710D02*
X1327213Y616710D01*
X1327213Y621813D02*
X1320287Y621813D01*
X1327213Y621813D02*
X1327213Y619787D01*
X1320287Y619787D01*
X1320287Y621813D01*
X1320287Y620428D02*
X1327213Y620428D01*
X1327213Y621069D02*
X1320287Y621069D01*
X1320287Y621710D02*
X1327213Y621710D01*
X1327213Y626813D02*
X1320287Y626813D01*
X1327213Y626813D02*
X1327213Y624787D01*
X1320287Y624787D01*
X1320287Y626813D01*
X1320287Y625428D02*
X1327213Y625428D01*
X1327213Y626069D02*
X1320287Y626069D01*
X1320287Y626710D02*
X1327213Y626710D01*
X1307513Y626813D02*
X1300587Y626813D01*
X1307513Y626813D02*
X1307513Y624787D01*
X1300587Y624787D01*
X1300587Y626813D01*
X1300587Y625428D02*
X1307513Y625428D01*
X1307513Y626069D02*
X1300587Y626069D01*
X1300587Y626710D02*
X1307513Y626710D01*
X1307513Y621813D02*
X1300587Y621813D01*
X1307513Y621813D02*
X1307513Y619787D01*
X1300587Y619787D01*
X1300587Y621813D01*
X1300587Y620428D02*
X1307513Y620428D01*
X1307513Y621069D02*
X1300587Y621069D01*
X1300587Y621710D02*
X1307513Y621710D01*
X1307513Y616813D02*
X1300587Y616813D01*
X1307513Y616813D02*
X1307513Y614787D01*
X1300587Y614787D01*
X1300587Y616813D01*
X1300587Y615428D02*
X1307513Y615428D01*
X1307513Y616069D02*
X1300587Y616069D01*
X1300587Y616710D02*
X1307513Y616710D01*
X1307513Y611813D02*
X1300587Y611813D01*
X1307513Y611813D02*
X1307513Y609787D01*
X1300587Y609787D01*
X1300587Y611813D01*
X1300587Y610428D02*
X1307513Y610428D01*
X1307513Y611069D02*
X1300587Y611069D01*
X1300587Y611710D02*
X1307513Y611710D01*
D35*
X1313900Y618300D03*
D36*
X791937Y622737D02*
X791937Y641763D01*
X796363Y641763D01*
X796363Y622737D01*
X791937Y622737D01*
X791937Y624138D02*
X796363Y624138D01*
X796363Y625539D02*
X791937Y625539D01*
X791937Y626940D02*
X796363Y626940D01*
X796363Y628341D02*
X791937Y628341D01*
X791937Y629742D02*
X796363Y629742D01*
X796363Y631143D02*
X791937Y631143D01*
X791937Y632544D02*
X796363Y632544D01*
X796363Y633945D02*
X791937Y633945D01*
X791937Y635346D02*
X796363Y635346D01*
X796363Y636747D02*
X791937Y636747D01*
X791937Y638148D02*
X796363Y638148D01*
X796363Y639549D02*
X791937Y639549D01*
X791937Y640950D02*
X796363Y640950D01*
X779237Y641763D02*
X779237Y622737D01*
X779237Y641763D02*
X783663Y641763D01*
X783663Y622737D01*
X779237Y622737D01*
X779237Y624138D02*
X783663Y624138D01*
X783663Y625539D02*
X779237Y625539D01*
X779237Y626940D02*
X783663Y626940D01*
X783663Y628341D02*
X779237Y628341D01*
X779237Y629742D02*
X783663Y629742D01*
X783663Y631143D02*
X779237Y631143D01*
X779237Y632544D02*
X783663Y632544D01*
X783663Y633945D02*
X779237Y633945D01*
X779237Y635346D02*
X783663Y635346D01*
X783663Y636747D02*
X779237Y636747D01*
X779237Y638148D02*
X783663Y638148D01*
X783663Y639549D02*
X779237Y639549D01*
X779237Y640950D02*
X783663Y640950D01*
X766537Y641763D02*
X766537Y622737D01*
X766537Y641763D02*
X770963Y641763D01*
X770963Y622737D01*
X766537Y622737D01*
X766537Y624138D02*
X770963Y624138D01*
X770963Y625539D02*
X766537Y625539D01*
X766537Y626940D02*
X770963Y626940D01*
X770963Y628341D02*
X766537Y628341D01*
X766537Y629742D02*
X770963Y629742D01*
X770963Y631143D02*
X766537Y631143D01*
X766537Y632544D02*
X770963Y632544D01*
X770963Y633945D02*
X766537Y633945D01*
X766537Y635346D02*
X770963Y635346D01*
X770963Y636747D02*
X766537Y636747D01*
X766537Y638148D02*
X770963Y638148D01*
X770963Y639549D02*
X766537Y639549D01*
X766537Y640950D02*
X770963Y640950D01*
X753837Y641763D02*
X753837Y622737D01*
X753837Y641763D02*
X758263Y641763D01*
X758263Y622737D01*
X753837Y622737D01*
X753837Y624138D02*
X758263Y624138D01*
X758263Y625539D02*
X753837Y625539D01*
X753837Y626940D02*
X758263Y626940D01*
X758263Y628341D02*
X753837Y628341D01*
X753837Y629742D02*
X758263Y629742D01*
X758263Y631143D02*
X753837Y631143D01*
X753837Y632544D02*
X758263Y632544D01*
X758263Y633945D02*
X753837Y633945D01*
X753837Y635346D02*
X758263Y635346D01*
X758263Y636747D02*
X753837Y636747D01*
X753837Y638148D02*
X758263Y638148D01*
X758263Y639549D02*
X753837Y639549D01*
X753837Y640950D02*
X758263Y640950D01*
X741137Y641763D02*
X741137Y622737D01*
X741137Y641763D02*
X745563Y641763D01*
X745563Y622737D01*
X741137Y622737D01*
X741137Y624138D02*
X745563Y624138D01*
X745563Y625539D02*
X741137Y625539D01*
X741137Y626940D02*
X745563Y626940D01*
X745563Y628341D02*
X741137Y628341D01*
X741137Y629742D02*
X745563Y629742D01*
X745563Y631143D02*
X741137Y631143D01*
X741137Y632544D02*
X745563Y632544D01*
X745563Y633945D02*
X741137Y633945D01*
X741137Y635346D02*
X745563Y635346D01*
X745563Y636747D02*
X741137Y636747D01*
X741137Y638148D02*
X745563Y638148D01*
X745563Y639549D02*
X741137Y639549D01*
X741137Y640950D02*
X745563Y640950D01*
X728437Y641763D02*
X728437Y622737D01*
X728437Y641763D02*
X732863Y641763D01*
X732863Y622737D01*
X728437Y622737D01*
X728437Y624138D02*
X732863Y624138D01*
X732863Y625539D02*
X728437Y625539D01*
X728437Y626940D02*
X732863Y626940D01*
X732863Y628341D02*
X728437Y628341D01*
X728437Y629742D02*
X732863Y629742D01*
X732863Y631143D02*
X728437Y631143D01*
X728437Y632544D02*
X732863Y632544D01*
X732863Y633945D02*
X728437Y633945D01*
X728437Y635346D02*
X732863Y635346D01*
X732863Y636747D02*
X728437Y636747D01*
X728437Y638148D02*
X732863Y638148D01*
X732863Y639549D02*
X728437Y639549D01*
X728437Y640950D02*
X732863Y640950D01*
X715737Y641763D02*
X715737Y622737D01*
X715737Y641763D02*
X720163Y641763D01*
X720163Y622737D01*
X715737Y622737D01*
X715737Y624138D02*
X720163Y624138D01*
X720163Y625539D02*
X715737Y625539D01*
X715737Y626940D02*
X720163Y626940D01*
X720163Y628341D02*
X715737Y628341D01*
X715737Y629742D02*
X720163Y629742D01*
X720163Y631143D02*
X715737Y631143D01*
X715737Y632544D02*
X720163Y632544D01*
X720163Y633945D02*
X715737Y633945D01*
X715737Y635346D02*
X720163Y635346D01*
X720163Y636747D02*
X715737Y636747D01*
X715737Y638148D02*
X720163Y638148D01*
X720163Y639549D02*
X715737Y639549D01*
X715737Y640950D02*
X720163Y640950D01*
X703037Y641763D02*
X703037Y622737D01*
X703037Y641763D02*
X707463Y641763D01*
X707463Y622737D01*
X703037Y622737D01*
X703037Y624138D02*
X707463Y624138D01*
X707463Y625539D02*
X703037Y625539D01*
X703037Y626940D02*
X707463Y626940D01*
X707463Y628341D02*
X703037Y628341D01*
X703037Y629742D02*
X707463Y629742D01*
X707463Y631143D02*
X703037Y631143D01*
X703037Y632544D02*
X707463Y632544D01*
X707463Y633945D02*
X703037Y633945D01*
X703037Y635346D02*
X707463Y635346D01*
X707463Y636747D02*
X703037Y636747D01*
X703037Y638148D02*
X707463Y638148D01*
X707463Y639549D02*
X703037Y639549D01*
X703037Y640950D02*
X707463Y640950D01*
X703037Y548663D02*
X703037Y529637D01*
X703037Y548663D02*
X707463Y548663D01*
X707463Y529637D01*
X703037Y529637D01*
X703037Y531038D02*
X707463Y531038D01*
X707463Y532439D02*
X703037Y532439D01*
X703037Y533840D02*
X707463Y533840D01*
X707463Y535241D02*
X703037Y535241D01*
X703037Y536642D02*
X707463Y536642D01*
X707463Y538043D02*
X703037Y538043D01*
X703037Y539444D02*
X707463Y539444D01*
X707463Y540845D02*
X703037Y540845D01*
X703037Y542246D02*
X707463Y542246D01*
X707463Y543647D02*
X703037Y543647D01*
X703037Y545048D02*
X707463Y545048D01*
X707463Y546449D02*
X703037Y546449D01*
X703037Y547850D02*
X707463Y547850D01*
X715737Y548663D02*
X715737Y529637D01*
X715737Y548663D02*
X720163Y548663D01*
X720163Y529637D01*
X715737Y529637D01*
X715737Y531038D02*
X720163Y531038D01*
X720163Y532439D02*
X715737Y532439D01*
X715737Y533840D02*
X720163Y533840D01*
X720163Y535241D02*
X715737Y535241D01*
X715737Y536642D02*
X720163Y536642D01*
X720163Y538043D02*
X715737Y538043D01*
X715737Y539444D02*
X720163Y539444D01*
X720163Y540845D02*
X715737Y540845D01*
X715737Y542246D02*
X720163Y542246D01*
X720163Y543647D02*
X715737Y543647D01*
X715737Y545048D02*
X720163Y545048D01*
X720163Y546449D02*
X715737Y546449D01*
X715737Y547850D02*
X720163Y547850D01*
X728437Y548663D02*
X728437Y529637D01*
X728437Y548663D02*
X732863Y548663D01*
X732863Y529637D01*
X728437Y529637D01*
X728437Y531038D02*
X732863Y531038D01*
X732863Y532439D02*
X728437Y532439D01*
X728437Y533840D02*
X732863Y533840D01*
X732863Y535241D02*
X728437Y535241D01*
X728437Y536642D02*
X732863Y536642D01*
X732863Y538043D02*
X728437Y538043D01*
X728437Y539444D02*
X732863Y539444D01*
X732863Y540845D02*
X728437Y540845D01*
X728437Y542246D02*
X732863Y542246D01*
X732863Y543647D02*
X728437Y543647D01*
X728437Y545048D02*
X732863Y545048D01*
X732863Y546449D02*
X728437Y546449D01*
X728437Y547850D02*
X732863Y547850D01*
X741137Y548663D02*
X741137Y529637D01*
X741137Y548663D02*
X745563Y548663D01*
X745563Y529637D01*
X741137Y529637D01*
X741137Y531038D02*
X745563Y531038D01*
X745563Y532439D02*
X741137Y532439D01*
X741137Y533840D02*
X745563Y533840D01*
X745563Y535241D02*
X741137Y535241D01*
X741137Y536642D02*
X745563Y536642D01*
X745563Y538043D02*
X741137Y538043D01*
X741137Y539444D02*
X745563Y539444D01*
X745563Y540845D02*
X741137Y540845D01*
X741137Y542246D02*
X745563Y542246D01*
X745563Y543647D02*
X741137Y543647D01*
X741137Y545048D02*
X745563Y545048D01*
X745563Y546449D02*
X741137Y546449D01*
X741137Y547850D02*
X745563Y547850D01*
X753837Y548663D02*
X753837Y529637D01*
X753837Y548663D02*
X758263Y548663D01*
X758263Y529637D01*
X753837Y529637D01*
X753837Y531038D02*
X758263Y531038D01*
X758263Y532439D02*
X753837Y532439D01*
X753837Y533840D02*
X758263Y533840D01*
X758263Y535241D02*
X753837Y535241D01*
X753837Y536642D02*
X758263Y536642D01*
X758263Y538043D02*
X753837Y538043D01*
X753837Y539444D02*
X758263Y539444D01*
X758263Y540845D02*
X753837Y540845D01*
X753837Y542246D02*
X758263Y542246D01*
X758263Y543647D02*
X753837Y543647D01*
X753837Y545048D02*
X758263Y545048D01*
X758263Y546449D02*
X753837Y546449D01*
X753837Y547850D02*
X758263Y547850D01*
X766537Y548663D02*
X766537Y529637D01*
X766537Y548663D02*
X770963Y548663D01*
X770963Y529637D01*
X766537Y529637D01*
X766537Y531038D02*
X770963Y531038D01*
X770963Y532439D02*
X766537Y532439D01*
X766537Y533840D02*
X770963Y533840D01*
X770963Y535241D02*
X766537Y535241D01*
X766537Y536642D02*
X770963Y536642D01*
X770963Y538043D02*
X766537Y538043D01*
X766537Y539444D02*
X770963Y539444D01*
X770963Y540845D02*
X766537Y540845D01*
X766537Y542246D02*
X770963Y542246D01*
X770963Y543647D02*
X766537Y543647D01*
X766537Y545048D02*
X770963Y545048D01*
X770963Y546449D02*
X766537Y546449D01*
X766537Y547850D02*
X770963Y547850D01*
X779237Y548663D02*
X779237Y529637D01*
X779237Y548663D02*
X783663Y548663D01*
X783663Y529637D01*
X779237Y529637D01*
X779237Y531038D02*
X783663Y531038D01*
X783663Y532439D02*
X779237Y532439D01*
X779237Y533840D02*
X783663Y533840D01*
X783663Y535241D02*
X779237Y535241D01*
X779237Y536642D02*
X783663Y536642D01*
X783663Y538043D02*
X779237Y538043D01*
X779237Y539444D02*
X783663Y539444D01*
X783663Y540845D02*
X779237Y540845D01*
X779237Y542246D02*
X783663Y542246D01*
X783663Y543647D02*
X779237Y543647D01*
X779237Y545048D02*
X783663Y545048D01*
X783663Y546449D02*
X779237Y546449D01*
X779237Y547850D02*
X783663Y547850D01*
X791937Y548663D02*
X791937Y529637D01*
X791937Y548663D02*
X796363Y548663D01*
X796363Y529637D01*
X791937Y529637D01*
X791937Y531038D02*
X796363Y531038D01*
X796363Y532439D02*
X791937Y532439D01*
X791937Y533840D02*
X796363Y533840D01*
X796363Y535241D02*
X791937Y535241D01*
X791937Y536642D02*
X796363Y536642D01*
X796363Y538043D02*
X791937Y538043D01*
X791937Y539444D02*
X796363Y539444D01*
X796363Y540845D02*
X791937Y540845D01*
X791937Y542246D02*
X796363Y542246D01*
X796363Y543647D02*
X791937Y543647D01*
X791937Y545048D02*
X796363Y545048D01*
X796363Y546449D02*
X791937Y546449D01*
X791937Y547850D02*
X796363Y547850D01*
D31*
X787300Y671600D03*
X766300Y671600D03*
D15*
G36*
X831963Y537244D02*
X831877Y530246D01*
X822879Y530356D01*
X822965Y537354D01*
X831963Y537244D01*
G37*
G36*
X832121Y550244D02*
X832035Y543246D01*
X823037Y543356D01*
X823123Y550354D01*
X832121Y550244D01*
G37*
X774900Y508200D03*
X787900Y508200D03*
D16*
X832300Y620900D03*
X832300Y633900D03*
D15*
X769000Y654400D03*
X782000Y654400D03*
D37*
X698000Y1082000D03*
X746300Y1082300D03*
X786628Y1080600D03*
X1416600Y689700D03*
X1416600Y644500D03*
X-51200Y221300D03*
X-10400Y221500D03*
X34500Y219800D03*
X77400Y220000D03*
X124200Y218200D03*
X1113500Y98000D03*
X1170600Y96200D03*
X1229800Y94400D03*
X313600Y770700D03*
X365000Y771500D03*
X423800Y769700D03*
X480100Y765500D03*
D38*
X1586840Y210000D03*
X1586840Y266000D03*
D39*
X1550090Y223000D03*
X1550090Y233000D03*
X1550090Y243000D03*
X1550090Y253000D03*
D40*
X245600Y519200D03*
X245600Y534200D03*
X252200Y395800D03*
X252200Y410800D03*
X267800Y395800D03*
X267800Y410800D03*
X283500Y395600D03*
X283500Y410600D03*
D41*
X642300Y259800D03*
X657300Y259800D03*
D40*
X1120000Y502200D03*
X1120000Y517200D03*
D16*
X1101900Y504700D03*
X1101900Y517700D03*
X-16300Y1048500D03*
X-16300Y1061500D03*
X1347900Y143700D03*
X1347900Y156700D03*
X1361500Y143800D03*
X1361500Y156800D03*
X1375200Y143900D03*
X1375200Y156900D03*
X1388650Y143698D03*
X1388650Y156698D03*
D42*
X1339700Y243000D02*
X1331400Y243000D01*
X1331400Y246300D01*
X1339700Y246300D01*
X1339700Y243000D01*
X1339700Y244045D02*
X1331400Y244045D01*
X1331400Y245090D02*
X1339700Y245090D01*
X1339700Y246135D02*
X1331400Y246135D01*
X1331400Y230300D02*
X1339700Y230300D01*
X1331400Y230300D02*
X1331400Y233600D01*
X1339700Y233600D01*
X1339700Y230300D01*
X1339700Y231345D02*
X1331400Y231345D01*
X1331400Y232390D02*
X1339700Y232390D01*
X1339700Y233435D02*
X1331400Y233435D01*
X1331400Y217600D02*
X1339700Y217600D01*
X1331400Y217600D02*
X1331400Y220900D01*
X1339700Y220900D01*
X1339700Y217600D01*
X1339700Y218645D02*
X1331400Y218645D01*
X1331400Y219690D02*
X1339700Y219690D01*
X1339700Y220735D02*
X1331400Y220735D01*
X1331400Y204900D02*
X1339700Y204900D01*
X1331400Y204900D02*
X1331400Y208200D01*
X1339700Y208200D01*
X1339700Y204900D01*
X1339700Y205945D02*
X1331400Y205945D01*
X1331400Y206990D02*
X1339700Y206990D01*
X1339700Y208035D02*
X1331400Y208035D01*
X1409300Y204900D02*
X1417600Y204900D01*
X1409300Y204900D02*
X1409300Y208200D01*
X1417600Y208200D01*
X1417600Y204900D01*
X1417600Y205945D02*
X1409300Y205945D01*
X1409300Y206990D02*
X1417600Y206990D01*
X1417600Y208035D02*
X1409300Y208035D01*
X1409300Y217600D02*
X1417600Y217600D01*
X1409300Y217600D02*
X1409300Y220900D01*
X1417600Y220900D01*
X1417600Y217600D01*
X1417600Y218645D02*
X1409300Y218645D01*
X1409300Y219690D02*
X1417600Y219690D01*
X1417600Y220735D02*
X1409300Y220735D01*
X1409300Y230300D02*
X1417600Y230300D01*
X1409300Y230300D02*
X1409300Y233600D01*
X1417600Y233600D01*
X1417600Y230300D01*
X1417600Y231345D02*
X1409300Y231345D01*
X1409300Y232390D02*
X1417600Y232390D01*
X1417600Y233435D02*
X1409300Y233435D01*
X1409300Y243000D02*
X1417600Y243000D01*
X1409300Y243000D02*
X1409300Y246300D01*
X1417600Y246300D01*
X1417600Y243000D01*
X1417600Y244045D02*
X1409300Y244045D01*
X1409300Y245090D02*
X1417600Y245090D01*
X1417600Y246135D02*
X1409300Y246135D01*
D43*
X1374500Y225600D03*
D44*
X853900Y556700D03*
X853900Y534700D03*
D16*
X1399000Y534900D03*
X1399000Y547900D03*
X1466600Y554000D03*
X1466600Y567000D03*
D45*
X426720Y1120140D02*
X426720Y1122680D01*
X426720Y1120140D02*
X433070Y1113790D01*
X433070Y1106170D01*
X430530Y1103630D01*
X429260Y1103630D02*
X416560Y1103630D01*
X429260Y1103630D02*
X430530Y1103630D01*
X416560Y1103630D02*
X406400Y1113790D01*
X425684Y1123270D02*
X426720Y1122680D01*
X406400Y1113790D02*
X406000Y1114696D01*
X405130Y1115060D02*
X372110Y1115060D01*
X371000Y1114696D01*
X405130Y1115060D02*
X406000Y1114696D01*
X575310Y1122680D02*
X581660Y1116330D01*
X581660Y1106170D01*
X579120Y1103630D01*
X566420Y1103630D01*
X556260Y1113790D01*
X574694Y1123127D02*
X575310Y1122680D01*
X556200Y1114552D02*
X556260Y1113790D01*
X554990Y1115060D02*
X521970Y1115060D01*
X521200Y1114552D01*
X554990Y1115060D02*
X556200Y1114552D01*
X396240Y1059180D02*
X393700Y1059180D01*
X396240Y1059180D02*
X414020Y1076960D01*
X414020Y1080770D01*
X415290Y1082040D01*
X429260Y1082040D02*
X441960Y1082040D01*
X429260Y1082040D02*
X415290Y1082040D01*
X441960Y1082040D02*
X449580Y1074420D01*
X393700Y1059180D02*
X393300Y1058000D01*
X449580Y1074420D02*
X450000Y1073400D01*
X481330Y1074420D02*
X520700Y1113790D01*
X481330Y1074420D02*
X450850Y1074420D01*
X520700Y1113790D02*
X521200Y1114552D01*
X450850Y1074420D02*
X450000Y1073400D01*
X429260Y1099820D02*
X429260Y1103630D01*
X429260Y1083310D02*
X429260Y1082040D01*
X44450Y601980D02*
X44450Y590550D01*
X44060Y589530D01*
X44450Y601980D02*
X44060Y602030D01*
X44450Y603250D02*
X44450Y613410D01*
X44060Y614530D01*
X44450Y603250D02*
X44060Y602030D01*
X30480Y614680D02*
X20320Y614680D01*
X19060Y614530D01*
X30480Y614680D02*
X31560Y614530D01*
X30480Y590550D02*
X20320Y590550D01*
X19060Y589530D01*
X30480Y590550D02*
X31560Y589530D01*
X30480Y601980D02*
X20320Y601980D01*
X19060Y602030D01*
X30480Y601980D02*
X31560Y602030D01*
X19050Y601980D02*
X19050Y590550D01*
X19060Y589530D01*
X19050Y601980D02*
X19060Y602030D01*
X19050Y603250D02*
X19050Y613410D01*
X19060Y614530D01*
X19050Y603250D02*
X19060Y602030D01*
X-25400Y544830D02*
X-25400Y529590D01*
X11430Y581660D02*
X19050Y589280D01*
X-25400Y529590D02*
X-25640Y529580D01*
X19050Y589280D02*
X19060Y589530D01*
X-25400Y685800D02*
X-25400Y703580D01*
X-25400Y685800D02*
X19050Y641350D01*
X19050Y614680D01*
X-25400Y703580D02*
X-25640Y704580D01*
X19050Y614680D02*
X19060Y614530D01*
X31750Y614680D02*
X43180Y614680D01*
X44060Y614530D01*
X31750Y614680D02*
X31560Y614530D01*
X-45720Y976630D02*
X-49530Y980440D01*
X-50800Y980440D01*
X-71120Y1000760D01*
X-71120Y1003300D01*
X-71760Y1004500D01*
X-81280Y941070D02*
X-81280Y873760D01*
X-81280Y941070D02*
X-45720Y976630D01*
X-81280Y873760D02*
X-81760Y873000D01*
X-45260Y976000D02*
X-45720Y976630D01*
X168910Y1122680D02*
X177800Y1122680D01*
X168910Y1122680D02*
X161290Y1115060D01*
X156210Y1115060D01*
X177800Y1122680D02*
X177890Y1123508D01*
X156210Y1115060D02*
X155799Y1113936D01*
X154940Y1115060D02*
X121920Y1115060D01*
X120799Y1113936D01*
X154940Y1115060D02*
X155799Y1113936D01*
X43180Y1049020D02*
X43180Y1040130D01*
X43180Y1049020D02*
X31750Y1060450D01*
X6350Y1060450D01*
X43180Y1040130D02*
X43100Y1039700D01*
X6350Y1060450D02*
X6100Y1061000D01*
X59690Y914400D02*
X59690Y904240D01*
X59690Y914400D02*
X52070Y922020D01*
X52070Y951230D01*
X59690Y958850D01*
X59690Y904240D02*
X60740Y903000D01*
X59690Y958850D02*
X60740Y960000D01*
X43180Y976630D02*
X43180Y980440D01*
X43180Y1038860D01*
X43180Y976630D02*
X59690Y960120D01*
X43180Y1038860D02*
X43100Y1039700D01*
X59690Y960120D02*
X60740Y960000D01*
X118110Y1113790D02*
X120650Y1113790D01*
X118110Y1113790D02*
X53340Y1049020D01*
X43180Y1049020D01*
X120650Y1113790D02*
X120799Y1113936D01*
X-22860Y976630D02*
X-44450Y976630D01*
X27940Y980440D02*
X43180Y980440D01*
X-44450Y976630D02*
X-45260Y976000D01*
X-25400Y817880D02*
X-25400Y704850D01*
X-25400Y817880D02*
X59690Y902970D01*
X-25400Y704850D02*
X-25640Y704580D01*
X59690Y902970D02*
X60740Y903000D01*
X185420Y1116330D02*
X179070Y1122680D01*
X177890Y1123508D01*
X1192530Y576580D02*
X1196340Y576580D01*
X1192530Y576580D02*
X1174750Y594360D01*
X1196340Y576580D02*
X1197100Y575700D01*
X1174750Y594360D02*
X1173600Y594900D01*
X1126490Y495300D02*
X1126490Y466090D01*
X1126490Y495300D02*
X1120140Y501650D01*
X1126490Y466090D02*
X1127100Y466000D01*
X1120140Y501650D02*
X1120000Y502200D01*
X1205230Y510540D02*
X1207770Y510540D01*
X1205230Y510540D02*
X1183640Y488950D01*
X1183640Y478790D01*
X1163320Y458470D01*
X1134110Y458470D01*
X1127760Y464820D01*
X1207770Y510540D02*
X1207800Y511800D01*
X1127100Y466000D02*
X1127760Y464820D01*
X1192530Y568960D02*
X1192530Y576580D01*
X1192530Y568960D02*
X1183640Y560070D01*
X1183640Y524510D01*
X1172210Y513080D01*
X1144270Y513080D01*
X1126490Y495300D01*
X1304290Y619760D02*
X1311910Y619760D01*
X1313180Y618490D01*
X1304290Y619760D02*
X1304050Y620800D01*
X1320800Y610870D02*
X1323340Y610870D01*
X1320800Y610870D02*
X1314450Y617220D01*
X1323340Y610870D02*
X1323750Y610800D01*
X1314450Y617220D02*
X1313900Y618300D01*
X1319530Y624840D02*
X1323340Y624840D01*
X1319530Y624840D02*
X1313180Y618490D01*
X1323340Y624840D02*
X1323750Y625800D01*
X1313900Y618300D02*
X1313180Y618490D01*
X1249680Y603250D02*
X1226820Y603250D01*
X1249680Y603250D02*
X1271270Y624840D01*
X1296670Y624840D01*
X1300480Y621030D01*
X1303020Y621030D01*
X1226820Y603250D02*
X1226501Y603100D01*
X1303020Y621030D02*
X1304050Y620800D01*
X1417320Y645160D02*
X1417320Y689610D01*
X1417320Y645160D02*
X1416600Y644500D01*
X1417320Y689610D02*
X1416600Y689700D01*
X1466850Y566420D02*
X1473200Y560070D01*
X1473200Y548640D01*
X1460500Y535940D01*
X1447800Y535940D01*
X1466850Y566420D02*
X1466600Y567000D01*
X1447800Y535940D02*
X1447800Y535700D01*
X1446530Y504190D02*
X1435100Y492760D01*
X1434400Y492300D01*
X1446530Y504190D02*
X1447600Y505000D01*
X1409700Y537210D02*
X1399540Y547370D01*
X1409700Y537210D02*
X1409700Y516890D01*
X1433830Y492760D01*
X1399540Y547370D02*
X1399000Y547900D01*
X1433830Y492760D02*
X1434400Y492300D01*
X1443990Y534670D02*
X1447800Y534670D01*
X1443990Y534670D02*
X1438910Y529590D01*
X1438910Y513080D01*
X1446530Y505460D01*
X1447800Y534670D02*
X1447800Y535700D01*
X1446530Y505460D02*
X1447600Y505000D01*
X1416050Y565150D02*
X1416050Y610870D01*
X1416050Y618490D01*
X1416050Y643890D01*
X1416050Y565150D02*
X1399540Y548640D01*
X1416050Y643890D02*
X1416600Y644500D01*
X1399540Y548640D02*
X1399000Y547900D01*
X1416050Y610870D02*
X1324610Y610870D01*
X1323750Y610800D01*
X1144270Y523240D02*
X1144270Y513080D01*
X1144270Y523240D02*
X1129030Y538480D01*
X1129030Y588010D01*
X1116330Y600710D01*
X1116330Y619760D01*
X1121410Y624840D01*
X1202690Y624840D01*
X1225550Y601980D01*
X1226501Y603100D01*
X1336040Y207010D02*
X1356360Y207010D01*
X1374140Y224790D01*
X1336040Y207010D02*
X1335550Y206550D01*
X1374140Y224790D02*
X1374500Y225600D01*
X1376680Y223520D02*
X1549400Y223520D01*
X1376680Y223520D02*
X1375410Y224790D01*
X1549400Y223520D02*
X1550090Y223000D01*
X1375410Y224790D02*
X1374500Y225600D01*
X1532890Y619760D02*
X1532890Y621030D01*
X1532890Y619760D02*
X1532960Y618600D01*
X1532890Y621030D02*
X1532960Y621600D01*
X1534160Y622300D02*
X1534160Y632460D01*
X1540510Y638810D01*
X1534160Y622300D02*
X1532960Y621600D01*
X1540510Y638810D02*
X1540910Y639100D01*
X1541780Y638810D02*
X1579880Y638810D01*
X1580210Y639100D01*
X1541780Y638810D02*
X1540910Y639100D01*
X1532890Y553720D02*
X1532890Y552450D01*
X1532960Y551400D01*
X1532890Y553720D02*
X1532960Y554500D01*
X1534160Y551180D02*
X1534160Y543560D01*
X1536700Y541020D02*
X1540510Y537210D01*
X1536700Y541020D02*
X1534160Y543560D01*
X1534160Y551180D02*
X1532960Y551400D01*
X1540510Y537210D02*
X1540910Y536900D01*
X1541780Y537210D02*
X1579880Y537210D01*
X1580210Y536900D01*
X1541780Y537210D02*
X1540910Y536900D01*
X1536700Y541020D02*
X1446530Y450850D01*
X1446400Y450500D01*
X1536700Y541020D02*
X1540910Y536900D01*
X1581150Y537210D02*
X1581150Y638810D01*
X1580210Y639100D01*
X1581150Y537210D02*
X1580210Y536900D01*
X1553210Y223520D02*
X1550670Y223520D01*
X1553210Y223520D02*
X1559560Y229870D01*
X1559560Y336550D01*
X1446530Y449580D01*
X1550670Y223520D02*
X1550090Y223000D01*
X1446530Y449580D02*
X1446400Y450500D01*
X1416050Y618490D02*
X1532890Y618490D01*
X1532960Y618600D01*
X670560Y166370D02*
X588010Y166370D01*
X565150Y143510D01*
X670560Y166370D02*
X671700Y167200D01*
X565150Y143510D02*
X563900Y143800D01*
X800100Y166370D02*
X806450Y166370D01*
X800100Y166370D02*
X787400Y153670D01*
X684530Y153670D01*
X671830Y166370D01*
X806450Y166370D02*
X806700Y167200D01*
X671830Y166370D02*
X671700Y167200D01*
X533400Y139700D02*
X527050Y146050D01*
X533400Y139700D02*
X533400Y138430D01*
X535940Y135890D01*
X556260Y135890D01*
X563880Y143510D01*
X527050Y146050D02*
X526780Y146400D01*
X563900Y143800D02*
X563880Y143510D01*
X283210Y396240D02*
X267970Y396240D01*
X267800Y395800D01*
X283210Y396240D02*
X283500Y395600D01*
X273050Y363220D02*
X270510Y363220D01*
X273050Y363220D02*
X279400Y356870D01*
X289560Y356870D01*
X290830Y358140D01*
X290830Y369570D01*
X284480Y375920D01*
X270200Y363700D02*
X270510Y363220D01*
X284480Y375920D02*
X284300Y376500D01*
X251460Y384810D02*
X251460Y394970D01*
X251460Y384810D02*
X247650Y381000D01*
X247650Y359410D01*
X248920Y358140D01*
X264160Y358140D01*
X269240Y363220D01*
X251460Y394970D02*
X252200Y395800D01*
X269240Y363220D02*
X270200Y363700D01*
X283210Y377190D02*
X283210Y394970D01*
X283500Y395600D01*
X283210Y377190D02*
X284300Y376500D01*
X246380Y519430D02*
X246380Y521970D01*
X252730Y528320D01*
X252730Y562610D01*
X237490Y577850D01*
X246380Y519430D02*
X245600Y519200D01*
X237490Y577850D02*
X236420Y579100D01*
X236220Y594360D02*
X232410Y594360D01*
X229870Y591820D02*
X228600Y590550D01*
X229870Y591820D02*
X232410Y594360D01*
X228600Y590550D02*
X228600Y584200D01*
X233680Y579120D01*
X236220Y579120D01*
X236220Y594360D02*
X236420Y595300D01*
X236220Y579120D02*
X236420Y579100D01*
X266700Y603250D02*
X269240Y600710D01*
X270510Y600710D01*
X279400Y591820D01*
X279400Y580390D01*
X261620Y562610D01*
X252730Y562610D01*
X265580Y603300D02*
X266700Y603250D01*
X284480Y398780D02*
X284480Y396240D01*
X284480Y398780D02*
X290830Y405130D01*
X290830Y473710D01*
X246380Y518160D01*
X284480Y396240D02*
X283500Y395600D01*
X246380Y518160D02*
X245600Y519200D01*
X759460Y259080D02*
X765810Y259080D01*
X759460Y259080D02*
X753110Y259080D01*
X752700Y258900D01*
X765810Y259080D02*
X766600Y258800D01*
X742950Y254000D02*
X737870Y259080D01*
X742950Y254000D02*
X742950Y252730D01*
X745490Y250190D01*
X745490Y241300D01*
X746760Y240030D01*
X758190Y240030D01*
X759460Y241300D01*
X759460Y259080D01*
X737870Y259080D02*
X737700Y259100D01*
X768350Y271780D02*
X781050Y259080D01*
X768350Y271780D02*
X763270Y271780D01*
X759460Y267970D01*
X759460Y259080D01*
X781050Y259080D02*
X781600Y258500D01*
X687070Y250190D02*
X683260Y246380D01*
X687070Y250190D02*
X687070Y251460D01*
X693420Y257810D01*
X695960Y257810D01*
X683260Y246380D02*
X682000Y246300D01*
X695960Y257810D02*
X696100Y258900D01*
X697230Y259080D02*
X708660Y259080D01*
X709300Y258800D01*
X697230Y259080D02*
X696100Y258900D01*
X709930Y259080D02*
X721360Y259080D01*
X722630Y259080D01*
X723000Y258600D01*
X709930Y259080D02*
X709300Y258800D01*
X716280Y205740D02*
X716280Y193040D01*
X716280Y205740D02*
X720090Y209550D01*
X730250Y209550D02*
X748030Y209550D01*
X730250Y209550D02*
X720090Y209550D01*
X748030Y209550D02*
X760730Y196850D01*
X760730Y193040D01*
X716700Y192200D02*
X716280Y193040D01*
X760730Y193040D02*
X761700Y192200D01*
X727710Y254000D02*
X723900Y257810D01*
X727710Y254000D02*
X727710Y252730D01*
X730250Y250190D01*
X730250Y209550D01*
X723900Y257810D02*
X723000Y258600D01*
X736600Y260350D02*
X736600Y264160D01*
X734060Y266700D01*
X721360Y266700D02*
X721360Y259080D01*
X736600Y260350D02*
X737700Y259100D01*
X723000Y258600D02*
X721360Y259080D01*
X781050Y501650D02*
X787400Y508000D01*
X781050Y501650D02*
X769620Y501650D01*
X756920Y514350D01*
X756920Y538480D01*
X787400Y508000D02*
X787900Y508200D01*
X756920Y538480D02*
X756050Y539150D01*
X854710Y556260D02*
X866140Y544830D01*
X866140Y525780D01*
X863600Y523240D01*
X802640Y523240D01*
X788670Y509270D01*
X853900Y556700D02*
X854710Y556260D01*
X788670Y509270D02*
X787900Y508200D01*
X571500Y227330D02*
X571500Y204470D01*
X571500Y227330D02*
X565150Y233680D01*
X565150Y242570D01*
X571500Y248920D01*
X571500Y204470D02*
X572100Y203600D01*
X571500Y248920D02*
X572755Y250100D01*
X572770Y250190D02*
X585470Y250190D01*
X586600Y250200D01*
X572770Y250190D02*
X572755Y250100D01*
X643890Y304800D02*
X647700Y308610D01*
X643890Y304800D02*
X643890Y303530D01*
X641350Y300990D01*
X641350Y289560D02*
X641350Y260350D01*
X641350Y289560D02*
X641350Y300990D01*
X647700Y308610D02*
X647789Y308700D01*
X641350Y260350D02*
X642300Y259800D01*
X698500Y295910D02*
X701040Y295910D01*
X698500Y295910D02*
X678180Y316230D01*
X655320Y316230D01*
X648970Y309880D01*
X701040Y295910D02*
X701700Y295100D01*
X648970Y309880D02*
X647789Y308700D01*
X633730Y308610D02*
X633730Y306070D01*
X627380Y299720D01*
X627380Y292100D01*
X629920Y289560D01*
X641350Y289560D01*
X633730Y308610D02*
X634500Y308900D01*
X726440Y320040D02*
X806450Y320040D01*
X726440Y320040D02*
X702310Y295910D01*
X806450Y320040D02*
X806700Y321300D01*
X702310Y295910D02*
X701700Y295100D01*
X633730Y251460D02*
X586740Y251460D01*
X633730Y251460D02*
X641350Y259080D01*
X586740Y251460D02*
X586600Y250200D01*
X641350Y259080D02*
X642300Y259800D01*
X769620Y461010D02*
X769620Y501650D01*
X769620Y461010D02*
X637540Y328930D01*
X637540Y312420D01*
X635000Y309880D01*
X634500Y308900D01*
X716280Y191770D02*
X716280Y187960D01*
X713740Y185420D01*
X679450Y185420D01*
X675640Y189230D02*
X641350Y223520D01*
X675640Y189230D02*
X679450Y185420D01*
X641350Y223520D02*
X641350Y243840D01*
X633730Y251460D01*
X716280Y191770D02*
X716700Y192200D01*
X608330Y358140D02*
X290830Y358140D01*
X608330Y358140D02*
X637540Y328930D01*
X671830Y180340D02*
X671830Y167640D01*
X671700Y167200D01*
X989330Y464820D02*
X1126490Y464820D01*
X989330Y464820D02*
X849630Y325120D01*
X849630Y316230D01*
X848360Y314960D01*
X812800Y314960D01*
X807720Y320040D01*
X1126490Y464820D02*
X1127100Y466000D01*
X807720Y320040D02*
X806700Y321300D01*
X229870Y591820D02*
X223520Y598170D01*
D46*
X429260Y1099820D03*
X429260Y1083310D03*
X-25400Y544830D03*
X11430Y581660D03*
X-22860Y976630D03*
X27940Y980440D03*
X185420Y1116330D03*
X734060Y266700D03*
X721360Y266700D03*
X671830Y180340D03*
X675640Y189230D03*
X223520Y598170D03*
D45*
X1526540Y560070D02*
X1531620Y560070D01*
X1526540Y560070D02*
X1445260Y478790D01*
X1346200Y478790D01*
X1295400Y529590D01*
X1205230Y529590D01*
X1164590Y488950D01*
X1531620Y560070D02*
X1532860Y560100D01*
X1164590Y488950D02*
X1163600Y487824D01*
X1179830Y613410D02*
X1200150Y613410D01*
X1179830Y613410D02*
X1178900Y612700D01*
X1200150Y613410D02*
X1200499Y612600D01*
X1178560Y613410D02*
X1169670Y622300D01*
X1122680Y622300D01*
X1118870Y618490D01*
X1118870Y601980D01*
X1163320Y557530D01*
X1163320Y533400D01*
X1178900Y612700D02*
X1178560Y613410D01*
X1163320Y533400D02*
X1163600Y532824D01*
X1443990Y553720D02*
X1465580Y553720D01*
X1432560Y542290D02*
X1426210Y535940D01*
X1432560Y542290D02*
X1443990Y553720D01*
X1426210Y535940D02*
X1423670Y535940D01*
X1465580Y553720D02*
X1466600Y554000D01*
X1423670Y535940D02*
X1422800Y535700D01*
X1203960Y570230D02*
X1197610Y563880D01*
X1203960Y570230D02*
X1203960Y580390D01*
X1196340Y588010D01*
X1193800Y588010D01*
X1192530Y589280D01*
X1192530Y598170D01*
X1193800Y599440D01*
X1209040Y599440D01*
X1230630Y577850D01*
X1262380Y577850D01*
X1268730Y571500D01*
X1275080Y571500D02*
X1328420Y571500D01*
X1275080Y571500D02*
X1268730Y571500D01*
X1328420Y571500D02*
X1363980Y535940D01*
X1398270Y535940D01*
X1197610Y563880D02*
X1197100Y562700D01*
X1398270Y535940D02*
X1399000Y534900D01*
X1267460Y519430D02*
X1264920Y519430D01*
X1267460Y519430D02*
X1272540Y524510D01*
X1275080Y571500D02*
X1275080Y572770D01*
X1264920Y519430D02*
X1264800Y518400D01*
X1164590Y529590D02*
X1164590Y532130D01*
X1164590Y529590D02*
X1173480Y520700D01*
X1164590Y532130D02*
X1163600Y532824D01*
X713740Y294640D02*
X707390Y288290D01*
X695960Y288290D01*
X690880Y293370D01*
X676910Y293370D01*
X673100Y297180D02*
X661670Y308610D01*
X673100Y297180D02*
X676910Y293370D01*
X713740Y294640D02*
X714700Y295100D01*
X661670Y308610D02*
X660700Y309800D01*
X341630Y769620D02*
X313690Y769620D01*
X341630Y769620D02*
X518160Y593090D01*
X673100Y297180D02*
X670560Y294640D01*
X313690Y769620D02*
X313600Y770700D01*
X1170940Y458470D02*
X1173480Y458470D01*
X1170940Y458470D02*
X1163320Y450850D01*
X988060Y450850D01*
X833120Y295910D01*
X715010Y295910D01*
X714700Y295100D01*
D46*
X1272540Y524510D03*
X1275080Y572770D03*
X1432560Y542290D03*
X1173480Y520700D03*
X518160Y593090D03*
X670560Y294640D03*
X1173480Y458470D03*
D45*
X1447800Y492760D02*
X1525270Y570230D01*
X1525270Y574040D01*
X1526540Y575310D01*
X1532890Y575310D01*
X1447800Y492760D02*
X1447400Y492300D01*
X1532890Y575310D02*
X1532960Y575600D01*
X1534160Y586740D02*
X1539240Y586740D01*
X1541780Y589280D01*
X1541780Y591820D01*
X1539240Y594360D01*
X1534160Y594360D01*
X1534160Y586740D02*
X1532960Y585600D01*
X1534160Y594360D02*
X1532960Y595600D01*
X1422400Y527050D02*
X1418590Y527050D01*
X1414780Y530860D01*
X1414780Y549910D01*
X1459230Y594360D01*
X1532890Y594360D01*
X1422400Y527050D02*
X1422800Y526200D01*
X1532890Y594360D02*
X1532960Y595600D01*
X1532890Y581660D02*
X1526540Y581660D01*
X1525270Y582930D01*
X1525270Y588010D01*
X1527810Y590550D01*
X1532890Y590550D01*
X1532890Y581660D02*
X1532960Y580600D01*
X1532890Y590550D02*
X1532960Y590600D01*
X1430020Y546100D02*
X1423670Y546100D01*
X1430020Y546100D02*
X1466850Y582930D01*
X1525270Y582930D01*
X1423670Y546100D02*
X1422800Y545200D01*
X1534160Y566420D02*
X1539240Y566420D01*
X1544320Y571500D01*
X1544320Y604520D01*
X1539240Y609600D01*
X1534160Y609600D01*
X1534160Y566420D02*
X1532960Y565400D01*
X1534160Y609600D02*
X1532960Y610600D01*
X1532890Y610870D02*
X1532890Y613410D01*
X1532960Y613600D01*
X1532890Y610870D02*
X1532960Y610600D01*
X1433830Y505460D02*
X1431290Y505460D01*
X1412240Y524510D01*
X1412240Y551180D01*
X1465580Y604520D01*
X1532890Y604520D01*
X1434600Y505000D02*
X1433830Y505460D01*
X1532890Y604520D02*
X1532960Y605600D01*
X1447800Y544830D02*
X1441450Y544830D01*
X1432560Y535940D01*
X1188720Y480060D02*
X1164590Y455930D01*
X986790Y455930D01*
X736600Y516890D02*
X393700Y516890D01*
X284480Y626110D01*
X173990Y626110D01*
X146050Y598170D01*
X146050Y520700D01*
X144780Y519430D01*
X134620Y519430D01*
X125730Y528320D01*
X1447800Y544830D02*
X1447800Y545200D01*
X126760Y529580D02*
X125730Y528320D01*
D46*
X1432560Y535940D03*
X1188720Y480060D03*
X986790Y455930D03*
X736600Y516890D03*
D45*
X1447800Y527050D02*
X1457960Y527050D01*
X1473200Y542290D01*
X621030Y562610D02*
X525780Y562610D01*
X459740Y628650D01*
X172720Y628650D01*
X139700Y595630D01*
X139700Y529590D01*
X1447800Y527050D02*
X1447800Y526200D01*
X139700Y529590D02*
X139460Y529580D01*
D46*
X1473200Y542290D03*
X621030Y562610D03*
D45*
X648970Y294640D02*
X656590Y294640D01*
X660400Y290830D01*
X648970Y294640D02*
X647811Y295700D01*
X660400Y290830D02*
X660700Y290800D01*
X1209040Y502920D02*
X1212850Y506730D01*
X1214120Y506730D01*
X1215390Y508000D01*
X1215390Y515620D01*
X1209040Y521970D01*
X1209040Y502920D02*
X1207800Y502300D01*
X1207800Y521300D02*
X1209040Y521970D01*
X1226820Y496570D02*
X1263650Y496570D01*
X1226820Y496570D02*
X1215390Y508000D01*
X1263650Y496570D02*
X1264800Y497400D01*
X690880Y289560D02*
X661670Y289560D01*
X690880Y289560D02*
X702310Y278130D01*
X904240Y278130D01*
X1074420Y448310D01*
X1170940Y448310D01*
X1207770Y485140D01*
X1207770Y501650D01*
X661670Y289560D02*
X660700Y290800D01*
X1207770Y501650D02*
X1207800Y502300D01*
X1324610Y615950D02*
X1324610Y619760D01*
X1324610Y615950D02*
X1323750Y615800D01*
X1324610Y619760D02*
X1323750Y620800D01*
X680720Y307340D02*
X680720Y300990D01*
X680720Y307340D02*
X679450Y308610D01*
X905510Y523240D02*
X1016000Y523240D01*
X1120140Y627380D01*
X1160780Y627380D02*
X1211580Y627380D01*
X1160780Y627380D02*
X1120140Y627380D01*
X1211580Y627380D02*
X1225550Y613410D01*
X681700Y300300D02*
X680720Y300990D01*
X1225550Y613410D02*
X1226501Y612600D01*
X1160780Y604520D02*
X1160780Y595630D01*
X1160780Y627380D02*
X1160780Y629920D01*
X1160780Y595630D02*
X1160600Y594900D01*
X1324610Y621030D02*
X1327150Y621030D01*
X1329690Y623570D01*
X1329690Y628650D01*
X1328420Y629920D01*
X1243330Y629920D01*
X1226820Y613410D01*
X1323750Y620800D02*
X1324610Y621030D01*
X1226820Y613410D02*
X1226501Y612600D01*
X787400Y690880D02*
X787400Y1079500D01*
X787400Y690880D02*
X905510Y572770D01*
X905510Y523240D01*
X787400Y1079500D02*
X786628Y1080600D01*
D46*
X679450Y308610D03*
X905510Y523240D03*
X1160780Y604520D03*
X1160780Y629920D03*
D45*
X392430Y1066800D02*
X388620Y1062990D01*
X387350Y1062990D01*
X386080Y1061720D01*
X386080Y807720D01*
X422910Y770890D01*
X392430Y1066800D02*
X393300Y1067500D01*
X422910Y770890D02*
X423800Y769700D01*
X474980Y1122680D02*
X504190Y1122680D01*
X402590Y1075690D02*
X393700Y1066800D01*
X504190Y1122680D02*
X504196Y1123194D01*
X393700Y1066800D02*
X393300Y1067500D01*
X90170Y462280D02*
X52070Y462280D01*
X17780Y496570D01*
X-3810Y518160D02*
X-13970Y528320D01*
X90170Y462280D02*
X90700Y461600D01*
X-12940Y529580D02*
X-13970Y528320D01*
X-1270Y1046480D02*
X-11430Y1056640D01*
X-15240Y1060450D01*
X-1270Y1046480D02*
X-1270Y1043940D01*
X2540Y1040130D01*
X29210Y1040130D01*
X-15240Y1060450D02*
X-16300Y1061500D01*
X29210Y1040130D02*
X30100Y1039700D01*
X54610Y1122680D02*
X102870Y1122680D01*
X54610Y1122680D02*
X-11430Y1056640D01*
X102870Y1122680D02*
X103600Y1123578D01*
X189230Y1123950D02*
X340360Y1123950D01*
X346710Y1123950D01*
X189230Y1123950D02*
X184150Y1129030D01*
X171450Y1129030D01*
X163830Y1121410D01*
X105410Y1121410D01*
X104140Y1122680D01*
X346710Y1123950D02*
X347087Y1123345D01*
X104140Y1122680D02*
X103600Y1123578D01*
X-30480Y955040D02*
X-44450Y955040D01*
X-30480Y955040D02*
X2540Y988060D01*
X2540Y1040130D01*
X-44450Y955040D02*
X-45260Y954000D01*
X-13970Y563880D02*
X-13970Y529590D01*
X-13970Y563880D02*
X-21590Y571500D01*
X-21590Y674370D01*
X-36830Y689610D01*
X-36830Y900430D01*
X-53340Y916940D01*
X-53340Y947420D01*
X-45720Y955040D01*
X-13970Y529590D02*
X-12940Y529580D01*
X-45260Y954000D02*
X-45720Y955040D01*
X341630Y1079500D02*
X341630Y1104900D01*
X340360Y1106170D01*
X340360Y1123950D01*
X1348740Y156210D02*
X1361440Y156210D01*
X1348740Y156210D02*
X1347900Y156700D01*
X1361440Y156210D02*
X1361500Y156800D01*
X1362710Y157480D02*
X1374140Y157480D01*
X1375200Y156900D01*
X1362710Y157480D02*
X1361500Y156800D01*
X1375410Y156210D02*
X1388110Y156210D01*
X1388650Y156698D01*
X1375410Y156210D02*
X1375200Y156900D01*
X1334770Y215900D02*
X1334770Y218440D01*
X1334770Y215900D02*
X1328420Y209550D01*
X1328420Y176530D01*
X1347470Y157480D01*
X1334770Y218440D02*
X1335550Y219250D01*
X1347470Y157480D02*
X1347900Y156700D01*
X1413510Y233680D02*
X1413510Y243840D01*
X1413510Y233680D02*
X1413510Y232410D01*
X1413450Y231950D01*
X1413510Y243840D02*
X1413450Y244650D01*
X1413510Y233680D02*
X1549400Y233680D01*
X1550090Y233000D01*
X1413510Y233680D02*
X1413450Y231950D01*
X1336040Y222250D02*
X1336040Y219710D01*
X1336040Y222250D02*
X1355090Y241300D01*
X1355090Y247650D01*
X1357630Y250190D01*
X1383030Y250190D02*
X1407160Y250190D01*
X1383030Y250190D02*
X1357630Y250190D01*
X1407160Y250190D02*
X1412240Y245110D01*
X1336040Y219710D02*
X1335550Y219250D01*
X1412240Y245110D02*
X1413450Y244650D01*
X1270000Y586740D02*
X1270000Y612140D01*
X1276350Y618490D01*
X1270000Y586740D02*
X1269800Y585500D01*
X1276350Y618490D02*
X1276800Y619400D01*
X1249680Y520700D02*
X1247140Y520700D01*
X1236980Y520700D01*
X1249680Y520700D02*
X1266190Y504190D01*
X1316990Y504190D01*
X1370330Y450850D01*
X1383030Y450850D02*
X1416050Y450850D01*
X1383030Y450850D02*
X1370330Y450850D01*
X1236980Y520700D02*
X1235800Y521300D01*
X1416050Y450850D02*
X1416400Y450500D01*
X1270000Y576580D02*
X1270000Y585470D01*
X1269800Y585500D01*
X1383030Y450850D02*
X1383030Y250190D01*
X782320Y632460D02*
X782320Y654050D01*
X782000Y654400D01*
X782320Y632460D02*
X781450Y632250D01*
X635000Y298450D02*
X635000Y295910D01*
X635000Y298450D02*
X641350Y304800D01*
X641350Y314960D01*
X725170Y398780D01*
X741680Y398780D01*
X863600Y520700D01*
X864870Y520700D01*
X868680Y524510D01*
X868680Y598170D01*
X844550Y622300D02*
X833120Y633730D01*
X844550Y622300D02*
X868680Y598170D01*
X635000Y295910D02*
X634500Y295900D01*
X832300Y633900D02*
X833120Y633730D01*
X772160Y671830D02*
X767080Y671830D01*
X772160Y671830D02*
X781050Y680720D01*
X793750Y680720D01*
X831850Y642620D01*
X831850Y635000D01*
X767080Y671830D02*
X766300Y671600D01*
X831850Y635000D02*
X832300Y633900D01*
X875030Y518160D02*
X1101090Y518160D01*
X875030Y518160D02*
X868680Y524510D01*
X1101090Y518160D02*
X1101900Y517700D01*
X782320Y627380D02*
X782320Y631190D01*
X782320Y627380D02*
X795020Y614680D01*
X836930Y614680D01*
X844550Y622300D01*
X782320Y631190D02*
X781450Y632250D01*
X1101900Y517700D02*
X1123950Y539750D01*
X455930Y769620D02*
X424180Y769620D01*
X455930Y769620D02*
X553720Y671830D01*
X765810Y671830D01*
X424180Y769620D02*
X423800Y769700D01*
X765810Y671830D02*
X766300Y671600D01*
D46*
X474980Y1122680D03*
X402590Y1075690D03*
X17780Y496570D03*
X-3810Y518160D03*
X341630Y1079500D03*
X1270000Y576580D03*
X1247140Y520700D03*
X1123950Y539750D03*
D45*
X11430Y529590D02*
X11430Y552450D01*
X-8890Y572770D01*
X-8890Y632460D01*
X6350Y647700D01*
X6350Y650240D01*
X-33020Y689610D01*
X-33020Y925830D01*
X-38100Y930910D01*
X11430Y529590D02*
X12460Y529580D01*
X-38100Y930910D02*
X-39260Y932000D01*
X1385570Y144780D02*
X1388110Y144780D01*
X1385570Y144780D02*
X1379220Y151130D01*
X1334770Y151130D01*
X1163320Y322580D01*
X1163320Y440690D01*
X1111250Y510540D02*
X1118870Y518160D01*
X1388110Y144780D02*
X1388650Y143698D01*
X1120000Y517200D02*
X1118870Y518160D01*
X12700Y528320D02*
X12700Y487680D01*
X312420Y187960D01*
X670560Y187960D01*
X702310Y156210D01*
X786130Y156210D01*
X952500Y322580D01*
X1163320Y322580D01*
X12700Y528320D02*
X12460Y529580D01*
D46*
X1163320Y440690D03*
X1111250Y510540D03*
D45*
X731520Y191770D02*
X731520Y181610D01*
X1407160Y200660D02*
X1412240Y205740D01*
X731700Y192200D02*
X731520Y191770D01*
X1412240Y205740D02*
X1413450Y206550D01*
X-16510Y975360D02*
X-16510Y1047750D01*
X-31750Y948690D02*
X-36830Y948690D01*
X-43180Y942340D01*
X-16510Y1047750D02*
X-16300Y1048500D01*
X-43260Y943000D02*
X-43180Y942340D01*
X198120Y411480D02*
X251460Y411480D01*
X59690Y518160D02*
X49530Y528320D01*
X251460Y411480D02*
X252200Y410800D01*
X50560Y529580D02*
X49530Y528320D01*
X-10160Y300990D02*
X-10160Y222250D01*
X-10400Y221500D01*
X49530Y533400D02*
X-3810Y586740D01*
X49530Y533400D02*
X49530Y529590D01*
X50560Y529580D01*
X565150Y133350D02*
X590550Y158750D01*
X565150Y133350D02*
X77470Y133350D01*
X-10160Y220980D01*
X-10400Y221500D01*
D46*
X731520Y181610D03*
X1407160Y200660D03*
X-16510Y975360D03*
X-31750Y948690D03*
X198120Y411480D03*
X59690Y518160D03*
X-10160Y300990D03*
X-3810Y586740D03*
X590550Y158750D03*
D45*
X1348740Y143510D02*
X1348740Y137160D01*
X1353820Y132080D01*
X1391920Y132080D01*
X1402080Y142240D01*
X1402080Y208280D01*
X1412240Y218440D01*
X1348740Y143510D02*
X1347900Y143700D01*
X1412240Y218440D02*
X1413450Y219250D01*
X736600Y191770D02*
X736600Y180340D01*
X732790Y176530D01*
X689610Y176530D01*
X275590Y419100D02*
X267970Y411480D01*
X736700Y192200D02*
X736600Y191770D01*
X267800Y410800D02*
X267970Y411480D01*
X38100Y525780D02*
X38100Y528320D01*
X38100Y525780D02*
X49530Y514350D01*
X38100Y528320D02*
X37860Y529580D01*
X-44450Y963930D02*
X-52070Y963930D01*
X-54610Y961390D01*
X-3810Y574040D02*
X36830Y533400D01*
X36830Y529590D01*
X-44450Y963930D02*
X-43260Y965000D01*
X36830Y529590D02*
X37860Y529580D01*
X35560Y220980D02*
X63500Y220980D01*
X35560Y220980D02*
X34500Y219800D01*
X1277620Y144780D02*
X1347470Y144780D01*
X1277620Y144780D02*
X1235710Y186690D01*
X1347470Y144780D02*
X1347900Y143700D01*
D46*
X689610Y176530D03*
X275590Y419100D03*
X49530Y514350D03*
X-54610Y961390D03*
X-3810Y574040D03*
X63500Y220980D03*
X1235710Y186690D03*
D45*
X1109980Y504190D02*
X1102360Y504190D01*
X1325880Y238760D02*
X1328420Y238760D01*
X1334770Y232410D01*
X1102360Y504190D02*
X1101900Y504700D01*
X1334770Y232410D02*
X1335550Y231950D01*
X245110Y534670D02*
X245110Y543560D01*
X76200Y593090D02*
X2540Y666750D01*
X-2540Y666750D01*
X-12700Y676910D01*
X-12700Y703580D01*
X245110Y534670D02*
X245600Y534200D01*
X-12700Y703580D02*
X-12940Y704580D01*
X-36830Y986790D02*
X-43180Y986790D01*
X-36830Y986790D02*
X-31750Y981710D01*
X-20320Y716280D02*
X-13970Y709930D01*
X-13970Y704850D01*
X-43180Y986790D02*
X-43260Y987000D01*
X-13970Y704850D02*
X-12940Y704580D01*
X-50800Y421640D02*
X-50800Y222250D01*
X-51200Y221300D01*
X929640Y505460D02*
X1101090Y505460D01*
X660400Y557530D02*
X632460Y557530D01*
X601980Y588010D01*
X516890Y588010D01*
X472440Y632460D01*
X115570Y632460D01*
X76200Y593090D01*
X1101090Y505460D02*
X1101900Y504700D01*
D46*
X1109980Y504190D03*
X1325880Y238760D03*
X245110Y543560D03*
X76200Y593090D03*
X-31750Y981710D03*
X-20320Y716280D03*
X-50800Y421640D03*
X929640Y505460D03*
X660400Y557530D03*
D45*
X563880Y156210D02*
X551180Y156210D01*
X547370Y152400D02*
X542290Y147320D01*
X547370Y152400D02*
X551180Y156210D01*
X563880Y156210D02*
X563900Y156800D01*
X542290Y147320D02*
X542020Y146400D01*
X546100Y152400D02*
X529590Y168910D01*
X546100Y152400D02*
X547370Y152400D01*
X529590Y168910D02*
X529100Y169200D01*
X547370Y152400D02*
X542020Y146400D01*
X38100Y1047750D02*
X6350Y1047750D01*
X466090Y765810D02*
X480060Y765810D01*
X6350Y1047750D02*
X6100Y1048000D01*
X480060Y765810D02*
X480100Y765500D01*
X721360Y191770D02*
X721360Y184150D01*
X775970Y340360D02*
X767080Y349250D01*
X775970Y340360D02*
X779780Y336550D01*
X721700Y192200D02*
X721360Y191770D01*
X767360Y348800D02*
X767080Y349250D01*
X1249680Y534670D02*
X1278890Y563880D01*
X1117600Y492760D02*
X1003300Y492760D01*
X872490Y361950D01*
X849630Y361950D01*
X848360Y363220D01*
X798830Y363220D01*
X775970Y340360D01*
X1278890Y563880D02*
X1279300Y564500D01*
D46*
X38100Y1047750D03*
X466090Y765810D03*
X721360Y184150D03*
X779780Y336550D03*
X1249680Y534670D03*
X1117600Y492760D03*
D45*
X866140Y368300D02*
X797560Y368300D01*
X769620Y396240D02*
X762000Y403860D01*
X769620Y396240D02*
X797560Y368300D01*
X866140Y368300D02*
X867021Y368000D01*
X762000Y403860D02*
X761200Y405100D01*
X543560Y232410D02*
X543560Y229870D01*
X543560Y232410D02*
X632460Y321310D01*
X654050Y321310D02*
X693420Y321310D01*
X721360Y349250D01*
X543560Y229870D02*
X542600Y229300D01*
X722630Y349250D02*
X769620Y396240D01*
X722630Y349250D02*
X721360Y349250D01*
X721640Y348800D01*
D46*
X632460Y321310D03*
X654050Y321310D03*
D45*
X866140Y345440D02*
X866140Y354330D01*
X866140Y345440D02*
X842010Y321310D01*
X866140Y354330D02*
X867179Y355000D01*
X842010Y321310D02*
X841700Y321300D01*
X807720Y354330D02*
X807720Y356870D01*
X807720Y354330D02*
X840740Y321310D01*
X807720Y356870D02*
X806700Y357100D01*
X840740Y321310D02*
X841700Y321300D01*
X791210Y191770D02*
X791210Y182880D01*
X537210Y199390D02*
X537210Y208280D01*
X791210Y191770D02*
X791700Y192200D01*
X537210Y208280D02*
X536100Y208300D01*
X577850Y196850D02*
X584200Y203200D01*
X577850Y196850D02*
X567690Y196850D01*
X553720Y210820D01*
X553720Y214630D01*
X552450Y215900D01*
X543560Y215900D01*
X537210Y209550D01*
X584200Y203200D02*
X585100Y203600D01*
X537210Y209550D02*
X536100Y208300D01*
D46*
X791210Y182880D03*
X537210Y199390D03*
D45*
X786130Y191770D02*
X786130Y176530D01*
X768350Y158750D01*
X707390Y158750D01*
X704850Y161290D01*
X576580Y161290D02*
X570230Y161290D01*
X562610Y168910D01*
X542290Y168910D01*
X786130Y191770D02*
X786700Y192200D01*
X542290Y168910D02*
X542100Y169200D01*
X548640Y193040D02*
X548640Y208280D01*
X542290Y177800D02*
X542290Y170180D01*
X548640Y208280D02*
X549100Y208300D01*
X542290Y170180D02*
X542100Y169200D01*
D46*
X704850Y161290D03*
X576580Y161290D03*
X548640Y193040D03*
X542290Y177800D03*
D45*
X1140460Y466090D02*
X1140460Y494030D01*
X1156970Y510540D01*
X1173480Y510540D01*
X1210310Y547370D01*
X1210310Y584200D01*
X1201420Y593090D01*
X1140460Y466090D02*
X1140100Y466000D01*
X1201420Y593090D02*
X1200499Y593600D01*
X1163320Y612140D02*
X1150620Y612140D01*
X1144270Y605790D01*
X1131570Y605790D01*
X1125220Y612140D01*
X1163320Y612140D02*
X1163900Y612700D01*
X1125220Y612140D02*
X1124500Y612800D01*
X1137920Y613410D02*
X1148080Y613410D01*
X1154430Y619760D01*
X1168400Y619760D01*
X1172210Y615950D01*
X1172210Y608330D01*
X1178560Y601980D01*
X1215390Y601980D01*
X1223010Y594360D01*
X1225550Y594360D01*
X1137920Y613410D02*
X1137500Y612800D01*
X1225550Y594360D02*
X1226501Y593600D01*
X101600Y528320D02*
X101600Y411480D01*
X101600Y240030D02*
X123190Y218440D01*
X101600Y528320D02*
X101360Y529580D01*
X123190Y218440D02*
X124200Y218200D01*
X741680Y195580D02*
X741680Y193040D01*
X741680Y195580D02*
X736600Y200660D01*
X731520Y200660D01*
X657860Y231140D02*
X657860Y259080D01*
X741680Y193040D02*
X741700Y192200D01*
X657860Y259080D02*
X657300Y259800D01*
X1375410Y143510D02*
X1377950Y143510D01*
X1384300Y137160D01*
X1393190Y137160D01*
X1395730Y139700D01*
X1395730Y161290D01*
X1357630Y199390D01*
X746760Y200660D02*
X741680Y195580D01*
X1375200Y143900D02*
X1375410Y143510D01*
X741700Y192200D02*
X741680Y195580D01*
X191770Y411480D02*
X101600Y411480D01*
X191770Y411480D02*
X336550Y266700D01*
X568960Y266700D01*
D46*
X101600Y411480D03*
X101600Y240030D03*
X731520Y200660D03*
X657860Y231140D03*
X1357630Y199390D03*
X746760Y200660D03*
X568960Y266700D03*
D45*
X1355090Y137160D02*
X1361440Y143510D01*
X1314450Y177800D02*
X1314450Y233680D01*
X1324610Y243840D01*
X1334770Y243840D01*
X1361500Y143800D02*
X1361440Y143510D01*
X1334770Y243840D02*
X1335550Y244650D01*
X283210Y411480D02*
X283210Y419100D01*
X228600Y473710D01*
X167640Y473710D02*
X113030Y528320D01*
X283210Y411480D02*
X283500Y410600D01*
X114060Y529580D02*
X113030Y528320D01*
D46*
X1355090Y137160D03*
X1314450Y177800D03*
X228600Y473710D03*
X167640Y473710D03*
X283210Y419100D03*
D45*
X425450Y1111250D02*
X406400Y1130300D01*
X425450Y1111250D02*
X425684Y1110270D01*
X406000Y1129696D02*
X406400Y1130300D01*
X351790Y1111250D02*
X347980Y1111250D01*
X351790Y1111250D02*
X370840Y1130300D01*
X347980Y1111250D02*
X347087Y1110345D01*
X371000Y1129696D02*
X370840Y1130300D01*
X38100Y713740D02*
X38100Y704850D01*
X38100Y713740D02*
X346710Y1022350D01*
X346710Y1109980D01*
X38100Y704850D02*
X37860Y704580D01*
X346710Y1109980D02*
X347087Y1110345D01*
X372110Y1130300D02*
X405130Y1130300D01*
X406000Y1129696D01*
X372110Y1130300D02*
X371000Y1129696D01*
X12700Y707390D02*
X12700Y704850D01*
X12700Y707390D02*
X313690Y1008380D01*
X624840Y1008380D02*
X697230Y1080770D01*
X12700Y704850D02*
X12460Y704580D01*
X697230Y1080770D02*
X698000Y1082000D01*
D46*
X313690Y1008380D03*
X624840Y1008380D03*
D45*
X25400Y707390D02*
X25400Y704850D01*
X25400Y707390D02*
X313690Y995680D01*
X659130Y995680D02*
X745490Y1082040D01*
X25400Y704850D02*
X25160Y704580D01*
X745490Y1082040D02*
X746300Y1082300D01*
D46*
X313690Y995680D03*
X659130Y995680D03*
D45*
X132080Y698500D02*
X127000Y703580D01*
X132080Y698500D02*
X132080Y697230D01*
X134620Y694690D01*
X215900Y694690D01*
X307340Y786130D01*
X389890Y786130D01*
X530860Y645160D01*
X746760Y645160D01*
X755650Y636270D01*
X755650Y632460D01*
X127000Y703580D02*
X126760Y704580D01*
X755650Y632460D02*
X756050Y632250D01*
X259080Y377190D02*
X255270Y377190D01*
X259080Y377190D02*
X269240Y377190D01*
X270200Y376700D01*
X255270Y377190D02*
X255100Y376800D01*
X270510Y377190D02*
X283210Y364490D01*
X284300Y363500D01*
X270200Y376700D02*
X270510Y377190D01*
X229870Y533400D02*
X229870Y575310D01*
X218440Y586740D01*
X218440Y599440D01*
X222250Y603250D01*
X236220Y603250D01*
X229870Y533400D02*
X230300Y532400D01*
X236220Y603250D02*
X236420Y603300D01*
X237490Y588010D02*
X240030Y588010D01*
X243840Y591820D01*
X243840Y595630D02*
X243840Y598170D01*
X243840Y595630D02*
X243840Y591820D01*
X243840Y598170D02*
X237490Y604520D01*
X237490Y588010D02*
X236420Y587300D01*
X236420Y603300D02*
X237490Y604520D01*
X243840Y595630D02*
X265430Y595630D01*
X265580Y595300D01*
X114300Y701040D02*
X114300Y703580D01*
X114300Y701040D02*
X166370Y648970D01*
X194310Y621030D02*
X196850Y621030D01*
X218440Y599440D01*
X114300Y703580D02*
X114060Y704580D01*
X259080Y436880D02*
X259080Y377190D01*
X259080Y436880D02*
X223520Y472440D01*
X223520Y525780D01*
X229870Y532130D01*
X255100Y376800D02*
X259080Y377190D01*
X229870Y532130D02*
X230300Y532400D01*
D46*
X166370Y648970D03*
X194310Y621030D03*
D45*
X1259840Y572770D02*
X1259840Y565150D01*
X1277620Y590550D02*
X1277620Y605790D01*
X1259840Y565150D02*
X1260300Y564500D01*
X1277620Y605790D02*
X1276800Y606400D01*
X101600Y699770D02*
X101600Y703580D01*
X101600Y699770D02*
X165100Y636270D01*
X466090Y636270D01*
X467360Y637540D01*
X608330Y610870D02*
X845820Y610870D01*
X863600Y593090D01*
X101600Y703580D02*
X101360Y704580D01*
X1229360Y233680D02*
X1229360Y95250D01*
X1229800Y94400D01*
D46*
X1259840Y572770D03*
X1277620Y590550D03*
X467360Y637540D03*
X608330Y610870D03*
X863600Y593090D03*
X1229360Y233680D03*
D45*
X1360170Y553720D02*
X1304290Y609600D01*
X1539240Y250190D02*
X1545590Y243840D01*
X1549400Y243840D01*
X1304290Y609600D02*
X1304050Y610800D01*
X1549400Y243840D02*
X1550090Y243000D01*
X261620Y370840D02*
X255270Y364490D01*
X261620Y370840D02*
X262890Y370840D01*
X274320Y581660D02*
X269240Y586740D01*
X266700Y586740D01*
X255270Y364490D02*
X255100Y363800D01*
X266700Y586740D02*
X265580Y587300D01*
X88900Y666750D02*
X88900Y703580D01*
X88660Y704580D01*
X781050Y543560D02*
X781050Y539750D01*
X781050Y543560D02*
X772160Y552450D01*
X763270Y552450D02*
X538480Y552450D01*
X763270Y552450D02*
X772160Y552450D01*
X781050Y539750D02*
X781450Y539150D01*
X767080Y524510D02*
X767080Y511810D01*
X767080Y524510D02*
X763270Y528320D01*
X763270Y552450D01*
D46*
X1360170Y553720D03*
X1539240Y250190D03*
X262890Y370840D03*
X274320Y581660D03*
X88900Y666750D03*
X538480Y552450D03*
X767080Y511810D03*
D45*
X231140Y519430D02*
X231140Y521970D01*
X238760Y529590D01*
X238760Y552450D01*
X259080Y572770D02*
X265430Y579120D01*
X231140Y519430D02*
X230300Y519400D01*
X265430Y579120D02*
X265580Y579300D01*
X76200Y695960D02*
X76200Y703580D01*
X76200Y695960D02*
X83820Y688340D01*
X175260Y621030D02*
X214630Y581660D01*
X76200Y703580D02*
X75960Y704580D01*
X1299210Y614680D02*
X1303020Y614680D01*
X1299210Y614680D02*
X1297940Y613410D01*
X1297940Y608330D01*
X1358900Y547370D01*
X1534160Y269240D02*
X1549400Y254000D01*
X1303020Y614680D02*
X1304050Y615800D01*
X1549400Y254000D02*
X1550090Y253000D01*
X793750Y539750D02*
X793750Y590550D01*
X781050Y603250D01*
X793750Y539750D02*
X794150Y539150D01*
X778510Y605790D02*
X515620Y605790D01*
X778510Y605790D02*
X781050Y603250D01*
D46*
X238760Y552450D03*
X259080Y572770D03*
X83820Y688340D03*
X175260Y621030D03*
X214630Y581660D03*
X1358900Y547370D03*
X1534160Y269240D03*
X781050Y603250D03*
X515620Y605790D03*
D45*
X751840Y191770D02*
X751840Y179070D01*
X767080Y163830D01*
X1099820Y166370D02*
X1169670Y96520D01*
X751840Y191770D02*
X751700Y192200D01*
X1169670Y96520D02*
X1170600Y96200D01*
X63500Y701040D02*
X63500Y703580D01*
X63500Y701040D02*
X71120Y693420D01*
X283210Y621030D02*
X541020Y363220D01*
X774700Y273050D02*
X778510Y273050D01*
X801370Y250190D01*
X801370Y177800D01*
X63500Y703580D02*
X63260Y704580D01*
D46*
X767080Y163830D03*
X1099820Y166370D03*
X71120Y693420D03*
X283210Y621030D03*
X541020Y363220D03*
X774700Y273050D03*
X801370Y177800D03*
D45*
X574040Y1111250D02*
X565150Y1120140D01*
X565150Y1121410D01*
X556260Y1130300D01*
X574040Y1111250D02*
X574694Y1110127D01*
X556200Y1129552D02*
X556260Y1130300D01*
X511810Y1117600D02*
X505460Y1111250D01*
X511810Y1117600D02*
X511810Y1120140D01*
X520700Y1129030D01*
X505460Y1111250D02*
X504196Y1110194D01*
X520700Y1129030D02*
X521200Y1129552D01*
X139700Y791210D02*
X139700Y704850D01*
X139700Y791210D02*
X369570Y1021080D01*
X369570Y1097280D01*
X373380Y1101090D01*
X421640Y1101090D01*
X429260Y1093470D01*
X487680Y1093470D01*
X504190Y1109980D01*
X139700Y704850D02*
X139460Y704580D01*
X504190Y1109980D02*
X504196Y1110194D01*
X521970Y1130300D02*
X554990Y1130300D01*
X556200Y1129552D01*
X521970Y1130300D02*
X521200Y1129552D01*
X90170Y527050D02*
X90170Y474980D01*
X90170Y527050D02*
X88900Y528320D01*
X90170Y474980D02*
X90700Y474600D01*
X88900Y528320D02*
X88660Y529580D01*
X746760Y191770D02*
X746760Y177800D01*
X760730Y163830D01*
X1050290Y161290D02*
X1112520Y99060D01*
X746760Y191770D02*
X746700Y192200D01*
X1112520Y99060D02*
X1113500Y98000D01*
X25400Y524510D02*
X25400Y528320D01*
X25400Y524510D02*
X82550Y467360D01*
X96520Y467360D01*
X97790Y466090D01*
X97790Y414020D01*
X96520Y412750D01*
X96520Y410210D01*
X313690Y193040D01*
X546100Y160020D02*
X553720Y160020D01*
X557530Y163830D01*
X25400Y528320D02*
X25160Y529580D01*
D46*
X760730Y163830D03*
X1050290Y161290D03*
X313690Y193040D03*
X546100Y160020D03*
X557530Y163830D03*
D45*
X756920Y180340D02*
X756920Y191770D01*
X756920Y180340D02*
X763270Y173990D01*
X548640Y177800D02*
X541020Y185420D01*
X111760Y185420D01*
X77470Y219710D01*
X756700Y192200D02*
X756920Y191770D01*
X77470Y219710D02*
X77400Y220000D01*
X-1270Y671830D02*
X-1270Y703580D01*
X-26670Y646430D02*
X-26670Y549910D01*
X-33020Y543560D01*
X-33020Y330200D01*
X76200Y220980D01*
X-1270Y703580D02*
X-240Y704580D01*
X76200Y220980D02*
X77400Y220000D01*
D46*
X763270Y173990D03*
X548640Y177800D03*
X-1270Y671830D03*
X-26670Y646430D03*
D45*
X805180Y621030D02*
X831850Y621030D01*
X805180Y621030D02*
X795020Y631190D01*
X831850Y621030D02*
X832300Y620900D01*
X795020Y631190D02*
X794150Y632250D01*
X76200Y542290D02*
X76200Y529590D01*
X76200Y542290D02*
X149860Y615950D01*
X505460Y615950D02*
X768350Y615950D01*
X775970Y623570D01*
X775970Y671830D01*
X782320Y678180D01*
X792480Y678180D01*
X793750Y676910D01*
X793750Y632460D01*
X76200Y529590D02*
X75960Y529580D01*
X793750Y632460D02*
X794150Y632250D01*
D46*
X149860Y615950D03*
X505460Y615950D03*
D45*
X769620Y632460D02*
X769620Y654050D01*
X769000Y654400D01*
X769620Y632460D02*
X768750Y632250D01*
X63500Y538480D02*
X63500Y529590D01*
X63500Y538480D02*
X152400Y627380D01*
X166370Y641350D02*
X308610Y783590D01*
X353060Y783590D01*
X364490Y772160D01*
X63500Y529590D02*
X63260Y529580D01*
X365000Y771500D02*
X364490Y772160D01*
X768350Y631190D02*
X768350Y628650D01*
X759460Y619760D01*
X516890Y619760D01*
X365760Y770890D01*
X768350Y631190D02*
X768750Y632250D01*
X365760Y770890D02*
X365000Y771500D01*
D46*
X152400Y627380D03*
X166370Y641350D03*
D45*
X102870Y1111250D02*
X96520Y1117600D01*
X109220Y1131570D02*
X118110Y1131570D01*
X120650Y1129030D01*
X103600Y1110578D02*
X102870Y1111250D01*
X120650Y1129030D02*
X120799Y1128936D01*
X166370Y1111250D02*
X177800Y1111250D01*
X177890Y1110508D01*
X374650Y1096010D02*
X392430Y1078230D01*
X393300Y1077000D01*
X154940Y1129030D02*
X121920Y1129030D01*
X154940Y1129030D02*
X155799Y1128936D01*
X121920Y1129030D02*
X120799Y1128936D01*
X-1270Y554990D02*
X-1270Y529590D01*
X-1270Y554990D02*
X-16510Y570230D01*
X-16510Y631190D01*
X1270Y648970D01*
X-240Y529580D02*
X-1270Y529590D01*
D46*
X96520Y1117600D03*
X109220Y1131570D03*
X166370Y1111250D03*
X374650Y1096010D03*
X1270Y648970D03*
D45*
X681990Y213360D02*
X681990Y193040D01*
X740410Y237490D02*
X773430Y237490D01*
X781050Y245110D01*
X681990Y193040D02*
X681700Y192200D01*
X781050Y245110D02*
X781600Y245500D01*
D46*
X681990Y213360D03*
X740410Y237490D03*
D45*
X687070Y218440D02*
X687070Y193040D01*
X687070Y218440D02*
X669290Y236220D01*
X669290Y261620D01*
X681990Y274320D01*
X734060Y274320D01*
X745490Y262890D01*
X745490Y254000D01*
X753110Y246380D01*
X687070Y193040D02*
X686700Y192200D01*
X752700Y245900D02*
X753110Y246380D01*
X692150Y210820D02*
X692150Y193040D01*
X764540Y266700D02*
X769620Y266700D01*
X773430Y262890D01*
X773430Y252730D01*
X767080Y246380D01*
X692150Y193040D02*
X691700Y192200D01*
X766600Y245800D02*
X767080Y246380D01*
D46*
X692150Y210820D03*
X764540Y266700D03*
D45*
X697230Y212090D02*
X697230Y193040D01*
X697230Y212090D02*
X671830Y237490D01*
X671830Y260350D01*
X683260Y271780D01*
X722630Y271780D01*
X730250Y264160D01*
X730250Y254000D01*
X737870Y246380D01*
X697230Y193040D02*
X696700Y192200D01*
X737700Y246100D02*
X737870Y246380D01*
X702310Y228600D02*
X702310Y193040D01*
X702310Y228600D02*
X689610Y241300D01*
X689610Y250190D01*
X690880Y251460D01*
X717550Y251460D01*
X722630Y246380D01*
X702310Y193040D02*
X701700Y192200D01*
X723000Y245600D02*
X722630Y246380D01*
X706120Y242570D02*
X706120Y193040D01*
X706120Y242570D02*
X708660Y245110D01*
X706120Y193040D02*
X706700Y192200D01*
X708660Y245110D02*
X709300Y245800D01*
X711200Y238760D02*
X711200Y193040D01*
X701040Y238760D02*
X701040Y241300D01*
X697230Y245110D01*
X711200Y193040D02*
X711700Y192200D01*
X697230Y245110D02*
X696100Y245900D01*
D46*
X711200Y238760D03*
X701040Y238760D03*
D45*
X726440Y199390D02*
X726440Y193040D01*
X726440Y199390D02*
X721360Y204470D01*
X697230Y218440D02*
X674370Y241300D01*
X674370Y251460D01*
X681990Y259080D01*
X726440Y193040D02*
X726700Y192200D01*
X681990Y259080D02*
X682000Y259300D01*
D46*
X721360Y204470D03*
X697230Y218440D03*
D45*
X775970Y219710D02*
X775970Y193040D01*
X775970Y219710D02*
X763270Y232410D01*
X595630Y246380D02*
X593090Y243840D01*
X580390Y243840D01*
X574040Y237490D01*
X775970Y193040D02*
X776700Y192200D01*
X574040Y237490D02*
X572845Y237100D01*
D46*
X763270Y232410D03*
X595630Y246380D03*
D45*
X782320Y200660D02*
X782320Y193040D01*
X636270Y236220D02*
X586740Y236220D01*
X781700Y192200D02*
X782320Y193040D01*
X586740Y236220D02*
X586600Y237200D01*
D46*
X782320Y200660D03*
X636270Y236220D03*
D45*
X433070Y1076960D02*
X421640Y1076960D01*
X433070Y1076960D02*
X449580Y1060450D01*
X421640Y1076960D02*
X421300Y1077000D01*
X449580Y1060450D02*
X450000Y1060400D01*
X828040Y546100D02*
X843280Y546100D01*
X853440Y535940D01*
X828040Y546100D02*
X827579Y546800D01*
X853440Y535940D02*
X853900Y534700D01*
X774700Y533400D02*
X774700Y525780D01*
X774700Y509270D01*
X774700Y533400D02*
X769620Y538480D01*
X774700Y509270D02*
X774900Y508200D01*
X769620Y538480D02*
X768750Y539150D01*
X816610Y546100D02*
X826770Y546100D01*
X816610Y546100D02*
X796290Y525780D01*
X774700Y525780D01*
X826770Y546100D02*
X827579Y546800D01*
X787400Y662940D02*
X787400Y670560D01*
X787400Y605790D02*
X848360Y544830D01*
X861060Y544830D01*
X863600Y542290D01*
X863600Y527050D01*
X862330Y525780D01*
X835660Y525780D01*
X828040Y533400D01*
X787400Y670560D02*
X787300Y671600D01*
X827421Y533800D02*
X828040Y533400D01*
D46*
X787400Y662940D03*
X787400Y605790D03*
M02*
