G04 EAGLE Gerber RS-274X export*
G75*
%MOMM*%
%FSLAX34Y34*%
%LPD*%
%INBottom Copper*%
%IPPOS*%
%AMOC8*
5,1,8,0,0,1.08239X$1,22.5*%
G01*
G04 Define Apertures*
%ADD10C,0.127000*%
%ADD11C,0.452400*%
G36*
X-28764Y649398D02*
X-29059Y649328D01*
X-29358Y649379D01*
X-29613Y649542D01*
X-29785Y649792D01*
X-29845Y650090D01*
X-29845Y704369D01*
X-52482Y727006D01*
X-52645Y727248D01*
X-52705Y727545D01*
X-52705Y957984D01*
X-52649Y958270D01*
X-52482Y958523D01*
X-51078Y959927D01*
X-51078Y962853D01*
X-53147Y964922D01*
X-56073Y964922D01*
X-58142Y962853D01*
X-58142Y959927D01*
X-56738Y958523D01*
X-56575Y958282D01*
X-56515Y957984D01*
X-56515Y725651D01*
X-43008Y712144D01*
X-42855Y711924D01*
X-42785Y711629D01*
X-42836Y711330D01*
X-42999Y711075D01*
X-43249Y710903D01*
X-43547Y710843D01*
X-98076Y710843D01*
X-98351Y710894D01*
X-98606Y711058D01*
X-98778Y711308D01*
X-98838Y711605D01*
X-98838Y1157660D01*
X-98787Y1157935D01*
X-98623Y1158190D01*
X-98373Y1158362D01*
X-98076Y1158422D01*
X105476Y1158422D01*
X105751Y1158371D01*
X106006Y1158207D01*
X106178Y1157957D01*
X106238Y1157660D01*
X106238Y1136606D01*
X107211Y1135633D01*
X107369Y1135403D01*
X107434Y1135107D01*
X107378Y1134809D01*
X107211Y1134556D01*
X105688Y1133033D01*
X105688Y1129827D01*
X105695Y1129797D01*
X105639Y1129499D01*
X105472Y1129246D01*
X97581Y1121355D01*
X97340Y1121192D01*
X97042Y1121132D01*
X95057Y1121132D01*
X92988Y1119063D01*
X92988Y1117078D01*
X92932Y1116792D01*
X92765Y1116539D01*
X31115Y1054889D01*
X31115Y684365D01*
X31059Y684079D01*
X30892Y683826D01*
X7016Y659950D01*
X6796Y659797D01*
X6501Y659727D01*
X6202Y659778D01*
X5947Y659941D01*
X5775Y660192D01*
X5715Y660489D01*
X5715Y699289D01*
X-29622Y734626D01*
X-29785Y734868D01*
X-29845Y735165D01*
X-29845Y945284D01*
X-29789Y945570D01*
X-29622Y945823D01*
X-28218Y947227D01*
X-28218Y949212D01*
X-28162Y949498D01*
X-27995Y949751D01*
X-14605Y963141D01*
X-14605Y971954D01*
X-14549Y972240D01*
X-14382Y972493D01*
X-12978Y973897D01*
X-12978Y976823D01*
X-15047Y978892D01*
X-17973Y978892D01*
X-20042Y976823D01*
X-20042Y973897D01*
X-18638Y972493D01*
X-18475Y972252D01*
X-18415Y971954D01*
X-18415Y965035D01*
X-18471Y964749D01*
X-18638Y964496D01*
X-28544Y954590D01*
X-28764Y954437D01*
X-29059Y954367D01*
X-29358Y954418D01*
X-29613Y954581D01*
X-29785Y954832D01*
X-29845Y955129D01*
X-29845Y978304D01*
X-29789Y978590D01*
X-29622Y978843D01*
X-28218Y980247D01*
X-28218Y983173D01*
X-30287Y985242D01*
X-33213Y985242D01*
X-35282Y983173D01*
X-35282Y980247D01*
X-33878Y978843D01*
X-33715Y978602D01*
X-33655Y978304D01*
X-33655Y956145D01*
X-33711Y955859D01*
X-33878Y955606D01*
X-38735Y950749D01*
X-38735Y732001D01*
X-24075Y717341D01*
X-23912Y717100D01*
X-23852Y716802D01*
X-23852Y714817D01*
X-21783Y712748D01*
X-18857Y712748D01*
X-16682Y714923D01*
X-16582Y715086D01*
X-16334Y715261D01*
X-16038Y715326D01*
X-15740Y715271D01*
X-15487Y715103D01*
X1682Y697934D01*
X1845Y697693D01*
X1905Y697395D01*
X1905Y675490D01*
X1858Y675226D01*
X1699Y674968D01*
X1451Y674793D01*
X1155Y674728D01*
X857Y674783D01*
X604Y674951D01*
X193Y675362D01*
X-2733Y675362D01*
X-4802Y673293D01*
X-4802Y671308D01*
X-4858Y671022D01*
X-5025Y670769D01*
X-25609Y650185D01*
X-25851Y650022D01*
X-26148Y649962D01*
X-28133Y649962D01*
X-28544Y649551D01*
X-28764Y649398D01*
G37*
G36*
X1597364Y51825D02*
X1597067Y51765D01*
X831269Y52359D01*
X830995Y52410D01*
X830740Y52574D01*
X830568Y52824D01*
X830508Y53121D01*
X830508Y149601D01*
X830511Y151005D01*
X830562Y151278D01*
X830725Y151533D01*
X830976Y151705D01*
X831273Y151765D01*
X1098069Y151765D01*
X1121976Y175672D01*
X1122218Y175835D01*
X1122515Y175895D01*
X1311044Y175895D01*
X1311330Y175839D01*
X1311583Y175672D01*
X1312987Y174268D01*
X1314972Y174268D01*
X1315258Y174212D01*
X1315511Y174045D01*
X1351335Y138221D01*
X1351498Y137980D01*
X1351558Y137682D01*
X1351558Y135697D01*
X1353627Y133628D01*
X1356553Y133628D01*
X1358622Y135697D01*
X1358622Y138623D01*
X1356553Y140692D01*
X1354568Y140692D01*
X1354282Y140748D01*
X1354029Y140915D01*
X1318205Y176739D01*
X1318042Y176981D01*
X1317982Y177278D01*
X1317982Y179263D01*
X1315913Y181332D01*
X1312987Y181332D01*
X1311583Y179928D01*
X1311342Y179765D01*
X1311044Y179705D01*
X1239609Y179705D01*
X1239345Y179752D01*
X1239087Y179911D01*
X1238912Y180159D01*
X1238847Y180455D01*
X1238902Y180753D01*
X1239070Y181006D01*
X1242695Y184631D01*
X1242695Y191643D01*
X1242746Y191918D01*
X1242910Y192173D01*
X1243160Y192345D01*
X1243457Y192405D01*
X1401599Y192405D01*
X1406099Y196905D01*
X1406341Y197068D01*
X1406638Y197128D01*
X1408623Y197128D01*
X1410692Y199197D01*
X1410692Y202123D01*
X1408623Y204192D01*
X1405697Y204192D01*
X1403628Y202123D01*
X1403628Y200138D01*
X1403572Y199852D01*
X1403405Y199599D01*
X1400244Y196438D01*
X1400003Y196275D01*
X1399705Y196215D01*
X1361290Y196215D01*
X1361026Y196262D01*
X1360768Y196421D01*
X1360593Y196669D01*
X1360528Y196965D01*
X1360583Y197263D01*
X1360751Y197516D01*
X1361162Y197927D01*
X1361162Y200853D01*
X1359093Y202922D01*
X1356167Y202922D01*
X1354763Y201518D01*
X1354522Y201355D01*
X1354224Y201295D01*
X791045Y201295D01*
X790759Y201351D01*
X790506Y201518D01*
X784379Y207645D01*
X751051Y207645D01*
X747821Y204415D01*
X747580Y204252D01*
X747282Y204192D01*
X745936Y204192D01*
X745672Y204239D01*
X745414Y204398D01*
X745239Y204646D01*
X745174Y204942D01*
X745229Y205240D01*
X745397Y205493D01*
X781685Y241781D01*
X781685Y333144D01*
X781741Y333430D01*
X781908Y333683D01*
X783312Y335087D01*
X783312Y338013D01*
X781243Y340082D01*
X778317Y340082D01*
X776248Y338013D01*
X776248Y335087D01*
X777652Y333683D01*
X777815Y333442D01*
X777875Y333144D01*
X777875Y302387D01*
X777824Y302112D01*
X777660Y301857D01*
X777410Y301685D01*
X777113Y301625D01*
X648805Y301625D01*
X648519Y301681D01*
X648266Y301848D01*
X633637Y316477D01*
X633484Y316697D01*
X633414Y316992D01*
X633465Y317291D01*
X633628Y317546D01*
X633828Y317683D01*
X635327Y319182D01*
X635568Y319345D01*
X635866Y319405D01*
X650644Y319405D01*
X650930Y319349D01*
X651183Y319182D01*
X652587Y317778D01*
X655513Y317778D01*
X657582Y319847D01*
X657582Y322773D01*
X655513Y324842D01*
X652587Y324842D01*
X651183Y323438D01*
X650942Y323275D01*
X650644Y323215D01*
X635866Y323215D01*
X635580Y323271D01*
X635327Y323438D01*
X633923Y324842D01*
X630997Y324842D01*
X628822Y322667D01*
X628722Y322504D01*
X628474Y322329D01*
X628178Y322264D01*
X627880Y322319D01*
X627627Y322487D01*
X618078Y332036D01*
X617915Y332278D01*
X617855Y332575D01*
X617855Y558950D01*
X617902Y559214D01*
X618061Y559472D01*
X618309Y559647D01*
X618605Y559712D01*
X618903Y559657D01*
X619156Y559489D01*
X619567Y559078D01*
X622493Y559078D01*
X624562Y561147D01*
X624562Y563132D01*
X624618Y563418D01*
X624785Y563671D01*
X727006Y665892D01*
X727248Y666055D01*
X727545Y666115D01*
X783740Y666115D01*
X784004Y666068D01*
X784262Y665909D01*
X784437Y665661D01*
X784502Y665365D01*
X784447Y665067D01*
X784279Y664814D01*
X783868Y664403D01*
X783868Y661477D01*
X785272Y660073D01*
X785435Y659832D01*
X785495Y659534D01*
X785495Y609196D01*
X785439Y608910D01*
X785272Y608657D01*
X783865Y607250D01*
X783821Y607003D01*
X783662Y606745D01*
X783414Y606570D01*
X783118Y606505D01*
X782820Y606560D01*
X782567Y606728D01*
X782513Y606782D01*
X779587Y606782D01*
X777518Y604713D01*
X777518Y601787D01*
X779587Y599718D01*
X782513Y599718D01*
X782932Y600137D01*
X783162Y600295D01*
X783458Y600360D01*
X783756Y600304D01*
X784009Y600137D01*
X785341Y598805D01*
X1117119Y598805D01*
X1121976Y603662D01*
X1122218Y603825D01*
X1122515Y603885D01*
X1152055Y603885D01*
X1152341Y603829D01*
X1152594Y603662D01*
X1158721Y597535D01*
X1270789Y597535D01*
X1274376Y601122D01*
X1274618Y601285D01*
X1274915Y601345D01*
X1301915Y601345D01*
X1302201Y601289D01*
X1302454Y601122D01*
X1355145Y548431D01*
X1355308Y548190D01*
X1355368Y547892D01*
X1355368Y545907D01*
X1355779Y545496D01*
X1355932Y545276D01*
X1356002Y544981D01*
X1355951Y544682D01*
X1355788Y544427D01*
X1355538Y544255D01*
X1355240Y544195D01*
X1275207Y544195D01*
X1274932Y544246D01*
X1274677Y544410D01*
X1274505Y544660D01*
X1274445Y544957D01*
X1274445Y568476D01*
X1274496Y568751D01*
X1274660Y569006D01*
X1274910Y569178D01*
X1275207Y569238D01*
X1276543Y569238D01*
X1278612Y571307D01*
X1278612Y574233D01*
X1276543Y576302D01*
X1274294Y576302D01*
X1274019Y576353D01*
X1273764Y576517D01*
X1273592Y576767D01*
X1273532Y577064D01*
X1273532Y578043D01*
X1271357Y580218D01*
X1271194Y580318D01*
X1271019Y580566D01*
X1270954Y580862D01*
X1271009Y581160D01*
X1271177Y581413D01*
X1276559Y586795D01*
X1276801Y586958D01*
X1277098Y587018D01*
X1279083Y587018D01*
X1281152Y589087D01*
X1281152Y592013D01*
X1279083Y594082D01*
X1276157Y594082D01*
X1274088Y592013D01*
X1274088Y590028D01*
X1274032Y589742D01*
X1273865Y589489D01*
X1260901Y576525D01*
X1260660Y576362D01*
X1260362Y576302D01*
X1259318Y576302D01*
X1259032Y576358D01*
X1258779Y576525D01*
X1240309Y594995D01*
X867006Y594995D01*
X866720Y595051D01*
X866467Y595218D01*
X865063Y596622D01*
X862137Y596622D01*
X860068Y594553D01*
X860068Y591627D01*
X862137Y589558D01*
X865063Y589558D01*
X866467Y590962D01*
X866708Y591125D01*
X867006Y591185D01*
X1102233Y591185D01*
X1102508Y591134D01*
X1102763Y590970D01*
X1102935Y590720D01*
X1102995Y590423D01*
X1102995Y442441D01*
X1227232Y318204D01*
X1227395Y317963D01*
X1227455Y317665D01*
X1227455Y237086D01*
X1227399Y236800D01*
X1227232Y236547D01*
X1225828Y235143D01*
X1225828Y232217D01*
X1227897Y230148D01*
X1230823Y230148D01*
X1232892Y232217D01*
X1232892Y235143D01*
X1231488Y236547D01*
X1231325Y236788D01*
X1231265Y237086D01*
X1231265Y319559D01*
X1107028Y443796D01*
X1106865Y444038D01*
X1106805Y444335D01*
X1106805Y453301D01*
X1106852Y453565D01*
X1107011Y453823D01*
X1107259Y453998D01*
X1107555Y454063D01*
X1107853Y454008D01*
X1108106Y453840D01*
X1322125Y239821D01*
X1322288Y239580D01*
X1322348Y239282D01*
X1322348Y237297D01*
X1324523Y235122D01*
X1324686Y235022D01*
X1324861Y234774D01*
X1324926Y234478D01*
X1324871Y234180D01*
X1324703Y233927D01*
X1301184Y210408D01*
X1300943Y210245D01*
X1300645Y210185D01*
X1071715Y210185D01*
X1071429Y210241D01*
X1071176Y210408D01*
X828860Y452724D01*
X828707Y452944D01*
X828637Y453239D01*
X828688Y453538D01*
X828851Y453793D01*
X829102Y453965D01*
X829399Y454025D01*
X983384Y454025D01*
X983670Y453969D01*
X983923Y453802D01*
X985327Y452398D01*
X988253Y452398D01*
X990322Y454467D01*
X990322Y457393D01*
X988253Y459462D01*
X985327Y459462D01*
X983923Y458058D01*
X983682Y457895D01*
X983384Y457835D01*
X830415Y457835D01*
X830129Y457891D01*
X829876Y458058D01*
X769139Y518795D01*
X740006Y518795D01*
X739720Y518851D01*
X739467Y519018D01*
X738451Y520034D01*
X738298Y520254D01*
X738228Y520549D01*
X738279Y520848D01*
X738442Y521103D01*
X738692Y521275D01*
X738990Y521335D01*
X902104Y521335D01*
X902390Y521279D01*
X902643Y521112D01*
X904047Y519708D01*
X906973Y519708D01*
X909148Y521883D01*
X909248Y522046D01*
X909496Y522221D01*
X909792Y522286D01*
X910090Y522231D01*
X910343Y522063D01*
X925885Y506521D01*
X926048Y506280D01*
X926108Y505982D01*
X926108Y503997D01*
X928177Y501928D01*
X931103Y501928D01*
X933172Y503997D01*
X933172Y506923D01*
X931103Y508992D01*
X929118Y508992D01*
X928832Y509048D01*
X928579Y509215D01*
X878359Y559435D01*
X663806Y559435D01*
X663520Y559491D01*
X663267Y559658D01*
X661863Y561062D01*
X658937Y561062D01*
X656868Y558993D01*
X656868Y556067D01*
X658937Y553998D01*
X661863Y553998D01*
X663267Y555402D01*
X663508Y555565D01*
X663806Y555625D01*
X876465Y555625D01*
X876751Y555569D01*
X877004Y555402D01*
X904333Y528073D01*
X904486Y527853D01*
X904556Y527558D01*
X904505Y527259D01*
X904342Y527004D01*
X904142Y526867D01*
X902643Y525368D01*
X902402Y525205D01*
X902104Y525145D01*
X735811Y525145D01*
X677545Y466879D01*
X677545Y312016D01*
X677489Y311730D01*
X677322Y311477D01*
X675918Y310073D01*
X675918Y307147D01*
X677987Y305078D01*
X680913Y305078D01*
X682982Y307147D01*
X682982Y310073D01*
X681578Y311477D01*
X681415Y311718D01*
X681355Y312016D01*
X681355Y464985D01*
X681411Y465271D01*
X681578Y465524D01*
X731767Y515713D01*
X731987Y515866D01*
X732282Y515936D01*
X732581Y515885D01*
X732836Y515722D01*
X732973Y515522D01*
X735137Y513358D01*
X738063Y513358D01*
X739467Y514762D01*
X739708Y514925D01*
X740006Y514985D01*
X763420Y514985D01*
X763684Y514938D01*
X763942Y514779D01*
X764117Y514531D01*
X764182Y514235D01*
X764127Y513937D01*
X763959Y513684D01*
X763548Y513273D01*
X763548Y510347D01*
X765617Y508278D01*
X767602Y508278D01*
X767888Y508222D01*
X768141Y508055D01*
X1069821Y206375D01*
X1302539Y206375D01*
X1344226Y248062D01*
X1344468Y248225D01*
X1344765Y248285D01*
X1535834Y248285D01*
X1536120Y248229D01*
X1536373Y248062D01*
X1537777Y246658D01*
X1540703Y246658D01*
X1542772Y248727D01*
X1542772Y251653D01*
X1541368Y253057D01*
X1541205Y253298D01*
X1541145Y253596D01*
X1541145Y470689D01*
X1474377Y537457D01*
X1474224Y537677D01*
X1474154Y537972D01*
X1474205Y538271D01*
X1474368Y538526D01*
X1474568Y538663D01*
X1476732Y540827D01*
X1476732Y543753D01*
X1474663Y545822D01*
X1471737Y545822D01*
X1471318Y545403D01*
X1471088Y545245D01*
X1470792Y545180D01*
X1470494Y545236D01*
X1470241Y545403D01*
X1345719Y669925D01*
X725651Y669925D01*
X622091Y566365D01*
X621850Y566202D01*
X621552Y566142D01*
X619567Y566142D01*
X619156Y565731D01*
X618936Y565578D01*
X618641Y565508D01*
X618342Y565559D01*
X618087Y565722D01*
X617915Y565972D01*
X617855Y566270D01*
X617855Y610389D01*
X468218Y760026D01*
X468055Y760268D01*
X467995Y760565D01*
X467995Y762404D01*
X468051Y762690D01*
X468218Y762943D01*
X469622Y764347D01*
X469622Y767273D01*
X467553Y769342D01*
X465568Y769342D01*
X465282Y769398D01*
X465029Y769565D01*
X184939Y1049655D01*
X41506Y1049655D01*
X41220Y1049711D01*
X40967Y1049878D01*
X39563Y1051282D01*
X36637Y1051282D01*
X36226Y1050871D01*
X36006Y1050718D01*
X35711Y1050648D01*
X35412Y1050699D01*
X35157Y1050862D01*
X34985Y1051112D01*
X34925Y1051410D01*
X34925Y1052995D01*
X34981Y1053281D01*
X35148Y1053534D01*
X95459Y1113845D01*
X95701Y1114008D01*
X95998Y1114068D01*
X97983Y1114068D01*
X100052Y1116137D01*
X100052Y1118122D01*
X100108Y1118408D01*
X100275Y1118661D01*
X108681Y1127067D01*
X108912Y1127225D01*
X109208Y1127290D01*
X109506Y1127235D01*
X109759Y1127067D01*
X127481Y1109345D01*
X162964Y1109345D01*
X163250Y1109289D01*
X163503Y1109122D01*
X164907Y1107718D01*
X166892Y1107718D01*
X167178Y1107662D01*
X167431Y1107495D01*
X180821Y1094105D01*
X371244Y1094105D01*
X371530Y1094049D01*
X371783Y1093882D01*
X373187Y1092478D01*
X376113Y1092478D01*
X378182Y1094547D01*
X378182Y1097473D01*
X376113Y1099542D01*
X373187Y1099542D01*
X371783Y1098138D01*
X371542Y1097975D01*
X371244Y1097915D01*
X182715Y1097915D01*
X182429Y1097971D01*
X182176Y1098138D01*
X170125Y1110189D01*
X169962Y1110431D01*
X169902Y1110728D01*
X169902Y1112713D01*
X167833Y1114782D01*
X164907Y1114782D01*
X163503Y1113378D01*
X163262Y1113215D01*
X162964Y1113155D01*
X129375Y1113155D01*
X129089Y1113211D01*
X128836Y1113378D01*
X112968Y1129246D01*
X112810Y1129476D01*
X112745Y1129772D01*
X112752Y1129808D01*
X112752Y1133033D01*
X112098Y1133687D01*
X111945Y1133907D01*
X111875Y1134202D01*
X111926Y1134501D01*
X112089Y1134756D01*
X112339Y1134928D01*
X112637Y1134988D01*
X631144Y1134988D01*
X632762Y1136606D01*
X632762Y1157476D01*
X632813Y1157751D01*
X632977Y1158006D01*
X633227Y1158178D01*
X633524Y1158238D01*
X817076Y1158238D01*
X817351Y1158187D01*
X817606Y1158023D01*
X817778Y1157773D01*
X817838Y1157476D01*
X817838Y719856D01*
X819456Y718238D01*
X1597067Y718238D01*
X1597342Y718187D01*
X1597597Y718023D01*
X1597769Y717773D01*
X1597829Y717476D01*
X1597829Y52527D01*
X1597778Y52252D01*
X1597614Y51996D01*
X1597364Y51825D01*
G37*
%LPC*%
G36*
X401127Y1072158D02*
X404053Y1072158D01*
X405457Y1073562D01*
X405698Y1073725D01*
X405996Y1073785D01*
X428779Y1073785D01*
X473919Y1118925D01*
X474161Y1119088D01*
X474458Y1119148D01*
X476443Y1119148D01*
X478512Y1121217D01*
X478512Y1124143D01*
X476443Y1126212D01*
X473517Y1126212D01*
X471448Y1124143D01*
X471448Y1122158D01*
X471392Y1121872D01*
X471225Y1121619D01*
X427424Y1077818D01*
X427183Y1077655D01*
X426885Y1077595D01*
X405996Y1077595D01*
X405710Y1077651D01*
X405457Y1077818D01*
X404053Y1079222D01*
X401127Y1079222D01*
X399723Y1077818D01*
X399482Y1077655D01*
X399184Y1077595D01*
X346545Y1077595D01*
X346259Y1077651D01*
X346006Y1077818D01*
X345385Y1078439D01*
X345222Y1078681D01*
X345162Y1078978D01*
X345162Y1080963D01*
X343093Y1083032D01*
X340167Y1083032D01*
X338098Y1080963D01*
X338098Y1078037D01*
X340167Y1075968D01*
X342152Y1075968D01*
X342438Y1075912D01*
X342691Y1075745D01*
X344651Y1073785D01*
X399184Y1073785D01*
X399470Y1073729D01*
X399723Y1073562D01*
X401127Y1072158D01*
G37*
G36*
X312227Y1004848D02*
X315153Y1004848D01*
X316557Y1006252D01*
X316798Y1006415D01*
X317096Y1006475D01*
X621434Y1006475D01*
X621720Y1006419D01*
X621973Y1006252D01*
X623377Y1004848D01*
X626303Y1004848D01*
X628372Y1006917D01*
X628372Y1009843D01*
X626303Y1011912D01*
X623377Y1011912D01*
X621973Y1010508D01*
X621732Y1010345D01*
X621434Y1010285D01*
X317096Y1010285D01*
X316810Y1010341D01*
X316557Y1010508D01*
X315153Y1011912D01*
X312227Y1011912D01*
X310158Y1009843D01*
X310158Y1006917D01*
X312227Y1004848D01*
G37*
G36*
X312227Y992148D02*
X315153Y992148D01*
X316557Y993552D01*
X316798Y993715D01*
X317096Y993775D01*
X655724Y993775D01*
X656010Y993719D01*
X656263Y993552D01*
X657667Y992148D01*
X660593Y992148D01*
X662662Y994217D01*
X662662Y997143D01*
X660593Y999212D01*
X657667Y999212D01*
X656263Y997808D01*
X656022Y997645D01*
X655724Y997585D01*
X317096Y997585D01*
X316810Y997641D01*
X316557Y997808D01*
X315153Y999212D01*
X312227Y999212D01*
X310158Y997143D01*
X310158Y994217D01*
X312227Y992148D01*
G37*
G36*
X1543735Y611650D02*
X1548085Y611650D01*
X1551160Y614725D01*
X1551160Y619075D01*
X1548085Y622150D01*
X1543735Y622150D01*
X1540660Y619075D01*
X1540660Y614725D01*
X1543735Y611650D01*
G37*
G36*
X1543735Y553850D02*
X1548085Y553850D01*
X1551160Y556925D01*
X1551160Y561275D01*
X1548085Y564350D01*
X1543735Y564350D01*
X1540660Y561275D01*
X1540660Y556925D01*
X1543735Y553850D01*
G37*
%LPD*%
G36*
X642087Y52833D02*
X641790Y52773D01*
X-97995Y52773D01*
X-98270Y52824D01*
X-98525Y52987D01*
X-98697Y53238D01*
X-98757Y53535D01*
X-98757Y524407D01*
X-98706Y524682D01*
X-98542Y524937D01*
X-98292Y525109D01*
X-97995Y525169D01*
X-39937Y525169D01*
X-38319Y526787D01*
X-38319Y705615D01*
X-38272Y705879D01*
X-38113Y706137D01*
X-37865Y706312D01*
X-37569Y706377D01*
X-37271Y706322D01*
X-37018Y706154D01*
X-33878Y703014D01*
X-33715Y702773D01*
X-33655Y702475D01*
X-33655Y601191D01*
X-7565Y575101D01*
X-7402Y574860D01*
X-7342Y574562D01*
X-7342Y572577D01*
X-5273Y570508D01*
X-2347Y570508D01*
X-278Y572577D01*
X-278Y575503D01*
X-2347Y577572D01*
X-4332Y577572D01*
X-4618Y577628D01*
X-4871Y577795D01*
X-29622Y602546D01*
X-29785Y602788D01*
X-29845Y603085D01*
X-29845Y642770D01*
X-29798Y643034D01*
X-29639Y643292D01*
X-29391Y643467D01*
X-29095Y643532D01*
X-28797Y643477D01*
X-28544Y643309D01*
X-28133Y642898D01*
X-25207Y642898D01*
X-23138Y644967D01*
X-23138Y646952D01*
X-23082Y647238D01*
X-22915Y647491D01*
X-2331Y668075D01*
X-2090Y668238D01*
X-1792Y668298D01*
X193Y668298D01*
X604Y668709D01*
X824Y668862D01*
X1119Y668932D01*
X1418Y668881D01*
X1673Y668718D01*
X1845Y668468D01*
X1905Y668170D01*
X1905Y658965D01*
X1849Y658679D01*
X1682Y658426D01*
X-5715Y651029D01*
X-5715Y590146D01*
X-5771Y589860D01*
X-5938Y589607D01*
X-7342Y588203D01*
X-7342Y585277D01*
X-5273Y583208D01*
X-2347Y583208D01*
X-278Y585277D01*
X-278Y588203D01*
X-1682Y589607D01*
X-1845Y589848D01*
X-1905Y590146D01*
X-1905Y645310D01*
X-1858Y645574D01*
X-1699Y645832D01*
X-1451Y646007D01*
X-1155Y646072D01*
X-857Y646017D01*
X-604Y645849D01*
X-193Y645438D01*
X2733Y645438D01*
X4802Y647507D01*
X4802Y650433D01*
X4383Y650852D01*
X4225Y651082D01*
X4160Y651378D01*
X4216Y651676D01*
X4383Y651929D01*
X34925Y682471D01*
X34925Y1044090D01*
X34972Y1044354D01*
X35131Y1044612D01*
X35379Y1044787D01*
X35675Y1044852D01*
X35973Y1044797D01*
X36226Y1044629D01*
X36637Y1044218D01*
X39563Y1044218D01*
X40967Y1045622D01*
X41208Y1045785D01*
X41506Y1045845D01*
X183045Y1045845D01*
X183331Y1045789D01*
X183584Y1045622D01*
X462335Y766871D01*
X462498Y766630D01*
X462558Y766332D01*
X462558Y764347D01*
X463962Y762943D01*
X464125Y762702D01*
X464185Y762404D01*
X464185Y758671D01*
X582110Y640746D01*
X582263Y640526D01*
X582333Y640231D01*
X582282Y639932D01*
X582119Y639677D01*
X581869Y639505D01*
X581571Y639445D01*
X470766Y639445D01*
X470480Y639501D01*
X470227Y639668D01*
X468823Y641072D01*
X465897Y641072D01*
X463828Y639003D01*
X463828Y636077D01*
X465897Y634008D01*
X468823Y634008D01*
X470227Y635412D01*
X470468Y635575D01*
X470766Y635635D01*
X580555Y635635D01*
X580841Y635579D01*
X581094Y635412D01*
X604575Y611931D01*
X604738Y611690D01*
X604798Y611392D01*
X604798Y609407D01*
X606867Y607338D01*
X609793Y607338D01*
X611968Y609513D01*
X612068Y609676D01*
X612316Y609851D01*
X612612Y609916D01*
X612910Y609861D01*
X613163Y609693D01*
X613822Y609034D01*
X613985Y608793D01*
X614045Y608495D01*
X614045Y487769D01*
X613998Y487505D01*
X613839Y487247D01*
X613591Y487072D01*
X613295Y487007D01*
X612997Y487062D01*
X612744Y487230D01*
X520288Y579686D01*
X520125Y579928D01*
X520065Y580225D01*
X520065Y589684D01*
X520121Y589970D01*
X520288Y590223D01*
X521692Y591627D01*
X521692Y594553D01*
X519623Y596622D01*
X516697Y596622D01*
X514628Y594553D01*
X514628Y591627D01*
X516032Y590223D01*
X516195Y589982D01*
X516255Y589684D01*
X516255Y578331D01*
X537303Y557283D01*
X537456Y557063D01*
X537526Y556768D01*
X537475Y556469D01*
X537312Y556214D01*
X537112Y556077D01*
X535613Y554578D01*
X535372Y554415D01*
X535074Y554355D01*
X265557Y554355D01*
X265282Y554406D01*
X265027Y554570D01*
X264855Y554820D01*
X264795Y555117D01*
X264795Y569125D01*
X264851Y569411D01*
X265018Y569664D01*
X273259Y577905D01*
X273501Y578068D01*
X273798Y578128D01*
X275783Y578128D01*
X277852Y580197D01*
X277852Y583123D01*
X275783Y585192D01*
X272857Y585192D01*
X270788Y583123D01*
X270788Y581138D01*
X270732Y580852D01*
X270565Y580599D01*
X265969Y576003D01*
X265738Y575845D01*
X265442Y575780D01*
X265144Y575835D01*
X264891Y576003D01*
X238310Y602584D01*
X238157Y602804D01*
X238087Y603099D01*
X238138Y603398D01*
X238301Y603653D01*
X238552Y603825D01*
X238849Y603885D01*
X512214Y603885D01*
X512500Y603829D01*
X512753Y603662D01*
X514157Y602258D01*
X517083Y602258D01*
X519152Y604327D01*
X519152Y607253D01*
X517083Y609322D01*
X514157Y609322D01*
X512753Y607918D01*
X512512Y607755D01*
X512214Y607695D01*
X154775Y607695D01*
X154489Y607751D01*
X154236Y607918D01*
X151037Y611117D01*
X150884Y611337D01*
X150814Y611632D01*
X150865Y611931D01*
X151028Y612186D01*
X151228Y612323D01*
X152727Y613822D01*
X152968Y613985D01*
X153266Y614045D01*
X502054Y614045D01*
X502340Y613989D01*
X502593Y613822D01*
X503997Y612418D01*
X506923Y612418D01*
X508992Y614487D01*
X508992Y617413D01*
X506923Y619482D01*
X503997Y619482D01*
X502593Y618078D01*
X502352Y617915D01*
X502054Y617855D01*
X286870Y617855D01*
X286606Y617902D01*
X286348Y618061D01*
X286173Y618309D01*
X286108Y618605D01*
X286163Y618903D01*
X286331Y619156D01*
X286742Y619567D01*
X286742Y622493D01*
X284673Y624562D01*
X282688Y624562D01*
X282402Y624618D01*
X282149Y624785D01*
X211609Y695325D01*
X74526Y695325D01*
X74240Y695381D01*
X73987Y695548D01*
X72583Y696952D01*
X69657Y696952D01*
X67588Y694883D01*
X67588Y691957D01*
X69657Y689888D01*
X72583Y689888D01*
X73987Y691292D01*
X74228Y691455D01*
X74526Y691515D01*
X80160Y691515D01*
X80424Y691468D01*
X80682Y691309D01*
X80857Y691061D01*
X80922Y690765D01*
X80867Y690467D01*
X80699Y690214D01*
X80288Y689803D01*
X80288Y686877D01*
X82357Y684808D01*
X84342Y684808D01*
X84628Y684752D01*
X84881Y684585D01*
X146627Y622839D01*
X146785Y622608D01*
X146850Y622312D01*
X146795Y622014D01*
X146627Y621761D01*
X142875Y618009D01*
X142875Y617309D01*
X142828Y617045D01*
X142669Y616787D01*
X142421Y616612D01*
X142125Y616547D01*
X141827Y616602D01*
X141574Y616770D01*
X92655Y665689D01*
X92492Y665931D01*
X92432Y666228D01*
X92432Y668213D01*
X90363Y670282D01*
X87437Y670282D01*
X85368Y668213D01*
X85368Y665287D01*
X87437Y663218D01*
X89422Y663218D01*
X89708Y663162D01*
X89961Y662995D01*
X151611Y601345D01*
X233845Y601345D01*
X234131Y601289D01*
X234384Y601122D01*
X257903Y577603D01*
X258056Y577383D01*
X258126Y577088D01*
X258075Y576789D01*
X257912Y576534D01*
X257712Y576397D01*
X255548Y574233D01*
X255548Y572248D01*
X255492Y571962D01*
X255325Y571709D01*
X241839Y558223D01*
X241608Y558065D01*
X241312Y558000D01*
X241014Y558055D01*
X240761Y558223D01*
X218385Y580599D01*
X218222Y580841D01*
X218162Y581138D01*
X218162Y583123D01*
X216093Y585192D01*
X213167Y585192D01*
X211098Y583123D01*
X211098Y580197D01*
X213167Y578128D01*
X215152Y578128D01*
X215438Y578072D01*
X215691Y577905D01*
X236917Y556679D01*
X237075Y556449D01*
X237140Y556153D01*
X237084Y555855D01*
X236917Y555602D01*
X235228Y553913D01*
X235228Y550987D01*
X237297Y548918D01*
X240223Y548918D01*
X242292Y550987D01*
X242292Y552972D01*
X242348Y553258D01*
X242515Y553511D01*
X258019Y569015D01*
X258261Y569178D01*
X258558Y569238D01*
X260223Y569238D01*
X260498Y569187D01*
X260753Y569023D01*
X260925Y568773D01*
X260985Y568476D01*
X260985Y374246D01*
X260929Y373960D01*
X260762Y373707D01*
X259358Y372303D01*
X259358Y369377D01*
X259769Y368966D01*
X259922Y368746D01*
X259992Y368451D01*
X259941Y368152D01*
X259778Y367897D01*
X259528Y367725D01*
X259230Y367665D01*
X206845Y367665D01*
X206559Y367721D01*
X206306Y367888D01*
X165920Y408274D01*
X165767Y408494D01*
X165697Y408789D01*
X165748Y409088D01*
X165911Y409343D01*
X166162Y409515D01*
X166459Y409575D01*
X194714Y409575D01*
X195000Y409519D01*
X195253Y409352D01*
X196657Y407948D01*
X199583Y407948D01*
X201652Y410017D01*
X201652Y412943D01*
X199583Y415012D01*
X196657Y415012D01*
X195253Y413608D01*
X195012Y413445D01*
X194714Y413385D01*
X167475Y413385D01*
X167189Y413441D01*
X166936Y413608D01*
X63445Y517099D01*
X63282Y517341D01*
X63222Y517638D01*
X63222Y519623D01*
X61153Y521692D01*
X58227Y521692D01*
X58093Y521558D01*
X57852Y521395D01*
X57554Y521335D01*
X47471Y521335D01*
X42576Y516440D01*
X42356Y516287D01*
X42061Y516217D01*
X41762Y516268D01*
X41507Y516431D01*
X41335Y516682D01*
X41275Y516979D01*
X41275Y519595D01*
X41331Y519881D01*
X41498Y520134D01*
X93441Y572077D01*
X93672Y572235D01*
X93968Y572300D01*
X94266Y572245D01*
X94519Y572077D01*
X124941Y541655D01*
X241704Y541655D01*
X241990Y541599D01*
X242243Y541432D01*
X243647Y540028D01*
X246573Y540028D01*
X248642Y542097D01*
X248642Y545023D01*
X246573Y547092D01*
X243647Y547092D01*
X242243Y545688D01*
X242002Y545525D01*
X241704Y545465D01*
X126835Y545465D01*
X126549Y545521D01*
X126296Y545688D01*
X79955Y592029D01*
X79792Y592271D01*
X79732Y592568D01*
X79732Y594553D01*
X77663Y596622D01*
X74737Y596622D01*
X72668Y594553D01*
X72668Y591627D01*
X74737Y589558D01*
X76722Y589558D01*
X77008Y589502D01*
X77261Y589335D01*
X90747Y575849D01*
X90905Y575618D01*
X90970Y575322D01*
X90915Y575024D01*
X90747Y574771D01*
X37465Y521489D01*
X37465Y512915D01*
X37409Y512629D01*
X37242Y512376D01*
X22613Y497747D01*
X22393Y497594D01*
X22098Y497524D01*
X21799Y497575D01*
X21544Y497738D01*
X21407Y497938D01*
X19243Y500102D01*
X17258Y500102D01*
X16972Y500158D01*
X16719Y500325D01*
X-55Y517099D01*
X-218Y517341D01*
X-278Y517638D01*
X-278Y519623D01*
X-2347Y521692D01*
X-5273Y521692D01*
X-7342Y519623D01*
X-7342Y516697D01*
X-5273Y514628D01*
X-3288Y514628D01*
X-3002Y514572D01*
X-2749Y514405D01*
X14025Y497631D01*
X14188Y497390D01*
X14248Y497092D01*
X14248Y495107D01*
X16423Y492932D01*
X16586Y492832D01*
X16761Y492584D01*
X16826Y492288D01*
X16771Y491990D01*
X16603Y491737D01*
X-49739Y425395D01*
X-49981Y425232D01*
X-50278Y425172D01*
X-52263Y425172D01*
X-54332Y423103D01*
X-54332Y420177D01*
X-52263Y418108D01*
X-49337Y418108D01*
X-47268Y420177D01*
X-47268Y422162D01*
X-47212Y422448D01*
X-47045Y422701D01*
X-13366Y456380D01*
X-13146Y456533D01*
X-12851Y456603D01*
X-12552Y456552D01*
X-12297Y456389D01*
X-12125Y456139D01*
X-12065Y455841D01*
X-12065Y304396D01*
X-12121Y304110D01*
X-12288Y303857D01*
X-13692Y302453D01*
X-13692Y299527D01*
X-11623Y297458D01*
X-8697Y297458D01*
X-6628Y299527D01*
X-6628Y302453D01*
X-8032Y303857D01*
X-8195Y304098D01*
X-8255Y304396D01*
X-8255Y457365D01*
X-8199Y457651D01*
X-8032Y457904D01*
X45936Y511872D01*
X46166Y512030D01*
X46462Y512095D01*
X46761Y512039D01*
X47013Y511872D01*
X48067Y510818D01*
X50993Y510818D01*
X52397Y512222D01*
X52638Y512385D01*
X52936Y512445D01*
X56045Y512445D01*
X56331Y512389D01*
X56584Y512222D01*
X203612Y365194D01*
X203775Y364953D01*
X203835Y364655D01*
X203835Y338925D01*
X203779Y338639D01*
X203612Y338386D01*
X106433Y241207D01*
X106213Y241054D01*
X105918Y240984D01*
X105619Y241035D01*
X105364Y241198D01*
X105227Y241398D01*
X103728Y242897D01*
X103565Y243138D01*
X103505Y243436D01*
X103505Y408074D01*
X103561Y408360D01*
X103728Y408613D01*
X105132Y410017D01*
X105132Y412943D01*
X103063Y415012D01*
X100137Y415012D01*
X98068Y412943D01*
X98068Y410017D01*
X99472Y408613D01*
X99635Y408372D01*
X99695Y408074D01*
X99695Y243436D01*
X99639Y243150D01*
X99472Y242897D01*
X98068Y241493D01*
X98068Y238567D01*
X100243Y236392D01*
X100406Y236292D01*
X100581Y236044D01*
X100646Y235748D01*
X100591Y235450D01*
X100423Y235197D01*
X88334Y223108D01*
X88093Y222945D01*
X87795Y222885D01*
X66906Y222885D01*
X66620Y222941D01*
X66367Y223108D01*
X64963Y224512D01*
X62037Y224512D01*
X59968Y222443D01*
X59968Y219517D01*
X62037Y217448D01*
X64963Y217448D01*
X66367Y218852D01*
X66608Y219015D01*
X66906Y219075D01*
X89689Y219075D01*
X207645Y337031D01*
X207645Y363093D01*
X207696Y363368D01*
X207860Y363623D01*
X208110Y363795D01*
X208407Y363855D01*
X264949Y363855D01*
X277495Y376401D01*
X277495Y415694D01*
X277551Y415980D01*
X277718Y416233D01*
X278861Y417376D01*
X279092Y417534D01*
X279388Y417599D01*
X279686Y417544D01*
X279939Y417376D01*
X281747Y415568D01*
X284673Y415568D01*
X286077Y416972D01*
X286318Y417135D01*
X286616Y417195D01*
X289725Y417195D01*
X290011Y417139D01*
X290264Y416972D01*
X510990Y196246D01*
X511143Y196026D01*
X511213Y195731D01*
X511162Y195432D01*
X510999Y195177D01*
X510749Y195005D01*
X510451Y194945D01*
X317096Y194945D01*
X316810Y195001D01*
X316557Y195168D01*
X315153Y196572D01*
X312227Y196572D01*
X310158Y194503D01*
X310158Y191577D01*
X312227Y189508D01*
X315153Y189508D01*
X316557Y190912D01*
X316798Y191075D01*
X317096Y191135D01*
X511975Y191135D01*
X512261Y191079D01*
X512514Y190912D01*
X542345Y161081D01*
X542508Y160840D01*
X542568Y160542D01*
X542568Y158557D01*
X544637Y156488D01*
X547563Y156488D01*
X549738Y158663D01*
X549838Y158826D01*
X550086Y159001D01*
X550382Y159066D01*
X550680Y159011D01*
X550933Y158843D01*
X558011Y151765D01*
X642178Y151765D01*
X642454Y151713D01*
X642710Y151549D01*
X642880Y151299D01*
X642940Y151001D01*
X642938Y150009D01*
X642938Y150008D01*
X642552Y53532D01*
X642501Y53260D01*
X642337Y53005D01*
X642087Y52833D01*
G37*
%LPC*%
G36*
X166177Y470178D02*
X169103Y470178D01*
X170507Y471582D01*
X170748Y471745D01*
X171046Y471805D01*
X225194Y471805D01*
X225480Y471749D01*
X225733Y471582D01*
X227137Y470178D01*
X230063Y470178D01*
X232132Y472247D01*
X232132Y475173D01*
X230063Y477242D01*
X227137Y477242D01*
X225733Y475838D01*
X225492Y475675D01*
X225194Y475615D01*
X171046Y475615D01*
X170760Y475671D01*
X170507Y475838D01*
X169103Y477242D01*
X166177Y477242D01*
X164108Y475173D01*
X164108Y472247D01*
X166177Y470178D01*
G37*
%LPD*%
G36*
X672293Y175955D02*
X671995Y175895D01*
X575145Y175895D01*
X574859Y175951D01*
X574606Y176118D01*
X324639Y426085D01*
X279881Y426085D01*
X276651Y422855D01*
X276410Y422692D01*
X276112Y422632D01*
X274127Y422632D01*
X272058Y420563D01*
X272058Y417637D01*
X273462Y416233D01*
X273625Y415992D01*
X273685Y415694D01*
X273685Y378295D01*
X273629Y378009D01*
X273462Y377756D01*
X267723Y372017D01*
X267503Y371864D01*
X267208Y371794D01*
X266909Y371845D01*
X266654Y372008D01*
X266517Y372208D01*
X265018Y373707D01*
X264855Y373948D01*
X264795Y374246D01*
X264795Y549783D01*
X264846Y550058D01*
X265010Y550313D01*
X265260Y550485D01*
X265557Y550545D01*
X535074Y550545D01*
X535360Y550489D01*
X535613Y550322D01*
X537017Y548918D01*
X539943Y548918D01*
X542118Y551093D01*
X542218Y551256D01*
X542466Y551431D01*
X542762Y551496D01*
X543060Y551441D01*
X543313Y551273D01*
X611282Y483304D01*
X611445Y483063D01*
X611505Y482765D01*
X611505Y329411D01*
X648181Y292735D01*
X667154Y292735D01*
X667440Y292679D01*
X667693Y292512D01*
X669097Y291108D01*
X672023Y291108D01*
X674092Y293177D01*
X674092Y296103D01*
X673681Y296514D01*
X673528Y296734D01*
X673458Y297029D01*
X673509Y297328D01*
X673672Y297583D01*
X673922Y297755D01*
X674220Y297815D01*
X777113Y297815D01*
X777388Y297764D01*
X777643Y297600D01*
X777815Y297350D01*
X777875Y297053D01*
X777875Y276710D01*
X777828Y276446D01*
X777669Y276188D01*
X777421Y276013D01*
X777125Y275948D01*
X776827Y276003D01*
X776574Y276171D01*
X776163Y276582D01*
X774178Y276582D01*
X773892Y276638D01*
X773639Y276805D01*
X772949Y277495D01*
X629755Y277495D01*
X629469Y277551D01*
X629216Y277718D01*
X544775Y362159D01*
X544612Y362401D01*
X544552Y362698D01*
X544552Y364683D01*
X542483Y366752D01*
X539557Y366752D01*
X537488Y364683D01*
X537488Y361757D01*
X539557Y359688D01*
X541542Y359688D01*
X541828Y359632D01*
X542081Y359465D01*
X625290Y276256D01*
X625443Y276036D01*
X625513Y275741D01*
X625462Y275442D01*
X625299Y275187D01*
X625049Y275015D01*
X624751Y274955D01*
X621511Y274955D01*
X596691Y250135D01*
X596450Y249972D01*
X596152Y249912D01*
X594167Y249912D01*
X591992Y247737D01*
X591892Y247574D01*
X591644Y247399D01*
X591348Y247334D01*
X591050Y247389D01*
X590797Y247557D01*
X572715Y265639D01*
X572552Y265881D01*
X572492Y266178D01*
X572492Y268163D01*
X570423Y270232D01*
X567497Y270232D01*
X565428Y268163D01*
X565428Y265237D01*
X567497Y263168D01*
X569482Y263168D01*
X569768Y263112D01*
X570021Y262945D01*
X593571Y239395D01*
X632610Y239395D01*
X632874Y239348D01*
X633132Y239189D01*
X633307Y238941D01*
X633372Y238645D01*
X633317Y238347D01*
X633149Y238094D01*
X632738Y237683D01*
X632738Y234757D01*
X634807Y232688D01*
X636792Y232688D01*
X637078Y232632D01*
X637331Y232465D01*
X688433Y181363D01*
X688586Y181143D01*
X688656Y180848D01*
X688605Y180549D01*
X688442Y180294D01*
X688242Y180157D01*
X686743Y178658D01*
X686502Y178495D01*
X686204Y178435D01*
X674851Y178435D01*
X672534Y176118D01*
X672293Y175955D01*
G37*
G36*
X678004Y214379D02*
X677708Y214314D01*
X677410Y214369D01*
X677157Y214537D01*
X661615Y230079D01*
X661452Y230321D01*
X661392Y230618D01*
X661392Y232603D01*
X659323Y234672D01*
X657338Y234672D01*
X657052Y234728D01*
X656799Y234895D01*
X648489Y243205D01*
X599290Y243205D01*
X599026Y243252D01*
X598768Y243411D01*
X598593Y243659D01*
X598528Y243955D01*
X598583Y244253D01*
X598751Y244506D01*
X599162Y244917D01*
X599162Y246902D01*
X599218Y247188D01*
X599385Y247441D01*
X622866Y270922D01*
X623108Y271085D01*
X623405Y271145D01*
X762150Y271145D01*
X762414Y271098D01*
X762672Y270939D01*
X762847Y270691D01*
X762912Y270395D01*
X762857Y270097D01*
X762689Y269844D01*
X761008Y268163D01*
X761008Y265237D01*
X762412Y263833D01*
X762575Y263592D01*
X762635Y263294D01*
X762635Y256375D01*
X762579Y256089D01*
X762412Y255836D01*
X745243Y238667D01*
X745023Y238514D01*
X744728Y238444D01*
X744429Y238495D01*
X744174Y238658D01*
X744037Y238858D01*
X741873Y241022D01*
X738947Y241022D01*
X736878Y238953D01*
X736878Y236968D01*
X736822Y236682D01*
X736655Y236429D01*
X736034Y235808D01*
X735793Y235645D01*
X735495Y235585D01*
X714860Y235585D01*
X714596Y235632D01*
X714338Y235791D01*
X714163Y236039D01*
X714098Y236335D01*
X714153Y236633D01*
X714321Y236886D01*
X714732Y237297D01*
X714732Y240223D01*
X712663Y242292D01*
X709737Y242292D01*
X708333Y240888D01*
X708092Y240725D01*
X707794Y240665D01*
X704446Y240665D01*
X704160Y240721D01*
X703907Y240888D01*
X702503Y242292D01*
X699577Y242292D01*
X697508Y240223D01*
X697508Y237297D01*
X699683Y235122D01*
X699846Y235022D01*
X700021Y234774D01*
X700086Y234478D01*
X700031Y234180D01*
X699863Y233927D01*
X683051Y217115D01*
X682810Y216952D01*
X682512Y216892D01*
X680527Y216892D01*
X678352Y214717D01*
X678252Y214554D01*
X678004Y214379D01*
G37*
D10*
X429260Y1083310D02*
X429260Y1099820D01*
X11430Y581660D02*
X-25400Y544830D01*
X-22860Y976630D02*
X-19050Y980440D01*
X27940Y980440D01*
X377190Y1099820D02*
X429260Y1099820D01*
X377190Y1099820D02*
X360680Y1116330D01*
X185420Y1116330D01*
X721360Y266700D02*
X734060Y266700D01*
X671830Y185420D02*
X671830Y180340D01*
X671830Y185420D02*
X675640Y189230D01*
X58420Y581660D02*
X11430Y581660D01*
X58420Y581660D02*
X74930Y598170D01*
X223520Y598170D01*
D11*
X429260Y1099820D03*
X429260Y1083310D03*
X-25400Y544830D03*
X11430Y581660D03*
X-22860Y976630D03*
X27940Y980440D03*
X185420Y1116330D03*
X734060Y266700D03*
X721360Y266700D03*
X671830Y180340D03*
X675640Y189230D03*
X223520Y598170D03*
D10*
X1272540Y570230D02*
X1272540Y542290D01*
X1272540Y524510D01*
X1272540Y570230D02*
X1275080Y572770D01*
X1272540Y542290D02*
X1432560Y542290D01*
X1240790Y520700D02*
X1173480Y520700D01*
X1240790Y520700D02*
X1245870Y515620D01*
X1263650Y515620D01*
X1272540Y524510D01*
X518160Y579120D02*
X518160Y593090D01*
X518160Y579120D02*
X613410Y483870D01*
X613410Y330200D01*
X648970Y294640D01*
X670560Y294640D01*
X1173480Y458470D02*
X1173480Y520700D01*
D11*
X1272540Y524510D03*
X1275080Y572770D03*
X1432560Y542290D03*
X1173480Y520700D03*
X518160Y593090D03*
X670560Y294640D03*
X1173480Y458470D03*
D10*
X1397000Y535940D02*
X1432560Y535940D01*
X1397000Y535940D02*
X1341120Y480060D01*
X1188720Y480060D01*
X986790Y455930D02*
X829310Y455930D01*
X768350Y516890D01*
X736600Y516890D01*
D11*
X1432560Y535940D03*
X1188720Y480060D03*
X986790Y455930D03*
X736600Y516890D03*
D10*
X1470660Y542290D02*
X1473200Y542290D01*
X1470660Y542290D02*
X1344930Y668020D01*
X726440Y668020D01*
X621030Y562610D01*
D11*
X1473200Y542290D03*
X621030Y562610D03*
D10*
X679450Y466090D02*
X679450Y308610D01*
X679450Y466090D02*
X736600Y523240D01*
X905510Y523240D01*
X1160780Y604520D02*
X1160780Y629920D01*
D11*
X679450Y308610D03*
X905510Y523240D03*
X1160780Y604520D03*
X1160780Y629920D03*
D10*
X474980Y1122680D02*
X427990Y1075690D01*
X402590Y1075690D01*
X-3810Y518160D02*
X17780Y496570D01*
X345440Y1075690D02*
X402590Y1075690D01*
X345440Y1075690D02*
X341630Y1079500D01*
X1270000Y576580D02*
X1270000Y543560D01*
X1258570Y532130D02*
X1247140Y520700D01*
X1258570Y532130D02*
X1270000Y543560D01*
X1258570Y532130D02*
X1250950Y539750D01*
X1123950Y539750D01*
D11*
X474980Y1122680D03*
X402590Y1075690D03*
X17780Y496570D03*
X-3810Y518160D03*
X341630Y1079500D03*
X1270000Y576580D03*
X1247140Y520700D03*
X1123950Y539750D03*
D10*
X1112520Y491490D02*
X1163320Y440690D01*
X1112520Y491490D02*
X1112520Y500380D01*
X1115060Y502920D01*
X1115060Y506730D01*
X1111250Y510540D01*
D11*
X1163320Y440690D03*
X1111250Y510540D03*
D10*
X778510Y181610D02*
X731520Y181610D01*
X778510Y181610D02*
X791210Y194310D01*
X1240790Y194310D02*
X1400810Y194310D01*
X1240790Y194310D02*
X791210Y194310D01*
X1400810Y194310D02*
X1407160Y200660D01*
X-16510Y963930D02*
X-16510Y975360D01*
X-16510Y963930D02*
X-31750Y948690D01*
X166370Y411480D02*
X198120Y411480D01*
X166370Y411480D02*
X59690Y518160D01*
X-10160Y458470D02*
X-10160Y300990D01*
X-10160Y458470D02*
X44450Y513080D01*
X44450Y515620D01*
X48260Y519430D01*
X58420Y519430D01*
X59690Y518160D01*
X-31750Y734060D02*
X-31750Y948690D01*
X-31750Y734060D02*
X3810Y698500D01*
X3810Y657860D01*
X-3810Y650240D01*
X-3810Y586740D01*
X1240790Y194310D02*
X1240790Y185420D01*
X1235710Y180340D01*
X1120140Y180340D01*
X1096010Y156210D01*
X593090Y156210D01*
X590550Y158750D01*
D11*
X731520Y181610D03*
X1407160Y200660D03*
X-16510Y975360D03*
X-31750Y948690D03*
X198120Y411480D03*
X59690Y518160D03*
X-10160Y300990D03*
X-3810Y586740D03*
X590550Y158750D03*
D10*
X675640Y176530D02*
X689610Y176530D01*
X675640Y176530D02*
X673100Y173990D01*
X574040Y173990D01*
X323850Y424180D01*
X280670Y424180D01*
X275590Y419100D01*
X57150Y514350D02*
X49530Y514350D01*
X57150Y514350D02*
X205740Y365760D01*
X264160Y365760D01*
X275590Y377190D01*
X275590Y419100D01*
X-54610Y726440D02*
X-54610Y961390D01*
X-54610Y726440D02*
X-31750Y703580D01*
X-31750Y601980D01*
X-3810Y574040D01*
X63500Y220980D02*
X88900Y220980D01*
X205740Y337820D01*
X205740Y365760D01*
X793750Y186690D02*
X1235710Y186690D01*
X793750Y186690D02*
X792480Y187960D01*
X788670Y187960D01*
X779780Y179070D01*
X735330Y179070D01*
X732790Y176530D01*
X689610Y176530D01*
D11*
X689610Y176530D03*
X275590Y419100D03*
X49530Y514350D03*
X-54610Y961390D03*
X-3810Y574040D03*
X63500Y220980D03*
X1235710Y186690D03*
D10*
X1109980Y454660D02*
X1109980Y504190D01*
X1109980Y454660D02*
X1325880Y238760D01*
X245110Y543560D02*
X125730Y543560D01*
X93980Y575310D02*
X76200Y593090D01*
X93980Y575310D02*
X125730Y543560D01*
X-31750Y955040D02*
X-31750Y981710D01*
X-31750Y955040D02*
X-36830Y949960D01*
X-36830Y732790D01*
X-20320Y716280D01*
X39370Y511810D02*
X-50800Y421640D01*
X39370Y511810D02*
X39370Y520700D01*
X93980Y575310D01*
X877570Y557530D02*
X929640Y505460D01*
X877570Y557530D02*
X660400Y557530D01*
D11*
X1109980Y504190D03*
X1325880Y238760D03*
X245110Y543560D03*
X76200Y593090D03*
X-31750Y981710D03*
X-20320Y716280D03*
X-50800Y421640D03*
X929640Y505460D03*
X660400Y557530D03*
D10*
X184150Y1047750D02*
X38100Y1047750D01*
X184150Y1047750D02*
X466090Y765810D01*
X779780Y242570D02*
X721360Y184150D01*
X779780Y299720D02*
X779780Y336550D01*
X779780Y299720D02*
X779780Y242570D01*
X1159510Y534670D02*
X1249680Y534670D01*
X1159510Y534670D02*
X1117600Y492760D01*
X466090Y759460D02*
X466090Y765810D01*
X466090Y759460D02*
X615950Y609600D01*
X615950Y331470D01*
X647700Y299720D01*
X779780Y299720D01*
D11*
X38100Y1047750D03*
X466090Y765810D03*
X721360Y184150D03*
X779780Y336550D03*
X1249680Y534670D03*
X1117600Y492760D03*
D10*
X654050Y321310D02*
X632460Y321310D01*
D11*
X632460Y321310D03*
X654050Y321310D03*
D10*
X787400Y182880D02*
X791210Y182880D01*
X787400Y182880D02*
X773430Y168910D01*
X547370Y168910D01*
X543560Y172720D01*
X541020Y172720D01*
X537210Y176530D01*
X537210Y199390D01*
D11*
X791210Y182880D03*
X537210Y199390D03*
D10*
X605790Y161290D02*
X704850Y161290D01*
X605790Y161290D02*
X603250Y163830D01*
X579120Y163830D01*
X576580Y161290D01*
X548640Y184150D02*
X548640Y193040D01*
X548640Y184150D02*
X542290Y177800D01*
D11*
X704850Y161290D03*
X576580Y161290D03*
X548640Y193040D03*
X542290Y177800D03*
D10*
X101600Y240030D02*
X101600Y411480D01*
X723900Y200660D02*
X731520Y200660D01*
X723900Y200660D02*
X722630Y199390D01*
X689610Y199390D01*
X657860Y231140D01*
X789940Y199390D02*
X1357630Y199390D01*
X789940Y199390D02*
X783590Y205740D01*
X751840Y205740D01*
X746760Y200660D01*
X594360Y241300D02*
X568960Y266700D01*
X594360Y241300D02*
X647700Y241300D01*
X657860Y231140D01*
D11*
X101600Y411480D03*
X101600Y240030D03*
X731520Y200660D03*
X657860Y231140D03*
X1357630Y199390D03*
X746760Y200660D03*
X568960Y266700D03*
D10*
X1314450Y177800D02*
X1355090Y137160D01*
X228600Y473710D02*
X167640Y473710D01*
X1121410Y177800D02*
X1314450Y177800D01*
X1121410Y177800D02*
X1097280Y153670D01*
X558800Y153670D01*
X542290Y170180D01*
X539750Y170180D01*
X290830Y419100D01*
X283210Y419100D01*
D11*
X1355090Y137160D03*
X1314450Y177800D03*
X228600Y473710D03*
X167640Y473710D03*
X283210Y419100D03*
D10*
X313690Y1008380D02*
X624840Y1008380D01*
D11*
X313690Y1008380D03*
X624840Y1008380D03*
D10*
X659130Y995680D02*
X313690Y995680D01*
D11*
X313690Y995680D03*
X659130Y995680D03*
D10*
X194310Y621030D02*
X166370Y648970D01*
D11*
X166370Y648970D03*
X194310Y621030D03*
D10*
X1259840Y572770D02*
X1277620Y590550D01*
X581660Y637540D02*
X467360Y637540D01*
X581660Y637540D02*
X608330Y610870D01*
X1104900Y593090D02*
X1239520Y593090D01*
X1104900Y593090D02*
X863600Y593090D01*
X1239520Y593090D02*
X1259840Y572770D01*
X1229360Y318770D02*
X1229360Y233680D01*
X1229360Y318770D02*
X1104900Y443230D01*
X1104900Y593090D01*
D11*
X1259840Y572770D03*
X1277620Y590550D03*
X467360Y637540D03*
X608330Y610870D03*
X863600Y593090D03*
X1229360Y233680D03*
D10*
X1360170Y553720D02*
X1455420Y553720D01*
X1539240Y469900D01*
X1539240Y250190D01*
X262890Y552450D02*
X262890Y570230D01*
X262890Y552450D02*
X262890Y370840D01*
X265430Y572770D02*
X274320Y581660D01*
X265430Y572770D02*
X262890Y570230D01*
X152400Y603250D02*
X88900Y666750D01*
X152400Y603250D02*
X234950Y603250D01*
X265430Y572770D01*
X262890Y552450D02*
X538480Y552450D01*
X1343660Y250190D02*
X1539240Y250190D01*
X1343660Y250190D02*
X1301750Y208280D01*
X1070610Y208280D01*
X767080Y511810D01*
D11*
X1360170Y553720D03*
X1539240Y250190D03*
X262890Y370840D03*
X274320Y581660D03*
X88900Y666750D03*
X538480Y552450D03*
X767080Y511810D03*
D10*
X259080Y572770D02*
X241300Y554990D01*
X238760Y552450D01*
X151130Y621030D02*
X149860Y622300D01*
X83820Y688340D01*
X151130Y621030D02*
X175260Y621030D01*
X214630Y581660D02*
X241300Y554990D01*
X1358900Y547370D02*
X1457960Y547370D01*
X1534160Y471170D01*
X1534160Y269240D01*
X783590Y603250D02*
X781050Y603250D01*
X783590Y603250D02*
X786130Y600710D01*
X1116330Y600710D01*
X1121410Y605790D01*
X1153160Y605790D01*
X1159510Y599440D01*
X1270000Y599440D01*
X1273810Y603250D01*
X1303020Y603250D01*
X1358900Y547370D01*
X149860Y622300D02*
X144780Y617220D01*
X144780Y614680D01*
X153670Y605790D01*
X515620Y605790D01*
D11*
X238760Y552450D03*
X259080Y572770D03*
X83820Y688340D03*
X175260Y621030D03*
X214630Y581660D03*
X1358900Y547370D03*
X1534160Y269240D03*
X781050Y603250D03*
X515620Y605790D03*
D10*
X801370Y163830D02*
X1046480Y163830D01*
X801370Y163830D02*
X767080Y163830D01*
X1046480Y163830D02*
X1049020Y166370D01*
X1099820Y166370D01*
X210820Y693420D02*
X71120Y693420D01*
X210820Y693420D02*
X283210Y621030D01*
X541020Y363220D02*
X628650Y275590D01*
X772160Y275590D01*
X774700Y273050D01*
X801370Y177800D02*
X801370Y163830D01*
D11*
X767080Y163830D03*
X1099820Y166370D03*
X71120Y693420D03*
X283210Y621030D03*
X541020Y363220D03*
X774700Y273050D03*
X801370Y177800D03*
D10*
X765810Y158750D02*
X760730Y163830D01*
X765810Y158750D02*
X1047750Y158750D01*
X1050290Y161290D01*
X513080Y193040D02*
X313690Y193040D01*
X513080Y193040D02*
X546100Y160020D01*
X557530Y163830D02*
X572770Y163830D01*
X575310Y166370D01*
X758190Y166370D01*
X760730Y163830D01*
D11*
X760730Y163830D03*
X1050290Y161290D03*
X313690Y193040D03*
X546100Y160020D03*
X557530Y163830D03*
D10*
X734060Y173990D02*
X763270Y173990D01*
X734060Y173990D02*
X731520Y171450D01*
X554990Y171450D01*
X548640Y177800D01*
X-1270Y671830D02*
X-26670Y646430D01*
D11*
X763270Y173990D03*
X548640Y177800D03*
X-1270Y671830D03*
X-26670Y646430D03*
D10*
X149860Y615950D02*
X505460Y615950D01*
D11*
X149860Y615950D03*
X505460Y615950D03*
D10*
X166370Y641350D02*
X152400Y627380D01*
D11*
X152400Y627380D03*
X166370Y641350D03*
D10*
X96520Y1117600D02*
X109220Y1130300D01*
X128270Y1111250D02*
X166370Y1111250D01*
X128270Y1111250D02*
X109220Y1130300D01*
X109220Y1131570D01*
X181610Y1096010D02*
X374650Y1096010D01*
X181610Y1096010D02*
X166370Y1111250D01*
X1270Y651510D02*
X1270Y648970D01*
X1270Y651510D02*
X33020Y683260D01*
X33020Y1054100D01*
X96520Y1117600D01*
D11*
X96520Y1117600D03*
X109220Y1131570D03*
X166370Y1111250D03*
X374650Y1096010D03*
X1270Y648970D03*
D10*
X681990Y213360D02*
X702310Y233680D01*
X736600Y233680D01*
X740410Y237490D01*
D11*
X681990Y213360D03*
X740410Y237490D03*
D10*
X692150Y219710D02*
X692150Y210820D01*
X692150Y219710D02*
X703580Y231140D01*
X740410Y231140D01*
X764540Y255270D01*
X764540Y266700D01*
D11*
X692150Y210820D03*
X764540Y266700D03*
D10*
X711200Y238760D02*
X701040Y238760D01*
D11*
X711200Y238760D03*
X701040Y238760D03*
D10*
X711200Y204470D02*
X721360Y204470D01*
X711200Y204470D02*
X697230Y218440D01*
D11*
X721360Y204470D03*
X697230Y218440D03*
D10*
X763270Y232410D02*
X763270Y250190D01*
X769620Y256540D01*
X769620Y267970D01*
X764540Y273050D01*
X622300Y273050D01*
X595630Y246380D01*
D11*
X763270Y232410D03*
X595630Y246380D03*
D10*
X754380Y200660D02*
X782320Y200660D01*
X754380Y200660D02*
X740410Y186690D01*
X730250Y186690D01*
X722630Y179070D01*
X693420Y179070D01*
X636270Y236220D01*
D11*
X782320Y200660D03*
X636270Y236220D03*
D10*
X787400Y605790D02*
X787400Y662940D01*
D11*
X787400Y662940D03*
X787400Y605790D03*
M02*
