G04 EAGLE Gerber RS-274X export*
G75*
%MOMM*%
%FSLAX34Y34*%
%LPD*%
%INSoldermask Bottom*%
%IPPOS*%
%AMOC8*
5,1,8,0,0,1.08239X$1,22.5*%
G01*
G04 Define Apertures*
%ADD10C,0.853200*%
%ADD11C,0.655600*%
D10*
X1545910Y559100D03*
X1545910Y616900D03*
D11*
X429260Y1099820D03*
X429260Y1083310D03*
X-25400Y544830D03*
X11430Y581660D03*
X-22860Y976630D03*
X27940Y980440D03*
X185420Y1116330D03*
X734060Y266700D03*
X721360Y266700D03*
X671830Y180340D03*
X675640Y189230D03*
X223520Y598170D03*
X1272540Y524510D03*
X1275080Y572770D03*
X1432560Y542290D03*
X1173480Y520700D03*
X518160Y593090D03*
X670560Y294640D03*
X1173480Y458470D03*
X1432560Y535940D03*
X1188720Y480060D03*
X986790Y455930D03*
X736600Y516890D03*
X1473200Y542290D03*
X621030Y562610D03*
X679450Y308610D03*
X905510Y523240D03*
X1160780Y604520D03*
X1160780Y629920D03*
X474980Y1122680D03*
X402590Y1075690D03*
X17780Y496570D03*
X-3810Y518160D03*
X341630Y1079500D03*
X1270000Y576580D03*
X1247140Y520700D03*
X1123950Y539750D03*
X1163320Y440690D03*
X1111250Y510540D03*
X731520Y181610D03*
X1407160Y200660D03*
X-16510Y975360D03*
X-31750Y948690D03*
X198120Y411480D03*
X59690Y518160D03*
X-10160Y300990D03*
X-3810Y586740D03*
X590550Y158750D03*
X689610Y176530D03*
X275590Y419100D03*
X49530Y514350D03*
X-54610Y961390D03*
X-3810Y574040D03*
X63500Y220980D03*
X1235710Y186690D03*
X1109980Y504190D03*
X1325880Y238760D03*
X245110Y543560D03*
X76200Y593090D03*
X-31750Y981710D03*
X-20320Y716280D03*
X-50800Y421640D03*
X929640Y505460D03*
X660400Y557530D03*
X38100Y1047750D03*
X466090Y765810D03*
X721360Y184150D03*
X779780Y336550D03*
X1249680Y534670D03*
X1117600Y492760D03*
X632460Y321310D03*
X654050Y321310D03*
X791210Y182880D03*
X537210Y199390D03*
X704850Y161290D03*
X576580Y161290D03*
X548640Y193040D03*
X542290Y177800D03*
X101600Y411480D03*
X101600Y240030D03*
X731520Y200660D03*
X657860Y231140D03*
X1357630Y199390D03*
X746760Y200660D03*
X568960Y266700D03*
X1355090Y137160D03*
X1314450Y177800D03*
X228600Y473710D03*
X167640Y473710D03*
X283210Y419100D03*
X313690Y1008380D03*
X624840Y1008380D03*
X313690Y995680D03*
X659130Y995680D03*
X166370Y648970D03*
X194310Y621030D03*
X1259840Y572770D03*
X1277620Y590550D03*
X467360Y637540D03*
X608330Y610870D03*
X863600Y593090D03*
X1229360Y233680D03*
X1360170Y553720D03*
X1539240Y250190D03*
X262890Y370840D03*
X274320Y581660D03*
X88900Y666750D03*
X538480Y552450D03*
X767080Y511810D03*
X238760Y552450D03*
X259080Y572770D03*
X83820Y688340D03*
X175260Y621030D03*
X214630Y581660D03*
X1358900Y547370D03*
X1534160Y269240D03*
X781050Y603250D03*
X515620Y605790D03*
X767080Y163830D03*
X1099820Y166370D03*
X71120Y693420D03*
X283210Y621030D03*
X541020Y363220D03*
X774700Y273050D03*
X801370Y177800D03*
X760730Y163830D03*
X1050290Y161290D03*
X313690Y193040D03*
X546100Y160020D03*
X557530Y163830D03*
X763270Y173990D03*
X548640Y177800D03*
X-1270Y671830D03*
X-26670Y646430D03*
X149860Y615950D03*
X505460Y615950D03*
X152400Y627380D03*
X166370Y641350D03*
X96520Y1117600D03*
X109220Y1131570D03*
X166370Y1111250D03*
X374650Y1096010D03*
X1270Y648970D03*
X681990Y213360D03*
X740410Y237490D03*
X692150Y210820D03*
X764540Y266700D03*
X711200Y238760D03*
X701040Y238760D03*
X721360Y204470D03*
X697230Y218440D03*
X763270Y232410D03*
X595630Y246380D03*
X782320Y200660D03*
X636270Y236220D03*
X787400Y662940D03*
X787400Y605790D03*
M02*
